<?xml version="1.0" standalone="no"?><!DOCTYPE svg PUBLIC "-//W3C//DTD SVG 1.1//EN" "http://www.w3.org/Graphics/SVG/1.1/DTD/svg11.dtd"><svg t="1532937669141" class="icon" style="" viewBox="0 0 1024 1024" version="1.1" xmlns="http://www.w3.org/2000/svg" p-id="4254" xmlns:xlink="http://www.w3.org/1999/xlink" width="200" height="200"><defs><style type="text/css"></style></defs><path d="M933.21 362.15l0.85-0.35-6.7-16.37c-0.62-1.57-1.28-3.12-1.92-4.68l-7.55-18.44-0.85 0.35A445.76 445.76 0 0 0 828.21 195c-82-82-188-125.06-295.35-130.15v-1H490.2v1C382.8 70 276.87 113 194.86 195 20 369.94 20 653.5 194.86 828.39a447.85 447.85 0 0 0 633.35 0c126.11-126.12 160.79-308.6 105-466.24z m-135.16-137a402.52 402.52 0 0 1 79.45 113.71L532.85 479.93V107.56c100.15 5.18 193.74 46.18 265.2 117.64z m0 573c-76.54 76.53-178.29 118.68-286.52 118.68S301.55 874.76 225 798.23 106.34 619.95 106.34 511.72 148.49 301.74 225 225.2c71.46-71.46 165-112.46 265.19-117.64v404.15a21.34 21.34 0 0 0 29.41 19.74l374-153.09c49.4 142.2 17.83 306.49-95.55 419.87z" p-id="4255"></path></svg>