<?xml version="1.0" standalone="no"?><!DOCTYPE svg PUBLIC "-//W3C//DTD SVG 1.1//EN" "http://www.w3.org/Graphics/SVG/1.1/DTD/svg11.dtd"><svg t="1512475675729" class="icon" style="" viewBox="0 0 1024 1024" version="1.1" xmlns="http://www.w3.org/2000/svg" p-id="2170" xmlns:xlink="http://www.w3.org/1999/xlink" width="200" height="200"><defs><style type="text/css"></style></defs><path d="M715.41333333 30.87466667H308.56853333c-61.29386667 0-110.9568 49.69706667-110.9568 110.95253333v739.68533333c0 61.25546667 49.664 110.9536 110.9568 110.9536H715.41333333c61.29386667 0 110.95786667-49.69813333 110.95786667-110.95466666V141.82826667c0-61.2544-49.664-110.95253333-110.95893333-110.95253334zM475.00373333 67.8592h73.97333334c10.2208 0 18.49173333 8.27093333 18.49173333 18.49173333 0 10.2208-8.27093333 18.49173333-18.4928 18.49173334h-73.97226667c-10.21973333 0-18.49173333-8.27093333-18.49173333-18.49173334 0-10.2208 8.272-18.49173333 18.49173333-18.49173333z m36.98666667 879.424c-26.11413333 0-47.27893333-21.1648-47.27893333-47.27786667 0-26.112 21.16586667-47.27786667 47.27893333-47.27786666 26.11413333 0 47.28 21.16586667 47.28 47.27786666 0 26.11413333-21.16586667 47.2768-47.28 47.2768z m240.4064-158.2304c0 10.2208-8.26986667 18.49066667-18.49173333 18.49066667h-443.82933334c-10.22186667 0-18.49386667-8.26986667-18.49386666-18.49066667V160.32c0-10.2208 8.272-18.49173333 18.49386666-18.49173333h443.82933334c10.22186667 0 18.49173333 8.272 18.49173333 18.49173333v628.7328z" p-id="2171"></path></svg>