<?xml version="1.0" standalone="no"?><!DOCTYPE svg PUBLIC "-//W3C//DTD SVG 1.1//EN" "http://www.w3.org/Graphics/SVG/1.1/DTD/svg11.dtd"><svg t="1532937643407" class="icon" style="" viewBox="0 0 1024 1024" version="1.1" xmlns="http://www.w3.org/2000/svg" p-id="3930" xmlns:xlink="http://www.w3.org/1999/xlink" width="200" height="200"><defs><style type="text/css"></style></defs><path d="M613.15 350.2H409.52a20.36 20.36 0 0 0-20.36 20.36v570.19a20.36 20.36 0 0 0 20.36 20.36h203.63a20.36 20.36 0 0 0 20.36-20.36V370.57a20.36 20.36 0 0 0-20.36-20.37z m-20.36 570.19H429.88V390.93h162.91zM287.33 553.84H83.7a20.36 20.36 0 0 0-20.37 20.36v366.55a20.36 20.36 0 0 0 20.37 20.36h203.63a20.36 20.36 0 0 0 20.36-20.36V574.2a20.36 20.36 0 0 0-20.36-20.36zM267 920.39H104.06V594.57H267z m672-773.82H735.33A20.36 20.36 0 0 0 715 166.93v773.82a20.36 20.36 0 0 0 20.36 20.36H939a20.36 20.36 0 0 0 20.36-20.36V166.93A20.36 20.36 0 0 0 939 146.57z m-20.39 773.82H755.7v-733.1h162.91z" p-id="3931"></path></svg>