<?xml version="1.0" standalone="no"?><!DOCTYPE svg PUBLIC "-//W3C//DTD SVG 1.1//EN" "http://www.w3.org/Graphics/SVG/1.1/DTD/svg11.dtd"><svg t="1532937691765" class="icon" style="" viewBox="0 0 1024 1024" version="1.1" xmlns="http://www.w3.org/2000/svg" p-id="4794" xmlns:xlink="http://www.w3.org/1999/xlink" width="200" height="200"><defs><style type="text/css"></style></defs><path d="M829 193.9a448.52 448.52 0 0 0-634.29 0C19.55 369.06 19.55 653 194.69 828.2a448.52 448.52 0 0 0 634.29 0c175.16-175.2 175.16-459.14 0.02-634.3zM798.79 798c-76.65 76.64-178.56 118.85-286.94 118.85s-210.3-42.21-287-118.85c-158.21-158.22-158.21-415.66 0-573.88 76.65-76.65 178.56-118.86 287-118.86s210.29 42.21 286.94 118.86S917.64 402.66 917.64 511s-42.22 210.34-118.85 287z m-65.23-521.38a13.13 13.13 0 0 0-6.86 2L507.09 411.86a281 281 0 0 0-94.43 94.43l-133.25 219.6a12.79 12.79 0 0 0 10.72 19.59 13.13 13.13 0 0 0 6.86-2L516.6 610.24a281.07 281.07 0 0 0 94.4-94.43L744.28 296.2a12.78 12.78 0 0 0-10.72-19.58z m-159 217a239.17 239.17 0 0 1-80.07 80.06l-115.16 69.88 69.85-115.11a239.05 239.05 0 0 1 80.07-80.06l115.1-69.84z" p-id="4795"></path></svg>