<?xml version="1.0" standalone="no"?><!DOCTYPE svg PUBLIC "-//W3C//DTD SVG 1.1//EN" "http://www.w3.org/Graphics/SVG/1.1/DTD/svg11.dtd"><svg t="1532937635180" class="icon" style="" viewBox="0 0 1024 1024" version="1.1" xmlns="http://www.w3.org/2000/svg" p-id="3822" xmlns:xlink="http://www.w3.org/1999/xlink" width="200" height="200"><defs><style type="text/css"></style></defs><path d="M511.33 149.57a21.41 21.41 0 0 1 10.73 2.88L905.95 374.3a21.5 21.5 0 0 1 10.72 18.57l-0.36 524.68L106 919.06V392.87a21.52 21.52 0 0 1 10.73-18.57l383.88-221.85a21.42 21.42 0 0 1 10.72-2.88m0-42.67a64.07 64.07 0 0 0-32.08 8.6L95.38 337.36a64.12 64.12 0 0 0-32 55.51v526.19c0 22.73 19.27 41.16 43 41.16H916.3c23.76 0 43-18.43 43-41.16V392.87a64.11 64.11 0 0 0-32-55.51L543.42 115.51a64 64 0 0 0-32.07-8.6z" p-id="3823"></path></svg>