<?xml version="1.0" standalone="no"?><!DOCTYPE svg PUBLIC "-//W3C//DTD SVG 1.1//EN" "http://www.w3.org/Graphics/SVG/1.1/DTD/svg11.dtd"><svg t="1532937680743" class="icon" style="" viewBox="0 0 1024 1024" version="1.1" xmlns="http://www.w3.org/2000/svg" p-id="4470" xmlns:xlink="http://www.w3.org/1999/xlink" width="200" height="200"><defs><style type="text/css"></style></defs><path d="M518.79 534.84a21.63 21.63 0 0 1-29.81-20V105.11c-101.55 5.25-196.39 46.81-268.83 119.26C142.57 302 99.84 405.1 99.84 514.82s42.73 212.87 120.31 290.45S400.89 925.58 510.6 925.58s212.87-42.73 290.46-120.31C916 690.33 948 523.78 897.93 379.63z m405-215.17a452.08 452.08 0 0 0-90.05-129.37C750.6 107.15 643.2 63.52 534.33 58.36v420.75l349.39-143z" p-id="4471"></path></svg>