<?xml version="1.0" standalone="no"?><!DOCTYPE svg PUBLIC "-//W3C//DTD SVG 1.1//EN" "http://www.w3.org/Graphics/SVG/1.1/DTD/svg11.dtd"><svg t="1532937677043" class="icon" style="" viewBox="0 0 1024 1024" version="1.1" xmlns="http://www.w3.org/2000/svg" p-id="4362" xmlns:xlink="http://www.w3.org/1999/xlink" width="200" height="200"><defs><style type="text/css"></style></defs><path d="M873 144.08H296c-48.18 0-87.38 39.64-87.38 88.36V503h-57.93c-48.18 0-87.36 39.64-87.36 88.36v276.22c0 50.71 41.73 92 93 92H848c62 0 112.37-49.81 112.37-111V232.44c-0.02-48.72-39.2-88.36-87.37-88.36z m-664.39 723.5c0 28.23-23.43 51.21-52.24 51.21s-52.26-23-52.26-51.21V591.4c0-26.24 20.9-47.58 46.59-47.58h57.92z m711-19.05c0 38.74-32.11 70.26-71.59 70.26H233.6a90.68 90.68 0 0 0 15.79-51.21V232.44c0-26.24 20.9-47.58 46.61-47.58h577c25.68 0 46.59 21.34 46.59 47.58z m-98.11-496h-472a20.39 20.39 0 1 0 0 40.77h472a20.39 20.39 0 1 0 0-40.77z m0 150.55h-472a20.39 20.39 0 1 0 0 40.77h472a20.39 20.39 0 1 0 0-40.77zM624.75 664.94H349.51a20.39 20.39 0 0 0 0 40.77h275.24a20.39 20.39 0 0 0 0-40.77z" p-id="4363"></path></svg>