<?xml version="1.0" standalone="no"?><!DOCTYPE svg PUBLIC "-//W3C//DTD SVG 1.1//EN" "http://www.w3.org/Graphics/SVG/1.1/DTD/svg11.dtd"><svg t="1532937688290" class="icon" style="" viewBox="0 0 1024 1024" version="1.1" xmlns="http://www.w3.org/2000/svg" p-id="4686" xmlns:xlink="http://www.w3.org/1999/xlink" width="200" height="200"><defs><style type="text/css"></style></defs><path d="M798.76 224c-76.67-76.66-178.6-118.88-287-118.88S301.4 147.38 224.73 224c-158.25 158.26-158.25 415.76 0 574 76.67 76.66 178.6 118.88 287 118.88s210.34-42.22 287-118.88 118.88-178.59 118.88-287-42.19-210.29-118.85-287zM692.87 343.72l-103.78 171a219 219 0 0 1-73.55 73.54l-171 103.77a9.93 9.93 0 0 1-13.7-13.7l103.78-171a218.77 218.77 0 0 1 73.55-73.54L679.18 330a9.93 9.93 0 0 1 13.69 13.72z" p-id="4687"></path></svg>