<?xml version="1.0" standalone="no"?><!DOCTYPE svg PUBLIC "-//W3C//DTD SVG 1.1//EN" "http://www.w3.org/Graphics/SVG/1.1/DTD/svg11.dtd"><svg t="1532937663863" class="icon" style="" viewBox="0 0 1024 1024" version="1.1" xmlns="http://www.w3.org/2000/svg" p-id="4146" xmlns:xlink="http://www.w3.org/1999/xlink" width="200" height="200"><defs><style type="text/css"></style></defs><path d="M592.86 350.16H430a20.36 20.36 0 0 0-20.36 20.36v570.07A20.36 20.36 0 0 0 430 960.95h162.86a20.36 20.36 0 0 0 20.36-20.36V370.52a20.36 20.36 0 0 0-20.36-20.36zM267.11 553.76H104.23a20.36 20.36 0 0 0-20.36 20.36v366.47a20.36 20.36 0 0 0 20.36 20.36h162.88a20.36 20.36 0 0 0 20.36-20.36V574.12a20.36 20.36 0 0 0-20.36-20.36zM918.61 146.57H755.73a20.36 20.36 0 0 0-20.36 20.36v773.66a20.36 20.36 0 0 0 20.36 20.36h162.88A20.36 20.36 0 0 0 939 940.59V166.93a20.36 20.36 0 0 0-20.36-20.36z" p-id="4147"></path></svg>