<?xml version="1.0" standalone="no"?><!DOCTYPE svg PUBLIC "-//W3C//DTD SVG 1.1//EN" "http://www.w3.org/Graphics/SVG/1.1/DTD/svg11.dtd"><svg t="1531985971959" class="icon" style="" viewBox="0 0 1024 1024" version="1.1" xmlns="http://www.w3.org/2000/svg" p-id="7080" xmlns:xlink="http://www.w3.org/1999/xlink" width="200" height="200"><defs><style type="text/css"></style></defs><path d="M350.3 959.56a58.27 58.27 0 0 1-41.2-99.47L646.8 522.4a15.32 15.32 0 0 0 4.2-11.47 23.26 23.26 0 0 0-7.17-15.85L312.06 163.34a58.26 58.26 0 0 1 82.4-82.4l331.75 331.75a139.48 139.48 0 0 1 41.26 95.09c1 36.87-12.58 71.33-38.27 97L391.5 942.49a58.08 58.08 0 0 1-41.2 17.07z" p-id="7081"></path></svg>