<?xml version="1.0" standalone="no"?><!DOCTYPE svg PUBLIC "-//W3C//DTD SVG 1.1//EN" "http://www.w3.org/Graphics/SVG/1.1/DTD/svg11.dtd"><svg t="1534933436514" class="icon" style="" viewBox="0 0 1024 1024" version="1.1" xmlns="http://www.w3.org/2000/svg" p-id="3755" xmlns:xlink="http://www.w3.org/1999/xlink" width="200" height="200"><defs><style type="text/css"></style></defs><path d="M693.76 396.8L512 578.56 330.24 396.8c-10.24-10.24-25.6-10.24-35.84 0-10.24 10.24-10.24 25.6 0 35.84l197.12 197.12c5.12 5.12 15.36 7.68 23.04 7.68 7.68 2.56 15.36 0 23.04-7.68l197.12-197.12c10.24-10.24 10.24-25.6 0-35.84-15.36-10.24-30.72-10.24-40.96 0zM512 102.4c-225.28 0-409.6 184.32-409.6 409.6S286.72 921.6 512 921.6 921.6 737.28 921.6 512 737.28 102.4 512 102.4z m0 768c-197.12 0-358.4-161.28-358.4-358.4S314.88 153.6 512 153.6 870.4 314.88 870.4 512 709.12 870.4 512 870.4z" p-id="3756"></path></svg>