<?xml version="1.0" standalone="no"?><!DOCTYPE svg PUBLIC "-//W3C//DTD SVG 1.1//EN" "http://www.w3.org/Graphics/SVG/1.1/DTD/svg11.dtd"><svg t="1534933444879" class="icon" style="" viewBox="0 0 1024 1024" version="1.1" xmlns="http://www.w3.org/2000/svg" p-id="3864" xmlns:xlink="http://www.w3.org/1999/xlink" width="200" height="200"><defs><style type="text/css"></style></defs><path d="M522.24 396.8c-5.12-5.12-15.36-7.68-23.04-7.68-7.68-2.56-15.36 0-23.04 7.68L281.6 591.36c-10.24 10.24-10.24 25.6 0 35.84 10.24 10.24 25.6 10.24 35.84 0L499.2 445.44 680.96 627.2c10.24 10.24 25.6 10.24 35.84 0 10.24-10.24 10.24-25.6 0-35.84L522.24 396.8zM499.2 102.4C273.92 102.4 89.6 286.72 89.6 512s184.32 409.6 409.6 409.6S908.8 737.28 908.8 512 724.48 102.4 499.2 102.4z m0 768c-197.12 0-358.4-161.28-358.4-358.4s161.28-358.4 358.4-358.4S857.6 314.88 857.6 512 696.32 870.4 499.2 870.4z" p-id="3865"></path></svg>