<?xml version="1.0" standalone="no"?><!DOCTYPE svg PUBLIC "-//W3C//DTD SVG 1.1//EN" "http://www.w3.org/Graphics/SVG/1.1/DTD/svg11.dtd"><svg t="1533266990392" class="icon" style="" viewBox="0 0 1024 1024" version="1.1" xmlns="http://www.w3.org/2000/svg" p-id="5227" xmlns:xlink="http://www.w3.org/1999/xlink" width="200" height="200"><defs><style type="text/css"></style></defs><path d="M765.43 63.95H231.8c-68.93 0-125 59.13-125 131.82v356.49c0 104.9 53 200.93 141.72 256.88l218.03 137.48a84 84 0 0 0 92.23-1.75l199.58-136.68a303.52 303.52 0 0 0 132.08-250.55V195.76c0-72.68-56.08-131.81-125.01-131.81z m41.05 493.69a219.69 219.69 0 0 1-95.57 181.28L511.33 875.59V147.91h254.1c22.67 0 41.05 21.42 41.05 47.85z" p-id="5228"></path></svg>