<?xml version="1.0" standalone="no"?><!DOCTYPE svg PUBLIC "-//W3C//DTD SVG 1.1//EN" "http://www.w3.org/Graphics/SVG/1.1/DTD/svg11.dtd"><svg t="1533522805537" class="icon" style="" viewBox="0 0 1024 1024" version="1.1" xmlns="http://www.w3.org/2000/svg" p-id="5443" xmlns:xlink="http://www.w3.org/1999/xlink" width="200" height="200"><defs><style type="text/css"></style></defs><path d="M512 959.56a48.56 48.56 0 0 1-33.65-13.26L401 872.44a39.23 39.23 0 0 0-26.95-10.6h-177c-73.76 0-133.76-57.7-133.76-128.63V230.85c0-70.93 60-128.63 133.76-128.63h628.54c73.74 0 133.74 57.7 133.74 128.63v502.36c0 70.93-60 128.63-133.74 128.63H649.94A39.3 39.3 0 0 0 623 872.42l-77.34 73.88A48.66 48.66 0 0 1 512 959.56zM197.1 141.2c-52.28 0-94.79 40.21-94.79 89.65v502.36c0 49.44 42.51 89.65 94.79 89.65h177a77.46 77.46 0 0 1 53.86 21.39l77.34 73.84a10.14 10.14 0 0 0 13.49 0l77.34-73.86a77.53 77.53 0 0 1 53.86-21.37h175.6c52.26 0 94.77-40.21 94.77-89.65V230.85c0-49.44-42.51-89.65-94.77-89.65z" p-id="5444"></path></svg>