<?xml version="1.0" standalone="no"?><!DOCTYPE svg PUBLIC "-//W3C//DTD SVG 1.1//EN" "http://www.w3.org/Graphics/SVG/1.1/DTD/svg11.dtd"><svg t="1535682334527" class="icon" style="" viewBox="0 0 1024 1024" version="1.1" xmlns="http://www.w3.org/2000/svg" p-id="22779" xmlns:xlink="http://www.w3.org/1999/xlink" width="200" height="200"><defs><style type="text/css"></style></defs><path d="M575.328 510.496l371.456-369.824c17.568-17.504 17.664-45.824 0.192-63.424-17.504-17.632-45.792-17.664-63.36-0.192L512.032 446.944 143.712 77.216c-17.408-17.504-45.792-17.568-63.328-0.096-17.536 17.504-17.568 45.888-0.096 63.456l368.224 369.632-371.296 369.6c-17.568 17.504-17.664 45.824-0.192 63.424 8.736 8.8 20.256 13.216 31.776 13.216 11.424 0 22.848-4.352 31.584-13.056l371.36-369.696 371.68 373.088C892.192 955.616 903.68 960 915.168 960a44.735 44.735 0 0 0 31.648-13.088c17.504-17.504 17.568-45.824 0.096-63.392L575.328 510.496z m0 0" p-id="22780"></path></svg>