<?xml version="1.0" standalone="no"?><!DOCTYPE svg PUBLIC "-//W3C//DTD SVG 1.1//EN" "http://www.w3.org/Graphics/SVG/1.1/DTD/svg11.dtd"><svg t="1536212831245" class="icon" style="" viewBox="0 0 1024 1024" version="1.1" xmlns="http://www.w3.org/2000/svg" p-id="20751" xmlns:xlink="http://www.w3.org/1999/xlink" width="200" height="200"><defs><style type="text/css"></style></defs><path d="M507.72 128c-221 0-400.11 179.14-400.11 400.12s179.13 400.1 400.11 400.1 400.12-179.14 400.12-400.11S728.71 128 507.72 128z m0 733.54C323.86 861.53 174.3 712 174.3 528.11s149.56-333.43 333.42-333.43 333.43 149.57 333.43 333.43-149.57 333.42-333.43 333.42zM740.66 574a22.25 22.25 0 0 0-27.61 15c-26.83 90.26-111.23 153.27-205.31 153.27S329.22 679.21 302.44 589a22.24 22.24 0 1 0-42.63 12.67c32.39 109 134.33 185 247.94 185s215.56-76.11 247.9-185.06A22.23 22.23 0 0 0 740.66 574z m-364.11-75.46a66.68 66.68 0 1 0-66.69-66.68 66.68 66.68 0 0 0 66.69 66.68z m268 0a66.68 66.68 0 1 0-66.66-66.68 66.68 66.68 0 0 0 66.63 66.68z" p-id="20752"></path></svg>