<?xml version="1.0" standalone="no"?><!DOCTYPE svg PUBLIC "-//W3C//DTD SVG 1.1//EN" "http://www.w3.org/Graphics/SVG/1.1/DTD/svg11.dtd"><svg t="1534326025353" class="icon" style="" viewBox="0 0 1024 1024" version="1.1" xmlns="http://www.w3.org/2000/svg" p-id="3973" xmlns:xlink="http://www.w3.org/1999/xlink" width="200" height="200"><defs><style type="text/css"></style></defs><path d="M1021.315362 443.908176c-2.942603-38.191853-10.043646-41.646387-47.78656-38.639792-41.77437 3.326552-77.085612-17.463647-91.479672-53.862741-14.777009-37.231982-4.093448-75.61481 28.468164-102.291215 21.942043-17.975578 24.628681-32.561612 4.733362-53.607776-29.938965-31.665733-61.156758-62.244612-93.71737-91.159714-25.269595-22.389983-37.040008-19.510371-58.406129 7.421-26.100483 32.881569-67.873853 42.66925-105.808741 24.948637-35.568207-16.631759-52.264956-47.018664-49.513327-90.135852 1.85475-29.554017-6.846077-39.91762-36.336103-42.156319-23.029896-1.791759-46.059793-3.006595-67.681879-4.414405-22.709939 2.494664-43.884086 4.349414-64.867258 7.165034-29.363043 3.902474-35.69519 12.474319-33.137535 42.541267 3.902474 45.610853-15.096965 79.899232-52.967861 95.57312-36.720051 15.224948-74.71893 4.285422-103.570043-29.746991-17.079698-20.151284-31.985689-23.093888-50.857146-5.245293-31.729724 29.809983-62.883525 60.516844-91.798628 93.141447-24.692672 27.82825-21.942043 37.294974 6.589112 61.092767 27.123345 22.646948 38.894758 51.625043 31.345775 86.681319-7.740957 35.632198-30.322914 58.534112-65.634155 66.785999-12.98625 3.006595-27.252327 1.087853-40.878491 0.959871-18.5515-0.191974-30.257922 8.252888-32.689594 26.420439-6.716095 50.409207-6.97206 100.882405 2.175707 151.099637 3.582517 19.831327 14.265078 27.508293 34.288379 26.292457 10.555577-0.639914 21.238138-3.134578 31.601741-2.109716 36.975017 3.645509 66.019103 28.210198 75.997758 62.818534 9.979655 34.417362-1.85475 69.537629-31.53775 93.398414-24.436707 19.639353-27.123345 33.265517-5.885207 55.847473 29.427034 31.281784 59.941922 61.731681 92.182577 90.071862 27.444301 24.11675 37.871896 21.302129 60.77281-7.932931 31.410767-40.174586 87.70518-45.547862 126.215991-12.602302 25.844517 22.134017 32.753586 50.08925 29.363043 82.58687-2.494664 23.989767 6.333147 37.806905 27.37931 38.254845 47.274629 0.959871 94.677241 1.151845 141.824887-1.662776 30.705862-1.85575 36.783043-12.794276 33.328508-43.757103-5.053319-44.906948 13.818138-80.155198 51.49706-96.148043 38.06287-16.120827 76.637672-5.182302 104.84987 29.745991 17.271672 21.36712 32.432629 24.501698 52.007991 5.821216 32.433629-30.897836 63.971379-62.947517 93.71837-96.404008 21.622086-24.309724 18.5515-37.423957-7.484991-57.06231-21.750069-16.377793-34.032414-38.127862-35.568207-65.187215-3.198569-55.335543 41.901353-97.300887 97.940801-91.735637 28.595146 2.815621 42.604258-5.309284 43.244172-30.257922 1.087853-44.140051 1.471802-88.536068-1.918741-132.549137zM513.318822 735.039942C390.365392 733.699123 291.720686 633.646606 293.32047 511.909012c1.599784-120.13781 100.755422-218.910498 219.230456-218.398567 122.441499 0.511931 223.451886 101.203361 222.173058 221.661128-1.215836 122.057551-101.13937 221.213188-221.405162 219.870369z" p-id="3974"></path></svg>