<?xml version="1.0" standalone="no"?><!DOCTYPE svg PUBLIC "-//W3C//DTD SVG 1.1//EN" "http://www.w3.org/Graphics/SVG/1.1/DTD/svg11.dtd"><svg t="1532069443274" class="icon" style="" viewBox="0 0 1024 1024" version="1.1" xmlns="http://www.w3.org/2000/svg" p-id="7512" xmlns:xlink="http://www.w3.org/1999/xlink" width="200" height="200"><defs><style type="text/css"></style></defs><path d="M501.296401 567.264169h21.43386a36.576189 36.576189 0 0 0 35.043295-47.119835l-10.663612-35.816407a36.576189 36.576189 0 0 0-35.043295-26.085861 36.576189 36.576189 0 0 0-35.043295 26.085861l-10.663612 35.816407a36.576189 36.576189 0 0 0 34.936659 47.119835z m-113.207571-94.839499a82.376403 82.376403 0 1 0-82.376402-82.376403 82.376403 82.376403 0 0 0 82.376402 82.376403z m247.835672 0a82.376403 82.376403 0 1 0-82.376402-82.376403 82.376403 82.376403 0 0 0 82.376402 82.376403zM810.714432 0H213.272241l-213.27224 213.27224v597.45552l213.27224 213.27224h597.442191l213.27224-213.27224V213.27224zM256.553176 380.317721c0-141.092916 114.367239-255.460155 255.460155-255.460154 141.092916 0 255.460155 114.367239 255.460155 255.460154v88.094765a26.445758 26.445758 0 0 1-26.445758 26.405769 114.460545 114.460545 0 0 0-112.4078 92.90672 26.445758 26.445758 0 0 1-25.979225 21.527166h-181.281403a26.445758 26.445758 0 0 1-25.979225-21.527166 114.460545 114.460545 0 0 0-112.381141-92.90672 26.445758 26.445758 0 0 1-26.445758-26.445758z m525.636094 449.204655q-16.555258 39.228763-53.064799 28.685117L512.013331 780.416443l-217.164458 77.79105q-36.429564 10.570305-53.011481-28.751764-11.356747-38.655593 23.499935-53.637968l116.926505-41.881337-117.379709-42.054619q-34.803364-14.942386-22.660175-55.863998 15.795475-37.029393 52.21171-26.525734l217.630991 77.951003 217.564344-77.990992q36.402905-10.503658 52.21171 26.525735 12.116529 40.881622-22.660176 55.863997l-117.379709 42.05462L758.729324 775.777772q34.803364 15.049022 23.459946 53.677957z" p-id="7513"></path></svg>