<?xml version="1.0" standalone="no"?><!DOCTYPE svg PUBLIC "-//W3C//DTD SVG 1.1//EN" "http://www.w3.org/Graphics/SVG/1.1/DTD/svg11.dtd"><svg t="1536212840725" class="icon" style="" viewBox="0 0 1024 1024" version="1.1" xmlns="http://www.w3.org/2000/svg" p-id="20969" xmlns:xlink="http://www.w3.org/1999/xlink" width="200" height="200"><defs><style type="text/css"></style></defs><path d="M896.28 393.35H559.65l65.51-188a32 32 0 0 0-11.51-36.53l-35.34-25.49a32 32 0 0 0-42.79 4.8l-203.1 230.69a51.24 51.24 0 0 0-12.8 33.86V844a51.27 51.27 0 0 0 51.26 51.26H745.7a128.12 128.12 0 0 0 118-78.28l76.41-180.86a256.41 256.41 0 0 0 20.2-99.74v-78.96a64.06 64.06 0 0 0-64.03-64.07z m-724 21.35H114.6A51.27 51.27 0 0 0 63.33 466v378a51.27 51.27 0 0 0 51.26 51.26h57.67A51.24 51.24 0 0 0 223.52 844V466a51.25 51.25 0 0 0-51.25-51.3z" p-id="20970"></path></svg>