<?xml version="1.0" standalone="no"?><!DOCTYPE svg PUBLIC "-//W3C//DTD SVG 1.1//EN" "http://www.w3.org/Graphics/SVG/1.1/DTD/svg11.dtd"><svg t="1548061473985" class="icon" style="" viewBox="0 0 1024 1024" version="1.1" xmlns="http://www.w3.org/2000/svg" p-id="3517" xmlns:xlink="http://www.w3.org/1999/xlink" width="200" height="200"><defs><style type="text/css"></style></defs><path d="M485.2398 187.3009c14.7323-31.2494 38.8444-31.2494 53.5747 0l63.8157 135.3288c14.7313 31.2463 54.8465 61.0806 89.1249 66.2917l137.8437 20.9592c34.2774 5.2101 42.5083 29.6899 18.2989 54.3969l-101.8982 103.9483c-24.2278 24.7091-39.4691 72.8023-33.8883 106.8677l24.5473 149.7324c5.5818 34.0716-14.679 48.2826-45.0314 31.5781l-124.418-68.4636c-30.3524-16.6963-80.0143-16.6963-110.3667 0l-124.4252 68.4636c-30.3452 16.7045-50.6163 2.4945-45.0273-31.5781l24.533-149.7324c5.589-34.0664-9.6625-82.1596-33.8811-106.8677l-101.8798-103.9462c-24.2186-24.7071-15.9877-49.1878 18.2958-54.398l137.8406-20.9592c34.2835-5.2101 74.3905-35.0454 89.1228-66.2917L485.2398 187.3009z" p-id="3518"></path></svg>