<?xml version="1.0" standalone="no"?><!DOCTYPE svg PUBLIC "-//W3C//DTD SVG 1.1//EN" "http://www.w3.org/Graphics/SVG/1.1/DTD/svg11.dtd"><svg t="1536659078311" class="icon" style="" viewBox="0 0 1024 1024" version="1.1" xmlns="http://www.w3.org/2000/svg" p-id="8295" xmlns:xlink="http://www.w3.org/1999/xlink" width="200" height="200"><defs><style type="text/css"></style></defs><path d="M512 65.984c-247.36 0-448 200.576-448 448 0 247.36 200.64 448 448 448 247.424 0 448-200.64 448-448C960 266.56 759.424 65.984 512 65.984zM511.936 897.984c-212.032 0-384-171.904-384-384 0-212.096 171.968-384 384-384s384 171.968 384 384C895.936 726.144 723.968 897.984 511.936 897.984zM718.72 358.208l-223.36 358.784C487.616 729.408 474.112 737.28 459.52 737.92c-0.64 0.064-1.344 0.064-1.984 0.064-14.016 0-27.136-6.592-35.648-17.664L277.76 539.52C262.848 519.872 266.752 491.84 286.4 476.928c19.776-14.784 47.616-10.944 62.528 8.64l105.024 129.152 189.248-303.744c12.992-20.928 40.512-27.264 61.376-14.272C725.504 309.696 731.776 337.28 718.72 358.208z" p-id="8296"></path></svg>