<?xml version="1.0" standalone="no"?><!DOCTYPE svg PUBLIC "-//W3C//DTD SVG 1.1//EN" "http://www.w3.org/Graphics/SVG/1.1/DTD/svg11.dtd"><svg t="1533537797255" class="icon" style="" viewBox="0 0 1024 1024" version="1.1" xmlns="http://www.w3.org/2000/svg" p-id="5999" xmlns:xlink="http://www.w3.org/1999/xlink" width="200" height="200"><defs><style type="text/css"></style></defs><path d="M579.79 511.865c-11.668 0-23.342 10.836-23.342 24.175 0 10.838 11.668 21.675 23.342 21.675 17.512 0 30.016-10.838 30.016-21.675 0-13.338-12.504-24.175-30.016-24.175z m-76.702-112.557c18.342 0 30.016-11.669 30.016-29.181 0-18.343-11.673-29.18-30.016-29.18-17.508 0-34.184 10.838-34.184 29.18 0 17.514 16.675 29.18 34.184 29.18zM512.26 0.56C229.639 0.56 0.538 229.663 0.538 512.28 0.538 794.897 229.64 1024 512.259 1024c282.615 0 511.719-229.103 511.719-511.719C1023.978 229.663 794.875 0.56 512.259 0.56z m-96.711 641.364c-30.852 0-53.363-5-82.543-13.338l-84.207 42.524 24.183-71.706c-59.196-41.683-94.216-94.208-94.216-158.408 0-113.388 106.719-200.097 236.784-200.097 115.054 0 217.603 68.368 237.612 165.084-8.336-1.672-15.842-2.5-22.51-2.5-113.389 0-200.928 85.038-200.928 187.588 0 17.505 2.501 33.345 6.67 50.023-6.67 0.83-14.176 0.83-20.845 0.83z m347.667 81.705l16.672 60.032-63.363-35.849c-24.177 5-47.524 12.504-71.7 12.504-111.722 0-200.096-76.702-200.096-171.747 0-95.046 88.375-171.748 200.097-171.748 105.882 0 200.927 76.702 200.927 171.748 0 53.355-35.849 100.878-82.537 135.06zM338.01 340.947c-17.508 0-35.85 10.838-35.85 29.18 0 17.512 18.342 29.186 35.85 29.186 16.677 0 30.016-11.674 30.016-29.186 0-18.342-13.34-29.18-30.016-29.18zM710.69 511.865c-12.508 0-23.347 10.836-23.347 24.175 0 10.838 10.839 21.675 23.347 21.675 16.672 0 29.18-10.838 29.18-21.675 0-13.338-12.51-24.175-29.18-24.175z m0 0" p-id="6000"></path></svg>