<?xml version="1.0" standalone="no"?><!DOCTYPE svg PUBLIC "-//W3C//DTD SVG 1.1//EN" "http://www.w3.org/Graphics/SVG/1.1/DTD/svg11.dtd"><svg t="1536212836665" class="icon" style="" viewBox="0 0 1024 1024" version="1.1" xmlns="http://www.w3.org/2000/svg" p-id="20860" xmlns:xlink="http://www.w3.org/1999/xlink" width="200" height="200"><defs><style type="text/css"></style></defs><path d="M507.88 624.86c-84.4 0-152.73 67.49-154.73 151.42 0.17-0.12 0.24-0.34 0.43-0.47 89.48-67.53 219.07-67.6 308.6-0.07 0.17 0.14 0.26 0.34 0.43 0.5-2.04-83.91-70.35-151.38-154.73-151.38zM931 606.68c-5.66-8.51-15.13-17.48-26.7-26.58a402.6 402.6 0 0 0 3.75-52C908 307.13 728.89 128 507.9 128S107.79 307.13 107.79 528.11a402.33 402.33 0 0 0 3.76 52c-11.57 9.1-21.05 18.09-26.72 26.6a127.71 127.71 0 0 0-19.25 47.08 129.87 129.87 0 0 0-2.24 24.65c0 0.84 0.24 1.67 0.26 2.51a128.42 128.42 0 0 0 14.8 55.8 133.29 133.29 0 0 0 17.67 26.08 121.2 121.2 0 0 0 24.35 21.5 127.8 127.8 0 0 0 20.65 10.92c2.06 0.89 4.19 1.62 6.27 2.39a127 127 0 0 0 16.24 4.79c2.09 0.46 4.13 1 6.19 1.36a127.89 127.89 0 0 0 21.55 2h0.37a129.29 129.29 0 0 0 25.68-3.1c0.74-0.16 1.52-0.11 2.26-0.27-0.68 0.15-1.3 0.45-2 0.59 72.92 77 175.83 125.25 290.23 125.25S725.24 880 798.15 803c-0.67-0.14-1.3-0.44-2-0.6 0.76 0.16 1.52 0.12 2.28 0.28a129 129 0 0 0 25.68 3.1h0.37a128 128 0 0 0 21.56-2c2.06-0.36 4.1-0.9 6.14-1.36a126.29 126.29 0 0 0 16.26-4.79c2.11-0.77 4.21-1.5 6.27-2.39a122.4 122.4 0 0 0 40.68-27.41c16.17-16.3 26.81-36.45 32.41-57.85 8.93-34.13 4.28-71.63-16.8-103.3zM249.11 737.92a83.36 83.36 0 0 1-57.79 23.42c-3.08 0-6-1-9.07-1.35-13.17-1.47-26-5.24-37.18-12.69a83.77 83.77 0 0 1-23.31-115.86l0.07-0.11c7.51-11.28 29.22-26.79 58.31-43.65 30.08-17.44 68.09-36.33 106.91-53.51-1.78 83.42-10.7 166.92-26 189.89a83 83 0 0 1-11.94 13.86z m487.18 32.48c-59.74 56.33-140 91.14-228.38 91.14s-168.65-34.81-228.37-91.14c-0.3 0.29-0.65 0.5-1 0.78 0.28-0.27 0.5-0.65 0.78-0.92A128 128 0 0 0 298 748.71c39.23-58.87 33.32-281 33.32-281.07s-5.05 2-13.37 5.34c-12.57 5.09-32.82 13.51-56.72 24.22-5.67 2.55-11.53 5.21-17.52 8-22.18 10.28-46.08 22.06-68.68 34.43-0.13-3.84-0.59-7.62-0.59-11.5 0-183.86 149.57-333.43 333.43-333.43s333.48 149.55 333.48 333.41c0 3.89-0.45 7.66-0.59 11.51C805.06 520.06 766.14 502.1 736 489c-2.73-1.19-5.23-2.25-7.82-3.36q-10.42-4.46-18.77-7.93c-15.17-6.29-24.92-10.08-24.92-10.08s-0.37 14.32-0.3 36.66c0.11 44.71 2.07 121.42 12.53 179.71 1 5.83 2.19 11.48 3.41 16.89 4.53 20 10.29 36.77 17.64 47.8a127.64 127.64 0 0 0 18.67 21.55c0.28 0.27 0.5 0.64 0.78 0.91-0.3-0.26-0.65-0.46-0.93-0.75z m134.46-23.09c-11.2 7.46-24 11.22-37.17 12.69-3.06 0.34-6 1.35-9.07 1.35a86.52 86.52 0 0 1-69.74-37.29c-15.28-23-24.21-106.46-26-189.88 38.81 17.19 76.84 36.07 106.93 53.52 29.07 16.84 50.77 32.36 58.28 43.63l0.07 0.14a83.74 83.74 0 0 1-23.3 115.84z m-278-313.5h0.52l169.27-3.86a22.22 22.22 0 0 0 21.71-22.73c-0.28-12.29-10.31-22.66-22.73-21.73l-109 2.5 60.26-53.86A22.23 22.23 0 0 0 683.09 301l-105.16 94a22.22 22.22 0 0 0 14.8 38.79z m-162.87 0A22.22 22.22 0 0 0 444.69 395L339.5 301a22.22 22.22 0 1 0-29.61 33.13L370.11 388l-109-2.5c-12.2-0.91-22.47 9.44-22.75 21.73A22.24 22.24 0 0 0 260 429.95l169.32 3.86z" p-id="20861"></path></svg>