<?xml version="1.0" standalone="no"?><!DOCTYPE svg PUBLIC "-//W3C//DTD SVG 1.1//EN" "http://www.w3.org/Graphics/SVG/1.1/DTD/svg11.dtd"><svg t="1536662227844" class="icon" style="" viewBox="0 0 1024 1024" version="1.1" xmlns="http://www.w3.org/2000/svg" p-id="16383" xmlns:xlink="http://www.w3.org/1999/xlink" width="200" height="200"><defs><style type="text/css"></style></defs><path d="M883.5 283.4v571.5c0 15.5-5.6 28.8-17 40.2-11.3 11.3-24.7 17-40.2 17H197.7c-15.5 0-28.8-5.6-40.2-17-11.4-11.3-17-24.7-17-40.2V283.4c0-15.5 5.6-28.8 17-40.2 11.3-11.3 24.7-17 40.2-17h57.2v-42.8c0-19.6 6.9-36.4 20.9-50.4s30.8-20.9 50.4-20.9h28.5c19.6 0 36.4 7 50.4 20.9 14 14 20.9 30.8 20.9 50.4v42.8h171.5v-42.8c0-19.6 6.9-36.4 20.9-50.4s31-21 50.6-21h28.5c19.6 0 36.4 7 50.4 20.9 14 14 20.9 30.8 20.9 50.4v42.8H826c15.5 0 28.8 5.6 40.2 17 11.6 11.4 17.3 24.8 17.3 40.3zM197.7 526.3h128.5V397.6H197.7v128.7z m0 171.3h128.5V554.8H197.7v142.8z m0 157.2h128.5V726.3H197.7v128.5z m171.4-542.9V183.4c0-3.8-1.4-7.2-4.2-10s-6.2-4.2-10-4.2h-28.5c-3.8 0-7.2 1.4-10 4.2-2.8 2.8-4.2 6.2-4.2 10v128.5c0 3.8 1.4 7.2 4.2 10 2.8 2.8 6.2 4.2 10 4.2h28.5c3.8 0 7.2-1.4 10-4.2 2.8-2.8 4.2-6.1 4.2-10z m-14.3 214.4h142.9V397.6H354.8v128.7z m0 171.3h142.9V554.8H354.8v142.8z m0 157.2h142.9V726.3H354.8v128.5z m171.5-328.5h142.9V397.6H526.3v128.7z m0 171.3h142.9V554.8H526.3v142.8z m0 157.2h142.9V726.3H526.3v128.5zM712 311.9V183.4c0-3.8-1.4-7.2-4.2-10s-6.2-4.2-10-4.2h-28.5c-3.8 0-7.2 1.4-10 4.2s-4.2 6.2-4.2 10v128.5c0 3.8 1.4 7.2 4.2 10s6.2 4.2 10 4.2h28.5c3.8 0 7.2-1.4 10-4.2 2.8-2.8 4.2-6.1 4.2-10z m-14.3 214.4h128.5V397.6H697.7v128.7z m0 171.3h128.5V554.8H697.7v142.8z m0 157.2h128.5V726.3H697.7v128.5z" p-id="16384"></path></svg>