<?xml version="1.0" standalone="no"?><!DOCTYPE svg PUBLIC "-//W3C//DTD SVG 1.1//EN" "http://www.w3.org/Graphics/SVG/1.1/DTD/svg11.dtd"><svg t="1536659066753" class="icon" style="" viewBox="0 0 1024 1024" version="1.1" xmlns="http://www.w3.org/2000/svg" p-id="8065" xmlns:xlink="http://www.w3.org/1999/xlink" width="200" height="200"><defs><style type="text/css"></style></defs><path d="M512 931.146219c-231.480049 0-419.146219-187.66617-419.146219-419.146219s187.66617-419.146219 419.146219-419.146219 419.146219 187.66617 419.146219 419.146219S743.480049 931.146219 512 931.146219L512 931.146219zM512 148.739603c-200.63146 0-363.260397 162.628938-363.260397 363.260397s162.628938 363.260397 363.260397 363.260397 363.260397-162.628938 363.260397-363.260397S712.63146 148.739603 512 148.739603L512 148.739603zM512 763.487731c-30.877241 0-55.885821-25.00858-55.885821-55.885821s25.00858-55.886845 55.885821-55.886845 55.885821 25.009603 55.885821 55.886845S542.877241 763.487731 512 763.487731L512 763.487731zM512 595.829244c-15.424294 0-27.943422-25.00858-27.943422-55.885821l-27.942399-251.487731c0-30.877241 25.00858-55.886845 55.885821-55.886845s55.885821 25.009603 55.885821 55.886845l-27.942399 251.487731C539.943422 570.820664 527.424294 595.829244 512 595.829244L512 595.829244z" p-id="8066"></path></svg>