<?xml version="1.0" standalone="no"?><!DOCTYPE svg PUBLIC "-//W3C//DTD SVG 1.1//EN" "http://www.w3.org/Graphics/SVG/1.1/DTD/svg11.dtd"><svg t="1533523310306" class="icon" style="" viewBox="0 0 1024 1024" version="1.1" xmlns="http://www.w3.org/2000/svg" p-id="5891" xmlns:xlink="http://www.w3.org/1999/xlink" width="200" height="200"><defs><style type="text/css"></style></defs><path d="M511.85 160.34L638.78 403.2l283.82 38.94-205.37 189 48.48 266.96-253.86-126L258 898.1l48.48-266.92-205.38-189 283.83-38.98 126.92-242.86m0-36.89a36.88 36.88 0 0 0-32.69 19.8l-118.1 226-265 36.35a36.89 36.89 0 0 0-20 63.69l190.49 175.28L221.7 891.5a36.88 36.88 0 0 0 52.69 39.63l237.46-117.87 237.46 117.88A36.89 36.89 0 0 0 802 891.5l-44.85-246.94 190.43-175.28a36.89 36.89 0 0 0-20-63.69l-265-36.35-118.11-226a36.88 36.88 0 0 0-32.69-19.8z" p-id="5892"></path></svg>