<?xml version="1.0" standalone="no"?><!DOCTYPE svg PUBLIC "-//W3C//DTD SVG 1.1//EN" "http://www.w3.org/Graphics/SVG/1.1/DTD/svg11.dtd"><svg t="1535448991220" class="icon" style="" viewBox="0 0 1024 1024" version="1.1" xmlns="http://www.w3.org/2000/svg" p-id="17765" xmlns:xlink="http://www.w3.org/1999/xlink" width="200" height="200"><defs><style type="text/css"></style></defs><path d="M810.566745 0H213.433255l-213.166797 213.166797v597.133489l213.166797 213.166797h597.13349l213.166797-213.166797V213.166797l-213.166797-213.166797zM792.714026 498.943534c-11.058028 124.702576-87.664845 233.950559-201.176165 286.709341L512 822.557377l-79.404632-36.904502c-113.511319-52.758782-190.118137-162.006766-201.176164-286.709341l-17.319802-196.7796a1117.646838 1117.646838 0 0 0 292.571428-98.589643l5.462399-2.664585 5.462399 2.664585a1117.646838 1117.646838 0 0 0 292.571429 98.589643L792.714026 498.943534z m-229.820453-66.481395l-50.893573-102.986209-50.893573 102.986209-113.644548 16.520427 82.202446 80.204007-19.45147 113.244861 101.653916-53.424929 101.653916 53.424929-19.45147-113.244861 82.202446-80.204007-113.37809-16.520427z" p-id="17766"></path></svg>