<?xml version="1.0" standalone="no"?><!DOCTYPE svg PUBLIC "-//W3C//DTD SVG 1.1//EN" "http://www.w3.org/Graphics/SVG/1.1/DTD/svg11.dtd"><svg t="1533523304297" class="icon" style="" viewBox="0 0 1024 1024" version="1.1" xmlns="http://www.w3.org/2000/svg" p-id="5783" xmlns:xlink="http://www.w3.org/1999/xlink" width="200" height="200"><defs><style type="text/css"></style></defs><path d="M511.85 123.46a36.88 36.88 0 0 0-32.69 19.8l-118.1 226-265 36.35a36.89 36.89 0 0 0-20 63.69l190.49 175.27L221.7 891.5a36.88 36.88 0 0 0 52.69 39.63l237.46-117.87 237.46 117.88A36.89 36.89 0 0 0 802 891.5l-44.85-246.94 190.43-175.28a36.89 36.89 0 0 0-20-63.69l-265-36.35-118.11-226a36.88 36.88 0 0 0-32.69-19.8z" p-id="5784"></path></svg>