<?xml version="1.0" standalone="no"?><!DOCTYPE svg PUBLIC "-//W3C//DTD SVG 1.1//EN" "http://www.w3.org/Graphics/SVG/1.1/DTD/svg11.dtd"><svg t="1533205729109" class="icon" style="" viewBox="0 0 1024 1024" version="1.1" xmlns="http://www.w3.org/2000/svg" p-id="5119" xmlns:xlink="http://www.w3.org/1999/xlink" width="200" height="200"><defs><style type="text/css"></style></defs><path d="M81.523 687.095c14.471 14.285 37.747 14.213 52.072-0.224l377.321-380.778 382.586 379.159c14.471 14.324 37.749 14.218 52.113-0.22 14.33-14.477 14.218-37.787-0.22-52.117L538.763 229.962c-0.629-0.623-1.44-0.769-2.062-1.36-0.153-0.145-0.186-0.33-0.333-0.477a36.804 36.804 0 0 0-25.929-10.684c-9.463 0-18.967 3.647-26.148 10.903L81.336 634.978c-14.363 14.476-14.251 37.787 0.187 52.117z m0 0" p-id="5120"></path></svg>