<?xml version="1.0" standalone="no"?><!DOCTYPE svg PUBLIC "-//W3C//DTD SVG 1.1//EN" "http://www.w3.org/Graphics/SVG/1.1/DTD/svg11.dtd"><svg t="1534492158095" class="icon" style="" viewBox="0 0 1024 1024" version="1.1" xmlns="http://www.w3.org/2000/svg" p-id="4738" xmlns:xlink="http://www.w3.org/1999/xlink" width="200" height="200"><defs><style type="text/css"></style></defs><path d="M511.006 65.116C265.16 65.116 65.12 265.124 65.12 511S265.16 956.885 511.006 956.885C756.88 956.885 956.89 756.876 956.89 511S756.881 65.116 511.006 65.116z m-24.444 630.538c0 33.499-51.933 32.948-51.933 0v-293.83c-19.652 23.686-40.668 49.057-52.657 63.485-23.368 30.162-64.446-3.134-40.147-33.297 21.308-26.386 81.66-98.64 96.289-116.144 11.67-18.666 48.45-15.24 48.45 12.831v366.955z m199.894-104.62c-21.279 26.387-81.63 98.64-96.29 116.173-11.61 18.635-48.418 15.269-48.418-12.831V327.422c0-33.47 51.933-32.918 51.933 0v293.86c19.623-23.717 40.64-49.06 52.628-63.515 23.397-30.134 64.475 3.164 40.147 33.267z" p-id="4739"></path></svg>