<?xml version="1.0" standalone="no"?><!DOCTYPE svg PUBLIC "-//W3C//DTD SVG 1.1//EN" "http://www.w3.org/Graphics/SVG/1.1/DTD/svg11.dtd"><svg t="1534492162562" class="icon" style="" viewBox="0 0 1024 1024" version="1.1" xmlns="http://www.w3.org/2000/svg" p-id="4847" xmlns:xlink="http://www.w3.org/1999/xlink" width="200" height="200"><defs><style type="text/css"></style></defs><path d="M511.318 66.141C265.895 66.141 66.2 265.808 66.2 511.26c0 245.423 199.695 445.117 445.118 445.117 245.452 0 445.118-199.694 445.118-445.117 0-245.451-199.666-445.118-445.118-445.118z m261.708 654.304H255.75c-23.513 0-33.067-16.633-21.325-36.995l258.64-447.963c11.71-20.346 30.965-20.346 42.707 0L794.38 683.45c11.713 20.362 2.1 36.995-21.354 36.995z m-287.21-55.149h51.004v-51.03h-51.004v51.03z m0-79.749h51.004l13.502-203.1H472.37l13.446 203.1z" p-id="4848"></path></svg>