<?xml version="1.0" standalone="no"?><!DOCTYPE svg PUBLIC "-//W3C//DTD SVG 1.1//EN" "http://www.w3.org/Graphics/SVG/1.1/DTD/svg11.dtd"><svg t="1534492147985" class="icon" style="" viewBox="0 0 1024 1024" version="1.1" xmlns="http://www.w3.org/2000/svg" p-id="4520" xmlns:xlink="http://www.w3.org/1999/xlink" width="200" height="200"><defs><style type="text/css"></style></defs><path d="M511.513 66.14c-245.872 0-445.88 200.022-445.88 445.89 0 245.873 200.008 445.882 445.88 445.882 245.845 0 445.882-200.008 445.882-445.882 0-245.868-200.037-445.89-445.882-445.89z m-44.82 447.543c0 11.7-2.671 22.79-7.432 32.717l108.277 108.306c13.44-12.193 31.292-19.595 50.86-19.595 41.916 0 75.88 33.963 75.88 75.851 0 41.892-33.964 75.884-75.852 75.884-41.917 0-75.88-33.993-75.88-75.884 0-11.727 2.668-22.814 7.43-32.714L441.698 569.97c-13.409 12.164-31.264 19.623-50.857 19.623-41.917 0-75.881-33.994-75.881-75.881 0-41.917 33.963-75.859 75.881-75.859 23.222 0 43.95 10.448 57.911 26.888l100.934-100.999c-4.587-9.767-7.142-20.652-7.142-32.12 0-41.904 33.993-75.853 75.881-75.853s75.88 33.978 75.88 75.853c0 41.916-33.993 75.894-75.88 75.894-19.304 0-36.983-7.286-50.423-19.17L463.675 492.669a74.749 74.749 0 0 1 3.019 21.014zM351.1 481.868c-13.73 0-24.906 11.175-24.906 24.992 0 13.79 11.118 24.966 24.906 24.966 13.847 0 24.966-11.177 24.966-24.966 0-13.787-11.118-24.992-24.966-24.992z" p-id="4521"></path></svg>