<?xml version="1.0" standalone="no"?><!DOCTYPE svg PUBLIC "-//W3C//DTD SVG 1.1//EN" "http://www.w3.org/Graphics/SVG/1.1/DTD/svg11.dtd"><svg t="1534492154143" class="icon" style="" viewBox="0 0 1024 1024" version="1.1" xmlns="http://www.w3.org/2000/svg" p-id="4629" xmlns:xlink="http://www.w3.org/1999/xlink" width="200" height="200"><defs><style type="text/css"></style></defs><path d="M511.049 67.164C265.626 67.164 65.93 266.858 65.93 512.28c0 245.453 199.694 445.118 445.118 445.118 245.452 0 445.117-199.665 445.117-445.118 0.03-245.422-199.665-445.117-445.117-445.117z m248.206 545.443c0 6.231-5.072 11.302-11.33 11.302h-331.29c-6.23 0-11.273 5.043-11.273 11.301v67.116c0 10.057-12.172 15.098-19.3 7.999L266.09 590.35c-7.1-7.158-2.089-19.3 7.968-19.3h473.894c6.231 0 11.303 5.072 11.303 11.303v30.253zM748.01 453.542H274.146c-6.23 0-11.303-5.043-11.303-11.304v-30.283c0-6.23 5.072-11.273 11.303-11.273h331.289c6.23 0 11.3-5.07 11.3-11.3v-67.145c0-10.056 12.143-15.07 19.273-7.97l86.414 86.415 33.586 33.588c7.1 7.1 2.087 19.272-7.997 19.272z" p-id="4630"></path></svg>