<?xml version="1.0" standalone="no"?><!DOCTYPE svg PUBLIC "-//W3C//DTD SVG 1.1//EN" "http://www.w3.org/Graphics/SVG/1.1/DTD/svg11.dtd"><svg t="1534492115367" class="icon" style="" viewBox="0 0 1024 1024" version="1.1" xmlns="http://www.w3.org/2000/svg" p-id="4082" xmlns:xlink="http://www.w3.org/1999/xlink" width="200" height="200"><defs><style type="text/css"></style></defs><path d="M681.515 580.787l7.078-9.382c29.47-39.12 45.06-85.546 45.06-134.271 0-123.292-100.313-223.6-223.616-223.6-9.051 0-18.254 0.549-27.35 1.627-78.134 9.32-148.138 61.913-178.321 133.992-31.395 74.933-21.23 158.012 27.188 222.246l7.078 9.387-86.686 138.353c-2.3 3.665-1.148 6.908-0.258 8.517 0.64 1.152 3.64 5.123 8.72 4.291l51.175-8.07c2.232-0.35 4.439-0.514 6.627-0.514 18.992 0 35.846 12.784 40.971 31.097l13.353 47.569c1.643 5.881 7.136 6.183 8.216 6.183 2.076 0 4.987-0.695 7.034-3.967l91.288-145.728 10.59 1.118c14.23 1.499 26.554 1.499 40.797 0l10.597-1.118 91.267 145.71c2.047 3.275 4.959 3.966 7.035 3.966 1.084 0 6.582-0.297 8.235-6.174l13.315-47.559c5.771-20.436 26.15-33.965 47.616-30.582l51.205 8.07a9.385 9.385 0 0 0 1.507 0.126c4.41 0 6.627-3.384 7.2-4.418 0.884-1.609 2.036-4.852-0.263-8.517l-86.658-138.352zM642.528 404.5l-53.843 52.493 12.713 74.111a17.095 17.095 0 0 1-6.797 16.693 17.09 17.09 0 0 1-10.034 3.263c-2.718 0-5.445-0.647-7.944-1.964l-66.562-34.992-66.557 34.992c-5.74 3.038-12.707 2.528-17.976-1.299a17.088 17.088 0 0 1-6.79-16.693l12.707-74.11-53.84-52.494a17.065 17.065 0 0 1 9.465-29.11l74.408-10.816 33.27-67.426a17.073 17.073 0 0 1 30.622 0l33.276 67.426 74.413 10.817a17.057 17.057 0 0 1 13.787 11.613 17.074 17.074 0 0 1-4.318 17.496z m0 0" p-id="4083"></path><path d="M531.997 387.734l-21.936-44.46-21.938 44.46a17.065 17.065 0 0 1-12.858 9.333l-49.06 7.133 35.505 34.606a17.121 17.121 0 0 1 4.912 15.11l-8.388 48.865 43.884-23.071a17.057 17.057 0 0 1 7.943-1.96c2.727 0 5.46 0.653 7.944 1.96l43.894 23.076-8.386-48.87a17.106 17.106 0 0 1 4.91-15.11L593.93 404.2l-49.07-7.133a17.085 17.085 0 0 1-12.863-9.333z m0 0" p-id="4084"></path><path d="M511.083 67.15C265.459 67.15 66.34 266.267 66.34 511.891c0 245.622 199.12 444.742 444.743 444.742 245.627 0 444.742-199.12 444.742-444.742 0-245.623-199.114-444.743-444.742-444.743zM799.325 745.21c-7.52 13.579-21.721 22.023-37.068 22.023h-0.01c-2.217 0-4.497-0.175-6.805-0.544l-51.195-8.065c-4.069-0.643-8.293 2.017-9.45 6.09l-13.31 47.534c-5.216 18.61-21.74 31.108-41.108 31.108-14.686 0-28.131-7.478-35.964-19.99l-80.1-127.864c-8.946 0.54-17.53 0.54-26.47 0l-80.1 127.883c-7.837 12.509-21.286 19.984-35.972 19.984-19.369 0-35.887-12.503-41.09-31.111l-13.352-47.568c-1.142-4.07-5.24-6.71-9.426-6.067l-51.172 8.065c-18.365 2.891-35.278-5.937-43.887-21.478-7.594-13.708-7.151-29.852 1.18-43.173L298.39 583.35c-49.808-72.595-59.084-163.808-24.496-246.367 35.39-84.504 114.241-143.788 205.78-154.696a265.852 265.852 0 0 1 31.38-1.873c142.126 0 257.756 115.617 257.756 257.737 0 52.254-15.526 102.2-45.015 145.199l74.335 118.688c8.345 13.32 8.788 29.454 1.195 43.173z m0 0" p-id="4085"></path></svg>