<?xml version="1.0" standalone="no"?><!DOCTYPE svg PUBLIC "-//W3C//DTD SVG 1.1//EN" "http://www.w3.org/Graphics/SVG/1.1/DTD/svg11.dtd"><svg t="1534492170243" class="icon" style="" viewBox="0 0 1024 1024" version="1.1" xmlns="http://www.w3.org/2000/svg" p-id="5065" xmlns:xlink="http://www.w3.org/1999/xlink" width="200" height="200"><defs><style type="text/css"></style></defs><path d="M511.432 65.627c-245.874 0-445.885 200.038-445.885 445.884 0 245.876 200.012 445.887 445.885 445.887 245.874 0 445.913-200.011 445.913-445.887 0-245.846-200.038-445.884-445.913-445.884z m46.794 727.408c112.751-126.827-129.846-101.923-15.645-281.493-221.637 106.767-83.923 268.835-78.291 281.493-69.031-29.086-140.558-110.106-140.558-192.898 0-70.862 40.204-118.903 93.675-153.62 28.623-18.58 86.1-110.629 0-216.53 240.158 76.725 280.913 261.03 281.728 346.55 0.783 106.042-55.332 198.238-140.909 216.498z" p-id="5066"></path></svg>