<?xml version="1.0" standalone="no"?><!DOCTYPE svg PUBLIC "-//W3C//DTD SVG 1.1//EN" "http://www.w3.org/Graphics/SVG/1.1/DTD/svg11.dtd"><svg t="1534492132515" class="icon" style="" viewBox="0 0 1024 1024" version="1.1" xmlns="http://www.w3.org/2000/svg" p-id="4302" xmlns:xlink="http://www.w3.org/1999/xlink" width="200" height="200"><defs><style type="text/css"></style></defs><path d="M511.773 64.606c-246.27 0-446.652 200.355-446.652 446.652 0 246.3 200.381 446.653 446.652 446.653 246.298 0 446.652-200.353 446.652-446.653 0-246.298-200.353-446.652-446.652-446.652z m-91.046 674.689c0 11.022-8.463 19.862-18.9 19.862h-63.103c-10.439 0-18.9-8.87-18.9-19.862V620.624c0-10.962 8.491-19.83 18.9-19.83h63.102c10.439 0 18.93 8.868 18.9 19.83v118.67z m144.172-0.29c0 11.166-8.491 20.182-18.988 20.182h-63.19c-10.467 0-18.93-9.016-18.93-20.183V534.29c0-11.168 8.492-20.183 18.93-20.183h63.19c10.497 0 18.988 9.015 18.988 20.183v204.714z m158.365-0.292c0 11.226-8.491 20.357-18.902 20.357H641.26c-10.468 0-18.957-9.073-18.957-20.357V462.145c0-11.168 8.518-20.299 18.957-20.299h63.102c10.41 0 18.902 9.131 18.902 20.327v276.54z m0.058-402.248L696.31 309.16 520.612 472.788l-81.07-81.77-121.668 109.015-27.014-27.245 148.652-136.324 81.07 81.77 148.681-136.38-27.013-27.246h81.072v81.857z" p-id="4303"></path></svg>