<?xml version="1.0" standalone="no"?><!DOCTYPE svg PUBLIC "-//W3C//DTD SVG 1.1//EN" "http://www.w3.org/Graphics/SVG/1.1/DTD/svg11.dtd"><svg t="1534492166469" class="icon" style="" viewBox="0 0 1024 1024" version="1.1" xmlns="http://www.w3.org/2000/svg" p-id="4956" xmlns:xlink="http://www.w3.org/1999/xlink" width="200" height="200"><defs><style type="text/css"></style></defs><path d="M511.007 66.649c-245.565 0-445.374 199.781-445.374 445.375 0 245.592 199.809 445.373 445.374 445.373 245.593 0 445.373-199.781 445.373-445.373 0.001-245.594-199.78-445.375-445.373-445.375z m-363.17 632.715l15.743-15.744 56.456 56.481 25.688-25.66-56.453-56.483 39.638-39.663 114.126 114.097 25.72-25.72-114.099-114.04 39.667-39.726 56.453 56.456 25.69-25.662-56.453-56.513 39.723-39.638 113.98 114.1 25.69-25.662L385.367 461.89l39.667-39.695 56.484 56.425 25.664-25.66-56.457-56.4 41.465-41.434 174.236 174.208-344.85 344.848c-74.257-39.032-135.088-100.24-173.74-174.817z" p-id="4957"></path></svg>