<?xml version="1.0" standalone="no"?><!DOCTYPE svg PUBLIC "-//W3C//DTD SVG 1.1//EN" "http://www.w3.org/Graphics/SVG/1.1/DTD/svg11.dtd"><svg t="1534492143392" class="icon" style="" viewBox="0 0 1024 1024" version="1.1" xmlns="http://www.w3.org/2000/svg" p-id="4411" xmlns:xlink="http://www.w3.org/1999/xlink" width="200" height="200"><defs><style type="text/css"></style></defs><path d="M511.814 65.627c-245.873 0-445.882 200.021-445.882 445.887 0 245.875 200.008 445.883 445.882 445.883 245.872 0 445.911-200.007 445.911-445.883 0-245.866-200.038-445.887-445.91-445.887z m154.375 584.5H533.47v74.662c0 11.033-11.004 20.554-27.838 20.554-15.154 0-27.055-9.667-27.055-20.554v-74.662H345.973c-14.399 0-26.156-9.663-26.156-21.888 0-11.524 11.874-20.55 26.156-20.55h132.719v-64.418H345.973c-14.399 0-26.156-8.357-26.156-21.886 0-10.972 11.874-20 26.156-20h112.37L342.578 330.833c-7.608-9.68-2.528-21.902 12.625-27.737 12.629-4.498 28.71-0.637 35.532 8.36l116.638 171.32 115.65-171.871c6.706-9.666 23.688-14.194 36.402-7.693 14.429 4.515 18.58 17.36 11.903 27.04v-0.638l-115.914 171.86h110.717c14.429 0 27.054 9.026 27.054 21.218 0 12.193-12.655 20.552-27.054 20.552H533.585v64.414H666.19c14.397 0 27.054 9.027 27.054 21.887 0 11.032-12.657 20.582-27.054 20.582z" p-id="4412"></path></svg>