<?xml version="1.0" standalone="no"?><!DOCTYPE svg PUBLIC "-//W3C//DTD SVG 1.1//EN" "http://www.w3.org/Graphics/SVG/1.1/DTD/svg11.dtd"><svg t="1534492127003" class="icon" style="" viewBox="0 0 1024 1024" version="1.1" xmlns="http://www.w3.org/2000/svg" p-id="4193" xmlns:xlink="http://www.w3.org/1999/xlink" width="200" height="200"><defs><style type="text/css"></style></defs><path d="M511.426 64.613C265.16 64.613 64.78 264.979 64.78 511.267c0 246.296 200.38 446.646 446.647 446.646 246.295 0 446.647-200.35 446.647-446.646 0-246.287-200.352-446.654-446.647-446.654z m173.309 665.5c0-94.245-77.087-170.693-172.117-170.693-95.057 0-172.143 76.448-172.143 170.693h-43.037c0-88.137 53.883-163.771 130.766-196.311-39.984-26.897-66.212-72.265-66.212-123.75 0-82.497 67.432-149.334 150.598-149.334 83.135 0 150.537 66.837 150.537 149.333 0 51.47-26.228 96.853-66.182 123.75 76.883 32.511 130.739 108.146 130.796 196.312h-43.006z" p-id="4194"></path></svg>