<?xml version="1.0" standalone="no"?><!DOCTYPE svg PUBLIC "-//W3C//DTD SVG 1.1//EN" "http://www.w3.org/Graphics/SVG/1.1/DTD/svg11.dtd"><svg t="1504683994930" class="icon" style="" viewBox="0 0 1024 1024" version="1.1" xmlns="http://www.w3.org/2000/svg" p-id="1927" xmlns:xlink="http://www.w3.org/1999/xlink" width="200" height="200"><defs><style type="text/css"></style></defs><path d="M940.7328 403.5456L607.5232 74.4416a86.0384 86.0384 0 0 0-120.6016 0l-8.8416 8.7296c-27.2928 26.9568-40.32 65.7568-35.84 106.56l-0.4 0.5632-0.848 1.3696-277.0112 447.3408a28.1984 28.1984 0 0 1-17.5424 12.6208l-29.8816 7.1456a80.32 80.32 0 0 0-58.6688 55.8784 79.0848 79.0848 0 0 0 20.6176 77.888l135.1776 133.5072a81.0496 81.0496 0 0 0 135.4368-37.584l7.2416-29.5296a27.9104 27.9104 0 0 1 12.7744-17.3312l48.8544-29.5136 17.6 28.3968a105.2448 105.2448 0 0 0 65.6 47.1552 107.8816 107.8816 0 0 0 25.0336 2.9472 106.2848 106.2848 0 0 0 55.12-15.4048l134.816-81.4464a104.1696 104.1696 0 0 0 47.7472-64.8096 102.8576 102.8576 0 0 0-12.6304-79.1488l-17.584-28.4032 88.3456-53.376 1.3856-0.8352 0.5824-0.4a143.1392 143.1392 0 0 0 16.5248 0.96 128.4032 128.4032 0 0 0 91.1552-36.1152l9.0528-8.944a83.5808 83.5808 0 0 0-0.0064-119.1168z m-234.864 273.6576a51.2 51.2 0 0 1 6.2816 39.408 51.8048 51.8048 0 0 1-23.776 32.2624l-134.8064 81.4432a53.44 53.44 0 0 1-39.9104 6.2304 52.5056 52.5056 0 0 1-32.6752-23.4944l-17.6-28.3904 224.8896-135.8656z" p-id="1928"></path></svg>