<?xml version="1.0" standalone="no"?><!DOCTYPE svg PUBLIC "-//W3C//DTD SVG 1.1//EN" "http://www.w3.org/Graphics/SVG/1.1/DTD/svg11.dtd"><svg t="1504683979845" class="icon" style="" viewBox="0 0 1024 1024" version="1.1" xmlns="http://www.w3.org/2000/svg" p-id="1603" xmlns:xlink="http://www.w3.org/1999/xlink" width="200" height="200"><defs><style type="text/css"></style></defs><path d="M940.7328 403.5456L607.5232 74.4416a86.0384 86.0384 0 0 0-120.6016 0l-8.8416 8.7296c-27.2928 26.9568-40.32 65.7568-35.84 106.56l-0.4 0.5632-0.848 1.3696-277.0112 447.3408a28.1984 28.1984 0 0 1-17.5424 12.6208l-29.8816 7.1456a80.32 80.32 0 0 0-58.6688 55.8784 79.0848 79.0848 0 0 0 20.6176 77.888l135.1776 133.5072a81.0496 81.0496 0 0 0 135.4368-37.584l7.2416-29.5296a27.9104 27.9104 0 0 1 12.7744-17.3312l48.8544-29.5136 17.6 28.3968a105.2448 105.2448 0 0 0 65.6 47.1552 107.8816 107.8816 0 0 0 25.0336 2.9472 106.2848 106.2848 0 0 0 55.12-15.4048l134.816-81.4464a104.16 104.16 0 0 0 47.7472-64.8096 102.8576 102.8576 0 0 0-12.6304-79.1488l-17.584-28.4032 88.3456-53.376 1.3856-0.8352 0.5824-0.4a143.1392 143.1392 0 0 0 16.5248 0.96 128.4032 128.4032 0 0 0 91.1552-36.1152l9.0528-8.944a83.5808 83.5808 0 0 0-0.0064-119.1168z m-234.864 273.6576a51.2 51.2 0 0 1 6.2816 39.408 51.8048 51.8048 0 0 1-23.776 32.2624l-134.8064 81.4432a53.44 53.44 0 0 1-39.9104 6.2304 52.48 52.48 0 0 1-32.6752-23.4944l-17.6-28.3904 224.8896-135.8656z m197.2256-191.7184l-9.0528 8.944a75.0464 75.0464 0 0 1-53.52 20.7168 92.6496 92.6496 0 0 1-11.072-0.6656 52.368 52.368 0 0 0-6.1312-0.3648 51.0656 51.0656 0 0 0-29.0592 9.04l-452.8928 273.6A80.6784 80.6784 0 0 0 304.64 846.5568l-7.2416 29.5328a27.5552 27.5552 0 0 1-46.08 12.8l-135.1808-133.5232a26.9888 26.9888 0 0 1 12.944-45.504l29.8784-7.1456a81.5616 81.5616 0 0 0 50.4256-36.2848l277.0304-447.3248a49.6 49.6 0 0 0 8.8192-34.4672c-2.7584-23.68 3.4272-47.4624 20.48-64.32l8.832-8.7264a32.3424 32.3424 0 0 1 45.3344 0l333.2128 329.12a31.3824 31.3824 0 0 1 0 44.7712z" p-id="1604"></path></svg>