<?xml version="1.0" standalone="no"?><!DOCTYPE svg PUBLIC "-//W3C//DTD SVG 1.1//EN" "http://www.w3.org/Graphics/SVG/1.1/DTD/svg11.dtd"><svg t="1510575132754" class="icon" style="" viewBox="0 0 1024 1024" version="1.1" xmlns="http://www.w3.org/2000/svg" p-id="2888" xmlns:xlink="http://www.w3.org/1999/xlink" width="200" height="200"><defs><style type="text/css"></style></defs><path d="M512 1024C229.773 1024 0 794.438 0 512 0 229.773 229.562 0 512 0s512 229.562 512 512c-0.213 282.438-229.774 512-512 512z m0-1006.162c-272.671 0-494.377 221.704-494.377 494.377s221.704 494.165 494.165 494.165c272.459 0 494.165-221.704 494.165-494.165S784.461 17.838 512.001 17.838z" p-id="2889"></path><path d="M650.672 201.952s-110.002-58.4-238.694-13.378L650.672 424.72V201.954zM671.485 211.296v344.448L838.4 411.338c-36.738-141.644-166.915-200.043-166.915-200.043zM841.798 432.365L601.619 655.769h219.368c63.283-155.025 20.812-223.404 20.812-223.404zM623.915 832.663c140.16-43.319 179.446-148.441 179.446-148.441H478.874l145.04 148.441zM372.905 822.681s84.308 53.516 228.712 17.626L372.905 613.295v209.388zM349.545 810.155V478.234L185.178 624.339c65.192 151.627 164.367 185.816 164.367 185.816zM196.008 376.301c-52.666 104.27-15.078 224.466-15.078 224.466l241.028-224.466H196.005zM387.133 196.219c-129.326 50.116-176.895 156.933-176.895 156.933h331.071L387.136 196.219z" p-id="2890"></path></svg>