<?xml version="1.0" standalone="no"?><!DOCTYPE svg PUBLIC "-//W3C//DTD SVG 1.1//EN" "http://www.w3.org/Graphics/SVG/1.1/DTD/svg11.dtd"><svg t="1504683991438" class="icon" style="" viewBox="0 0 1024 1024" version="1.1" xmlns="http://www.w3.org/2000/svg" p-id="1819" xmlns:xlink="http://www.w3.org/1999/xlink" width="200" height="200"><defs><style type="text/css"></style></defs><path d="M497.88063288888884 153.57633422222221c-129.35350044444445 0-234.586112 107.91958755555557-234.586112 240.53896533333332s105.22168888888889 240.4807111111111 234.586112 240.4807111111111 234.5824711111111-107.86497422222222 234.5824711111111-240.4807111111111-105.23261155555554-240.53896533333332-234.5824711111111-240.53896533333332z m0 419.8855111111111c-96.45078755555555 0-174.92650666666665-80.46364444444444-174.92650666666665-179.34290488888888s78.47571911111112-179.34290488888888 174.92650666666665-179.34290488888888 174.92286577777776 80.44179911111111 174.92286577777776 179.34290488888888-78.47207822222222 179.33926399999996-174.92286577777776 179.33926399999996z m252.40098133333333 96.91682133333333a382.17682488888886 382.17682488888886 0 0 0 117.36769422222221-276.27793066666663c0-209.04527644444445-165.87889777777778-379.14396444444446-369.76867555555555-379.14396444444446S128.10831644444443 185.07002311111114 128.10831644444443 394.11529955555557A382.1877475555556 382.1877475555556 0 0 0 245.48693333333335 670.3786666666667l-79.560704 224.08578844444443a31.129599999999996 31.129599999999996 0 0 0 6.440732444444444 31.55194311111111 29.341923555555553 29.341923555555553 0 0 0 30.430549333333328 8.119182222222221l103.82358755555555-33.04106666666666 58.785792 93.68735288888888a29.695089777777774 29.695089777777774 0 0 0 25.08572444444444 14.050190222222223c1.0922666666666665 0 2.2063786666666667-0.08738133333333332 3.3168497777777777-0.196608a29.979079111111112 29.979079111111112 0 0 0 24.717994666666662-19.948430222222225l76.54604799999998-215.6207217777778c0.946631111111111 0 1.856853333333333 0.14199466666666666 2.8071253333333335 0.14199466666666666s1.8495715555555554-0.13471288888888888 2.792561777777778-0.14199466666666666l76.5424071111111 215.6207217777778a29.982719999999997 29.982719999999997 0 0 0 24.717994666666662 19.948430222222225c1.110471111111111 0.10922666666666667 2.220942222222222 0.196608 3.3168497777777777 0.196608a29.724216888888886 29.724216888888886 0 0 0 25.078442666666664-14.050190222222223l58.79671466666666-93.70191644444444 103.809024 33.04106666666666a29.352846222222222 29.352846222222222 0 0 0 30.434190222222224-8.119182222222221 31.129599999999996 31.129599999999996 0 0 0 6.437091555555556-31.55194311111111zM383.0397155555556 909.8326471111111L344.5191111111111 848.4399786666665a29.556735999999997 29.556735999999997 0 0 0-33.92944355555555-12.673934222222222L242.57422222222232 857.4329742222221l52.15573333333333-146.90258488888887A362.1701404444444 362.1701404444444 0 0 0 433.7208888888889 767.1170844444445z m114.84091733333331-197.77672533333333c-170.9943466666667 0-310.1127111111111-142.64638577777774-310.1127111111111-317.9406222222222S326.8862862222223 76.18560000000002 497.88063288888884 76.18560000000002 808.0042666666666 218.78829511111115 808.0042666666666 394.11529955555557s-139.13656888888886 317.9406222222222-310.12363377777774 317.9406222222222z m187.28368355555557 123.71012266666665a29.4912 29.4912 0 0 0-33.92944355555555 12.673934222222222l-38.52788622222223 61.39266844444444-50.662968888888884-142.72284444444443a362.22111288888885 362.22111288888885 0 0 0 138.9945742222222-56.586695111111105l52.141169777777776 146.898944z" p-id="1820"></path></svg>