<?xml version="1.0" standalone="no"?><!DOCTYPE svg PUBLIC "-//W3C//DTD SVG 1.1//EN" "http://www.w3.org/Graphics/SVG/1.1/DTD/svg11.dtd"><svg t="1504683998389" class="icon" style="" viewBox="0 0 1024 1024" version="1.1" xmlns="http://www.w3.org/2000/svg" p-id="2035" xmlns:xlink="http://www.w3.org/1999/xlink" width="200" height="200"><defs><style type="text/css"></style></defs><path d="M851.9768190419754 402.7285423091357c0-198.27769546271605-159.72323884246913-359.6206605906173-356.0456636997531-359.6206605906173s-356.0456636997531 161.34296512790124-356.0456636997531 359.6206605906173 159.72323884246913 359.59580545580246 356.0456636997531 359.59580545580246 356.0456636997531-161.31810999308647 356.0456636997531-359.59580545580246z m-356.0456636997531 252.76015097679013c-137.99156596938275 0-250.2622099279012-113.40155259259257-250.2622099279012-252.756008454321s112.26235891358021-252.756008454321 250.2622099279012-252.756008454321 250.26635245037036 113.37669745777777 250.26635245037036 252.756008454321-112.27478648098764 252.756008454321-250.26635245037036 252.756008454321z m0-432.0650935308642c-97.887805945679 0-177.5278004148148 80.41878869333333-177.5278004148148 179.2966575091358s79.63999446913581 179.2966575091358 177.5278004148148 179.2966575091358 177.5278004148148-80.44778635061729 177.5278004148148-179.2966575091358-79.63999446913581-179.28422994172837-177.5278004148148-179.28422994172837zM205.37048683456788 922.1428646241975l77.42374494814815-24.287609236543215a33.88583379753086 33.88583379753086 0 0 1 38.608309412345676 14.204709546666665l43.836172768395066 68.82801082469135 57.65562772543209-159.99250280296295a415.7435550024691 415.7435550024691 0 0 1-158.16979291654317-63.43444656987654z m363.58505459358014-101.24739166814814l57.65562772543209 159.99250280296295 43.848600335802466-68.82801082469135a33.802983348148146 33.802983348148146 0 0 1 38.608309412345676-14.204709546666665l77.4071748582716 24.287609236543215-59.33749184790122-164.6818382380247a415.79740779456796 415.79740779456796 0 0 1-158.1822204839506 63.43444656987654z" p-id="2036"></path></svg>