<?xml version="1.0" standalone="no"?><!DOCTYPE svg PUBLIC "-//W3C//DTD SVG 1.1//EN" "http://www.w3.org/Graphics/SVG/1.1/DTD/svg11.dtd"><svg t="1510575124558" class="icon" style="" viewBox="0 0 1024 1024" version="1.1" xmlns="http://www.w3.org/2000/svg" p-id="2672" xmlns:xlink="http://www.w3.org/1999/xlink" width="200" height="200"><defs><style type="text/css"></style></defs><path d="M922.571 195.284h-35.722c18.115-30.715 26.065-60.012 23.524-87.186-2.107-22.744-12.887-55.272-52.385-81.195C825.24 5.36 783.127 0.076 736.404 11.747 660.639 30.77 570.965 96.169 512.007 175.205 453.012 96.171 363.412 30.77 287.647 11.747 240.886-0.001 198.737 5.32 165.992 26.903c-39.464 25.923-50.246 58.452-52.351 81.195-2.54 27.176 5.337 56.471 23.524 87.186h-35.722c-54.091 0-98.111 44.053-98.111 98.185v126.465c0 42.821 28.243 80.666 69.104 93.375-3.883 10.746-5.917 21.853-5.917 33.109v379.414c0 54.094 44.071 98.167 98.167 98.167H859.44c54.092 0 98.094-44.071 98.094-98.167V546.417a96.574 96.574 0 0 0-5.844-33.147c40.802-12.78 68.977-50.626 68.977-93.339v-126.43c-0.001-54.129-44.002-98.219-98.096-98.219z m-63.134 758.795H546.931V518.138h312.507c15.574 0 28.205 12.705 28.205 28.28v379.414c-0.001 15.575-12.632 28.245-28.206 28.245zM585.414 195.284C635.115 137.957 700.35 92.907 753.321 79.618c27.517-6.896 50.025-5.009 66.327 5.738 17.319 11.38 20.4 21.525 21.093 29.188 2.756 28.098-27.375 65.981-41.605 80.74H585.415z m365.328 98.22v126.43c0 15.574-12.597 28.242-28.172 28.242H546.931V265.24H922.57c15.573 0 28.172 12.689 28.172 28.262zM477.044 518.138v435.941H164.682c-15.612 0-28.247-12.671-28.247-28.245V546.42c0-15.574 12.634-28.28 28.247-28.28h312.362zM183.272 114.543c0.687-7.664 3.812-17.811 21.058-29.188 16.188-10.747 38.698-12.727 66.364-5.738 52.677 13.214 117.842 58.268 167.651 115.666H224.803c-12.742-12.906-44.327-51.969-41.531-80.74zM73.196 293.504c0-15.571 12.634-28.262 28.243-28.262h375.603v182.936H101.439c-15.609 0-28.243-12.667-28.243-28.242v-126.43z" p-id="2673"></path></svg>