<?xml version="1.0" standalone="no"?><!DOCTYPE svg PUBLIC "-//W3C//DTD SVG 1.1//EN" "http://www.w3.org/Graphics/SVG/1.1/DTD/svg11.dtd"><svg t="1516621741665" class="icon" style="" viewBox="0 0 1024 1024" version="1.1" xmlns="http://www.w3.org/2000/svg" p-id="2221" xmlns:xlink="http://www.w3.org/1999/xlink" width="200" height="200"><defs><style type="text/css"></style></defs><path d="M512 34.13333333C267.03786667 34.13333333 65.16053333 218.46186667 37.41866667 455.97653333 35.27253333 474.3552 34.13333333 493.0432 34.13333333 512c0 3.80373333 0.05546667 7.5968 0.14293334 11.37706667C40.32213333 782.03946667 251.8848 989.86666667 512 989.86666667c224.544 0 412.87893333-154.88426667 464.0896-363.6352 2.85226667-11.6288 5.27786667-23.42186667 7.26186667-35.36853334C987.61173333 565.2032 989.86666667 538.8672 989.86666667 512 989.86666667 248.08106667 775.91893333 34.13333333 512 34.13333333zM952.71466667 563.95093333c-15.49866667-16.65493333-27.86986667-34.32533333-33.4976-43.58186666-1.85813333-3.136-46.25493333-76.7872-112.69973334-76.7872-59.59893333 0-90.17386667 56.04053333-110.40213333 93.12-3.01866667 5.53173333-5.86666667 10.75413333-8.4864 15.18506666-24.67413333 41.7856-59.0784 65.29706667-91.95733333 63.0208-28.98346667-2.04586667-53.70453333-24.3264-69.6064-62.74133333-19.90613333-48.08533333-63.04213333-99.8656-114.53653334-107.1552-24.37973333-3.45386667-60.91306667 1.84746667-96.69333333 46.6688-7.02506667 8.79786667-14.85653333 20.5056-23.92533333 34.06293333-22.5536 33.7152-56.63786667 84.66346667-82.45973334 88.88106667-44.84266667 7.3344-74.71146667-26.87146667-75.9104-28.26453333l-1.03893333-1.23733334-1.25226667-1.02186666c-0.44373333-0.36266667-32.08746667-26.4896-61.96693333-71.11253334 0-0.33066667-0.0128-0.66133333-0.0128-0.98986666 0-59.91893333 11.72693333-118.02666667 34.85653333-172.7104 22.3488-52.83626667 54.3488-100.2944 95.1104-141.056s88.22186667-72.7616 141.056-95.1104C393.97333333 79.9936 452.08106667 68.26666667 512 68.26666667s118.02666667 11.72693333 172.7104 34.85653333c52.83626667 22.3488 100.2944 54.3488 141.056 95.1104s72.7616 88.22186667 95.1104 141.056C944.0064 393.97333333 955.73333333 452.08106667 955.73333333 512 955.73333333 529.48693333 954.70506667 546.81173333 952.71466667 563.95093333z" p-id="2222"></path></svg>