<?xml version="1.0" standalone="no"?><!DOCTYPE svg PUBLIC "-//W3C//DTD SVG 1.1//EN" "http://www.w3.org/Graphics/SVG/1.1/DTD/svg11.dtd"><svg t="1504777040807" class="icon" style="" viewBox="0 0 1101 1024" version="1.1" xmlns="http://www.w3.org/2000/svg" p-id="16126" xmlns:xlink="http://www.w3.org/1999/xlink" width="215.0390625" height="200"><defs><style type="text/css"></style></defs><path d="M0.00193 320.357v573.904A129.256 129.256 0 0 0 128.74593 1024h843.814a129.246 129.246 0 0 0 128.725-129.739V190.62h-972.54A129.246 129.246 0 0 0 0.00293 320.357z m344.73 449.575h-35.8V540.015h35.8v229.917z m535.456-1.13h-30.575v-12.394H718.73393v13.524h-29.464v-121.72h190.918v120.6z m-4.106-175.82v27.784H694.46693v-27.793h181.615z m-181.615-25.184v-27.783h181.615v27.822H694.46693z m87.64-142.8a324.444 324.444 0 0 1 26.865 48.834l-26.866 11.67h122.33v28.546H667.99693v-28.546h109.259a337.814 337.814 0 0 0-24.982-48.853z m-137.97 1.865l31.319 9.41a733.59 733.59 0 0 1-30.208 71.013v263.796H613.54093v-208.2a394.385 394.385 0 0 1-31.319 42.09 278.518 278.518 0 0 0-18.654-33.454 423.917 423.917 0 0 0 80.558-144.645zM328.31993 425l30.913 14.645a170.544 170.544 0 0 1-10.81 17.678 453.854 453.854 0 0 0 153.6 110.834 108.505 108.505 0 0 0-25.281 32.72 504.735 504.735 0 0 1-148.77-115.732 431.896 431.896 0 0 1-148.432 114.959 171.955 171.955 0 0 0-25.754-33.039C223.88093 538.47 291.02093 488.14 328.30993 425zM1066.59493 0H735.71693A128.483 128.483 0 0 0 627.52093 59.45l-57.76 90.286h531.524V35a34.855 34.855 0 0 0-34.69-35zM849.61293 676.39H718.73393v51.829h130.879V676.39z" p-id="16127"></path></svg>