<?xml version="1.0" standalone="no"?><!DOCTYPE svg PUBLIC "-//W3C//DTD SVG 1.1//EN" "http://www.w3.org/Graphics/SVG/1.1/DTD/svg11.dtd"><svg t="1504777032096" class="icon" style="" viewBox="0 0 1101 1024" version="1.1" xmlns="http://www.w3.org/2000/svg" p-id="16018" xmlns:xlink="http://www.w3.org/1999/xlink" width="215.0390625" height="200"><defs><style type="text/css"></style></defs><path d="M0.00193 320.357v573.904A129.256 129.256 0 0 0 128.74593 1024h843.814a129.246 129.246 0 0 0 128.725-129.739V190.62h-972.54A129.246 129.246 0 0 0 0.00293 320.357zM601.98793 769.16a117.74 117.74 0 0 0-23.127-27.416c129.401-24.421 137.941-61.237 137.941-86.422v-24.817h36.178v25.919c0.039 34.95-15.62 81.543-150.992 112.736z m53.326-151.426v86.412h-34.69V585.419h234.205v116.89h-36.187v-84.576H655.31393z m218.17 153.696a795.05 795.05 0 0 0-127.933-53.373l16.79-25.552a776.627 776.627 0 0 1 128.667 49.964z m-44.438-347.58a274.451 274.451 0 0 1 40.65 33.454l-25.715 17.282a253.102 253.102 0 0 0-39.54-36.09z m-69.729 3.004a161.386 161.386 0 0 0 15.66 53.364l127.517-8.636 2.975 27.783-113.026 7.545c19.398 24.412 45.133 39.453 67.874 39.057 10.442 0 13.427-7.873 15.292-31.184a76.82 76.82 0 0 0 26.083 14.278c-4.83 40.226-16.78 48.495-42.882 48.495-39.908 0-79.815-25.551-105.55-67.622l-70.52 5.274-2.445-28.227 59.305-4.135a215.253 215.253 0 0 1-13.427-56.03h33.183z m-97.338-1.13l30.672 10.926a315.218 315.218 0 0 1-32.845 43.23v94.672h-33.59v-62.793a436.195 436.195 0 0 1-35.8 27.455 306.968 306.968 0 0 0-24.615-24.45 281.407 281.407 0 0 0 96.217-89.05zM190.31093 547.85v-86.422h125.295c-3.361-9.41-7.448-19.176-10.442-27.445l33.946-8.637c4.83 11.274 10.443 24.818 14.49 36.092h119.76v92.42H358.89493a266.443 266.443 0 0 1 20.885 38.323l-22.344 8.637h127.13v28.179H334.64693c-1.11 10.143-2.231 19.91-4.106 29.32h105.917v0.366h25.735s-0.386 8.637-1.12 12.771c-4.473 52.234-9.323 75.148-19.38 84.548a40.718 40.718 0 0 1-27.609 10.5 498.137 498.137 0 0 1-51.818-0.734 68.869 68.869 0 0 0-8.955-28.546c19.379 1.864 39.153 2.232 46.244 2.232a20.026 20.026 0 0 0 14.172-3.372c4.83-4.907 8.955-18.78 11.93-50.36H323.46093c-12.297 36.874-36.168 65.788-84.644 84.21a92.798 92.798 0 0 0-20.142-26.682c62.648-21.813 76.452-61.643 82.046-114.244h-65.266v-28.188h111.51a315.682 315.682 0 0 0-18.654-37.193l29.126-9.767H225.01093c-0.367 63.508-6.762 155.194-39.907 217.195a148.354 148.354 0 0 0-31.695-16.906c33.56-59.769 36.902-146.558 36.902-206.297zM1066.59493 0H735.71693A128.483 128.483 0 0 0 627.52093 59.45l-57.76 90.286h531.524V35a34.855 34.855 0 0 0-34.69-35zM439.06593 490.747H225.01093v33.811h214.055v-33.81z" p-id="16019"></path></svg>