<?xml version="1.0" standalone="no"?><!DOCTYPE svg PUBLIC "-//W3C//DTD SVG 1.1//EN" "http://www.w3.org/Graphics/SVG/1.1/DTD/svg11.dtd"><svg t="1504776984554" class="icon" style="" viewBox="0 0 1101 1024" version="1.1" xmlns="http://www.w3.org/2000/svg" p-id="14614" xmlns:xlink="http://www.w3.org/1999/xlink" width="215.0390625" height="200"><defs><style type="text/css"></style></defs><path d="M801.51392 486.99H674.71092v21.05h126.802v-21.05z m0 93.56H674.71092v22.547h126.802V580.59z m0-46.96H674.71092v21.418h126.802v-21.417zM0.00092 320.358v573.904A129.256 129.256 0 0 0 128.74592 1024h843.814a129.246 129.246 0 0 0 128.725-129.739V190.62h-972.54A129.256 129.256 0 0 0 0.00292 320.357z m307.818 388.348a231.356 231.356 0 0 0 59.276-99.232 710.337 710.337 0 0 0-48.099-63.507l21.253-18.78c12.675 13.911 25.359 29.686 37.676 45.868 5.216-22.22 9.322-45.868 12.674-70.647l30.913 3.372a667.967 667.967 0 0 1-20.509 99.56 430.853 430.853 0 0 1 36.913 63.903l-23.485 21.774a417.048 417.048 0 0 0-26.479-49.267 250.822 250.822 0 0 1-53.335 86.054c-5.555-4.463-19.34-14.606-26.807-19.137z m259.864-76.646v-28.962h72.347V486.99h-54.098v-28.546h54.098v-32.72h34.68v32.72h126.803v-32.324h35.415v32.324h53.325v28.546h-53.325v116.108h70.115v28.914h-74.578a212.78 212.78 0 0 0 79.07 51.094 144.741 144.741 0 0 0-22.78 27.058 237.326 237.326 0 0 1-93.975-78.152H683.68592a237.423 237.423 0 0 1-32.845 37.955h68.26v-28.179h35.058v28.19h73.834v27.811h-73.834v33.416h125.295v28.98H598.63592v-28.98H719.10092v-33.416h-71.235v-24.807a259.68 259.68 0 0 1-61.537 41.327 117.857 117.857 0 0 0-22.354-26.653 221.86 221.86 0 0 0 80.538-55.634h-76.829zM173.54092 447.208H481.60092v278.77c0 21.05-5.227 31.55-18.654 37.192-13.805 5.632-35.415 6.366-69.372 6.366a172.505 172.505 0 0 0-13.041-34.922c23.484 1.497 49.268 1.13 56.677 0.734a8.289 8.289 0 0 0 9.66-9.767V480.208H208.24092v223.956a240.234 240.234 0 0 0 55.2-94.671c-16.423-21.785-33.947-44.332-49.974-63.508l20.133-20.287a1105.05 1105.05 0 0 1 39.907 48.863 597.185 597.185 0 0 0 14.171-72.907l30.914 3.371a720.886 720.886 0 0 1-21.62 99.956c13.785 19.186 26.47 37.193 35.057 51.867l-22.016 24.044a480.662 480.662 0 0 0-25.358-40.96 267.708 267.708 0 0 1-51.094 84.915 270.49 270.49 0 0 0-25.359-18.045v62.734H173.56092V447.169zM1066.59492 0H735.71692A128.483 128.483 0 0 0 627.52092 59.45l-57.76 90.286h531.524V35a34.855 34.855 0 0 0-34.69-35z" p-id="14615"></path></svg>