<?xml version="1.0" standalone="no"?><!DOCTYPE svg PUBLIC "-//W3C//DTD SVG 1.1//EN" "http://www.w3.org/Graphics/SVG/1.1/DTD/svg11.dtd"><svg t="1504777011548" class="icon" style="" viewBox="0 0 1073 1024" version="1.1" xmlns="http://www.w3.org/2000/svg" p-id="15370" xmlns:xlink="http://www.w3.org/1999/xlink" width="209.5703125" height="200"><defs><style type="text/css"></style></defs><path d="M88.589 1023.698a88.3 88.3 0 0 1-88.45-88.141V88.22A88.3 88.3 0 0 1 88.59 0.08h805.088a88.3 88.3 0 0 1 88.45 88.14v282.045a17.352 17.352 0 0 1-26.147 14.997 380.82 380.82 0 0 0-465.95 595.503q11.468 11.43 23.732 21.536a12.134 12.134 0 0 1-10.127 21.387H88.59z m892.892-91.43a314.214 314.214 0 0 1-442.844 0 313.14 313.14 0 1 1 442.844 0.01zM790.36 500.196a131.511 131.511 0 0 0-111.646 24.845 129.414 129.414 0 0 0-49.203 101.776 34.376 34.376 0 0 0 68.752 0 61.318 61.318 0 0 1 23.325-48.21 62.074 62.074 0 0 1 53.467-11.677 61.557 61.557 0 0 1 12.065 115.283 105.394 105.394 0 0 0-61.418 94.094v5.824a34.376 34.376 0 0 0 68.752 0v-5.814a37.03 37.03 0 0 1 22.858-32.538 129.99 129.99 0 0 0-26.953-243.583zM184.133 236.289H812.89a36.89 36.89 0 1 0 0-73.78H184.144a36.89 36.89 0 1 0 0 73.78z m148.704 184.035H184.144a36.89 36.89 0 1 0 0 73.78h148.694a36.89 36.89 0 1 0 0-73.78z m-51.201 257.855h-97.493a36.89 36.89 0 1 0 0 73.78h97.493a36.89 36.89 0 1 0 0-73.78z m477.17 170.39a51.48 51.48 0 1 0 51.678 51.479 51.569 51.569 0 0 0-51.678-51.48z" p-id="15371"></path></svg>