<?xml version="1.0" standalone="no"?><!DOCTYPE svg PUBLIC "-//W3C//DTD SVG 1.1//EN" "http://www.w3.org/Graphics/SVG/1.1/DTD/svg11.dtd"><svg t="1504777008114" class="icon" style="" viewBox="0 0 1101 1024" version="1.1" xmlns="http://www.w3.org/2000/svg" p-id="15262" xmlns:xlink="http://www.w3.org/1999/xlink" width="215.0390625" height="200"><defs><style type="text/css"></style></defs><path d="M350.31593 518.192h-49.983v36.053h49.983v-36.053z m-129.777 36.053h47.732v-36.053h-47.732v36.053z m129.777-86.789h-49.983v24.779h49.983v-24.779z m83.157 50.727h-50.35v36.052h50.35v-36.043z m361.298 24.411h-64.493v11.274c0 8.27 0 16.915-0.386 26.315h64.879v-37.579z m-33.184 186.397h103.309v-48.466H761.58693v48.466z m100.323-257.39H730.27793v40.573H861.91093V471.6zM1066.59493 0H735.71693A128.483 128.483 0 0 0 627.52093 59.45l-57.76 90.286h531.524V35a34.855 34.855 0 0 0-34.69-35zM0.00093 320.357v573.904A129.256 129.256 0 0 0 128.74593 1024h843.814a129.246 129.246 0 0 0 128.725-129.739V190.62h-972.54A129.246 129.246 0 0 0 0.00293 320.357z m463.698 442.05a515.864 515.864 0 0 0-85.774-59.373l25.358-18.007a574.483 574.483 0 0 1 87.639 57.103zM696.70793 441.14h198.038v101.434H827.23093v37.589h79.05v29.29h-79.05v41.752h68.984v117.973h-31.318V757.17H761.58693v13.138h-30.198V651.206h63.392v-41.723h-66.387c-4.105 54.87-14.915 116.89-44.38 160.835a139.92 139.92 0 0 0-28.72-19.92c38.033-56.368 41.395-137.515 41.395-196.52V441.14z m-129.033 89.842v-32.334h43.269v-72.51h31.695v72.51h39.907v32.314h-39.907v65.74l35.802-10.511 4.83 31.55-40.651 12.772v97.705c0 17.282-3.362 26.682-13.428 31.956-10.076 5.632-24.991 6.762-48.476 6.762a112.128 112.128 0 0 0-9.332-32.323c14.916 0.367 28.72 0.367 32.846 0.367a5.584 5.584 0 0 0 6.762-6.762v-87.552l-40.342 12.375-7.834-33.812c13.427-3.371 29.821-8.27 48.118-13.524v-74.743h-43.26z m-401.215-91.706H486.42093v28.189H383.12293v24.779h84.663v88.344H188.08093v-88.344h80.181v-24.789H166.45993v-28.18z m282.305 161.598v27.446H206.37693v-27.446h242.388zM161.62093 649.303h331.902v28.189H344.75093v57.498c0 16.54-2.995 25.552-15.293 30.054-12.317 5.274-29.84 5.274-55.566 5.274a121.074 121.074 0 0 0-10.82-30.816c18.268 0.763 35.058 0.763 40.284 0.367s6.704-1.507 6.704-6.009v-56.368H161.62093v-28.19z m77.196 34.584l32.063 11.274a294.748 294.748 0 0 1-86.132 70.646 262.907 262.907 0 0 0-25.735-23.31 225.676 225.676 0 0 0 79.804-58.6z" p-id="15263"></path></svg>