<?xml version="1.0" standalone="no"?><!DOCTYPE svg PUBLIC "-//W3C//DTD SVG 1.1//EN" "http://www.w3.org/Graphics/SVG/1.1/DTD/svg11.dtd"><svg t="1504777047688" class="icon" style="" viewBox="0 0 1024 1024" version="1.1" xmlns="http://www.w3.org/2000/svg" p-id="16342" xmlns:xlink="http://www.w3.org/1999/xlink" width="200" height="200"><defs><style type="text/css"></style></defs><path d="M267.986 244.192a243.58 243.58 0 1 1 243.57 242.984 243.561 243.561 0 0 1-243.57-242.984z m736.5 587.339a97.956 97.956 0 0 1-44.793 69.241c-124.779 79.447-283.928 123.18-448.127 123.18S188.218 980.239 63.44 900.773a98.013 98.013 0 0 1-44.812-69.222 103.092 103.092 0 0 1 23.702-82.284c105.75-123.512 281.166-197.218 469.228-197.218s363.487 73.716 469.218 197.19a103.092 103.092 0 0 1 23.701 82.274z" p-id="16343"></path></svg>