<?xml version="1.0" standalone="no"?><!DOCTYPE svg PUBLIC "-//W3C//DTD SVG 1.1//EN" "http://www.w3.org/Graphics/SVG/1.1/DTD/svg11.dtd"><svg t="1504776956738" class="icon" style="" viewBox="0 0 1102 1024" version="1.1" xmlns="http://www.w3.org/2000/svg" p-id="13966" xmlns:xlink="http://www.w3.org/1999/xlink" width="215.234375" height="200"><defs><style type="text/css"></style></defs><path d="M947.712991 0.00001H154.886998A154.778998 154.778998 0 0 0 0.06 154.385008V702.600003a154.807998 154.807998 0 0 0 154.827998 154.414999H517.439995v99.362999H105.682999a33.777 33.777 0 1 0 0 67.543999h891.233991a33.777 33.777 0 1 0 0-67.543999H585.150994v-99.362999h362.561997a154.807998 154.807998 0 0 0 154.837998-154.414999V154.385008A154.778998 154.778998 0 0 0 947.712991 0.00001zM382.959996 173.750008a179.311998 179.311998 0 1 1 0.286 358.613997h-0.571a179.311998 179.311998 0 1 1 0.285-358.613997z m175.787999 615.747994H139.125999c43.809-122.004999 133.956999-195.771998 243.587997-195.909998h0.551c109.630999 0.118 199.759998 73.884999 243.568998 195.909998h-68.085999z m412.247996-389.515996a33.827 33.827 0 0 1-33.856 33.767H736.789993l-21.226 19.542a33.876 33.876 0 0 1-56.822999-24.809v-201.559998a33.827 33.827 0 0 1 33.855999-33.768H937.139991a33.827 33.827 0 0 1 33.856 33.767v173.049998z" p-id="13967"></path></svg>