<?xml version="1.0" standalone="no"?><!DOCTYPE svg PUBLIC "-//W3C//DTD SVG 1.1//EN" "http://www.w3.org/Graphics/SVG/1.1/DTD/svg11.dtd"><svg t="1504777018220" class="icon" style="" viewBox="0 0 1101 1024" version="1.1" xmlns="http://www.w3.org/2000/svg" p-id="15586" xmlns:xlink="http://www.w3.org/1999/xlink" width="215.0390625" height="200"><defs><style type="text/css"></style></defs><path d="M444.28293 473.813H207.86393v245.75h236.419v-245.75z m-17.524 216.836H227.98693v-28.98h80.935v-55.577h-66v-29.677h66.01v-45.461h-75.71v-30.817h186.04v30.817h-77.9v45.461h69.728v29.677H341.36093v55.644h51.46a239.635 239.635 0 0 0-33.183-40.96l21.997-12.008a265.583 265.583 0 0 1 34.73 39.018l-22.79 13.95h33.184v28.981zM0.00093 320.357v573.904A129.256 129.256 0 0 0 128.74593 1024h843.814a129.246 129.246 0 0 0 128.725-129.739V190.62h-972.54A129.246 129.246 0 0 0 0.00293 320.357zM878.70993 769.17A1068.119 1068.119 0 0 0 741.84093 715.07l19.765-24.412a1056.285 1056.285 0 0 1 137.989 49.963zM651.57493 632.417v71.013H617.30093V600.827h244.61v99.55h-35.424v-68.009h-174.91z m76.82-205.196l32.845 4.53a415.899 415.899 0 0 1-11.187 26.682h116.707l5.217-1.13 25.368 6.395a437.48 437.48 0 0 1-28.015 60.136l-30.585-8.27a260.589 260.589 0 0 0 14.172-30.449h-46.573a240.263 240.263 0 0 1-4.83 15.408c19.398 31.957 57.054 55.635 103.298 65.778a103.366 103.366 0 0 0-20.509 27.049 179.886 179.886 0 0 1-95.473-64.638c-17.524 28.557-45.868 52.234-96.218 68.01a92.662 92.662 0 0 0-18.316-25.214c64.136-18.007 86.895-50.33 97.705-86.422h-37.289a203.66 203.66 0 0 1-39.52 43.588 84.229 84.229 0 0 0-23.794-22.142 171.636 171.636 0 0 0 56.996-79.311z m-128.648 9.776a354.246 354.246 0 0 1 77.196 37.955l-18.268 26.682a356.11 356.11 0 0 0-76.452-40.573z m77.94 81.147l5.96 30.053c-35.414 12.771-73.467 25.185-102.921 35.686l-10.076-31.88c26.846-7.911 67.497-20.682 107.047-33.83zM722.80093 642.521h34.314c-12.675 71.043-46.235 110.496-172.66 128.145a132.898 132.898 0 0 0-15.293-28.546c117.104-13.911 143.206-44.332 153.649-99.57zM172.80693 441.528h308.398v328.771h-36.922v-18.413H207.86393V770.3h-35.057V441.528zM1066.59493 0H735.71693A128.483 128.483 0 0 0 627.52093 59.45l-57.76 90.286h531.524V35a34.855 34.855 0 0 0-34.69-35z" p-id="15587"></path></svg>