<?xml version="1.0" standalone="no"?><!DOCTYPE svg PUBLIC "-//W3C//DTD SVG 1.1//EN" "http://www.w3.org/Graphics/SVG/1.1/DTD/svg11.dtd"><svg t="1504683987374" class="icon" style="" viewBox="0 0 1024 1024" version="1.1" xmlns="http://www.w3.org/2000/svg" p-id="1711" xmlns:xlink="http://www.w3.org/1999/xlink" width="200" height="200"><defs><style type="text/css"></style></defs><path d="M498.7357866666667 95.86346666666668a72.92586666666666 72.92586666666666 0 0 1 53.589333333333336 23.37792l362.2536533333333 389.6251733333333a29.381973333333335 29.381973333333335 0 0 1-21.411839999999998 49.40458666666667h-28.84949333333333a42.04544 42.04544 0 0 0-41.984 42.11029333333333v259.072a42.042026666666665 42.042026666666665 0 0 1-41.984 42.106880000000004h-121.70922666666667a42.04544 42.04544 0 0 1-41.984-42.106880000000004v-104.89173333333333a42.048853333333334 42.048853333333334 0 0 0-41.984-42.113706666666666h-151.89333333333335a42.04544 42.04544 0 0 0-41.984 42.113706666666666v104.89173333333333a42.04544 42.04544 0 0 1-41.984 42.106880000000004H217.11872000000005a42.04544 42.04544 0 0 1-41.984-42.106880000000004v-259.072a42.042026666666665 42.042026666666665 0 0 0-41.984-42.11029333333333h-28.846079999999994a29.381973333333335 29.381973333333335 0 0 1-21.411839999999998-49.40458666666667L445.1293866666667 119.23797333333334a72.92586666666666 72.92586666666666 0 0 1 53.6064-23.37792m0-50.11114666666666a123.50122666666665 123.50122666666665 0 0 0-90.13930666666667 39.31136L46.35648000000003 474.6922666666667a79.50336 79.50336 0 0 0 57.94816 133.6832h20.875946666666668v251.07456a92.18048 92.18048 0 0 0 91.93813333333333 92.21802666666667h121.71263999999998a92.18048 92.18048 0 0 0 91.93130666666666-92.21802666666667v-96.89429333333332h135.92917333333332v96.89429333333332a92.18048 92.18048 0 0 0 91.93813333333333 92.21802666666667h121.71263999999998a92.18048 92.18048 0 0 0 91.93813333333333-92.21802666666667v-251.07456h20.875946666666668a79.50336 79.50336 0 0 0 57.94816-133.6832L588.8750933333333 85.06368000000003A123.48416000000002 123.48416000000002 0 0 0 498.7357866666667 45.738666666666745z" p-id="1712"></path></svg>