<?xml version="1.0" standalone="no"?><!DOCTYPE svg PUBLIC "-//W3C//DTD SVG 1.1//EN" "http://www.w3.org/Graphics/SVG/1.1/DTD/svg11.dtd"><svg t="1504777027521" class="icon" style="" viewBox="0 0 1101 1024" version="1.1" xmlns="http://www.w3.org/2000/svg" p-id="15910" xmlns:xlink="http://www.w3.org/1999/xlink" width="215.0390625" height="200"><defs><style type="text/css"></style></defs><path d="M0.00193 320.357v573.904A129.256 129.256 0 0 0 128.74593 1024h843.814a129.246 129.246 0 0 0 128.725-129.739V190.62h-972.54A129.246 129.246 0 0 0 0.00293 320.357zM380.52393 721.07a713.593 713.593 0 0 0-48.485-79.283 353.454 353.454 0 0 1-74.965 86.055 157.377 157.377 0 0 0-25.735-26.682 322.318 322.318 0 0 0 79.814-89.417c-20.886-28.98-43.626-58.232-64.898-83.784l28.71-14.674c17.167 20.673 36.178 43.587 54.456 67.275a528.983 528.983 0 0 0 34.313-81.147l30.208 8.269a598.943 598.943 0 0 1-42.882 101.83 969.032 969.032 0 0 1 61.527 92.797z m506.001 50.002a294.294 294.294 0 0 1-100.323-43.993 353.676 353.676 0 0 1-105.143 43.983 109.394 109.394 0 0 0-17.148-31.956 301.742 301.742 0 0 0 94.344-34.584 261.796 261.796 0 0 1-57.055-80.017l9.323-3.372h-18.664v-32.71H855.91093l5.96-1.101 22.374 9.37a237.906 237.906 0 0 1-68.588 108.197A296.322 296.322 0 0 0 908.51093 738.7a164.584 164.584 0 0 0-21.987 32.362zM726.17293 479.087v-40.573h122.686v84.19c0 10.5 0.763 14.645 6.763 14.645h24.991a82.886 82.886 0 0 0 19.379-2.241c0.376 9.003 1.487 21.417 2.608 29.29a71.41 71.41 0 0 1-21.63 2.27h-28.015c-30.208 0-36.912-12.404-36.912-44.331v-51.52h-57.43v9.4c0 34.952-10.444 75.912-58.176 101.067a147.61 147.61 0 0 0-22.373-25.551c42.138-21.408 48.109-50.331 48.109-76.646z m-157 52.234v-32.324h47.731v-73.274h33.56v73.274h43.25v32.324h-43.25v65.372l31.696-8.637 4.463 31.957c-11.94 3.729-24.228 7.506-36.169 10.5v98.46c0 18.045-3.728 27.048-14.548 31.878-10.81 5.632-27.223 6.405-52.949 6.405a129.381 129.381 0 0 0-10.095-31.512c16.423 0.377 32.102 0.377 36.575 0.377a6.434 6.434 0 0 0 7.467-7.506V640.28l-43.269 12.047-9.322-33.454c14.916-3.372 32.845-7.912 52.581-13.148v-74.404h-47.722z m-369.897 18.045V441.17h252.832c-1.507 180.746-1.874 288.575 21.252 288.575 4.464 0 7.082-25.919 7.825-55.605a136.656 136.656 0 0 0 21.63 25.919c-3.362 48.862-10.443 66.511-32.082 66.511-52.166 0-52.949-98.062-53.325-291.579h-182.33v74.385c0 63.507-7.081 160.797-50.331 222.073a144.056 144.056 0 0 0-29.107-23.736c40.294-56.697 43.627-139.38 43.627-198.347z m535.475 71.777a197.922 197.922 0 0 0 52.166 63.469 203.718 203.718 0 0 0 51.51-63.45H734.75093zM1066.59493 0H735.71693A128.483 128.483 0 0 0 627.52093 59.45l-57.76 90.286h531.524V35a34.855 34.855 0 0 0-34.69-35z" p-id="15911"></path></svg>