<?xml version="1.0" standalone="no"?><!DOCTYPE svg PUBLIC "-//W3C//DTD SVG 1.1//EN" "http://www.w3.org/Graphics/SVG/1.1/DTD/svg11.dtd"><svg t="1504777021462" class="icon" style="" viewBox="0 0 1101 1024" version="1.1" xmlns="http://www.w3.org/2000/svg" p-id="15694" xmlns:xlink="http://www.w3.org/1999/xlink" width="215.0390625" height="200"><defs><style type="text/css"></style></defs><path d="M632.19593 649.69h58.175v-32.315h-58.175V649.7z m0-118.37h58.175v-28.179h-58.175v28.18z m230.883 27.417h-65.69v19.92c0 10.877 0 22.914-0.744 34.922h66.386v-54.871zM632.19593 589.92h58.175v-31.184h-58.175v31.184zM318.98793 722.596h123.46v-67.622h-123.46v67.622zM1066.59493 0H735.71693A128.483 128.483 0 0 0 627.52093 59.45l-57.76 90.286h531.524V35a34.855 34.855 0 0 0-34.69-35zM0.00093 320.357v573.904A129.256 129.256 0 0 0 128.74593 1024h843.814a129.246 129.246 0 0 0 128.725-129.739V190.62h-972.54A129.246 129.246 0 0 0 0.00293 320.357z m193.69 445.083l-29.077-23.31a1117.522 1117.522 0 0 0 70.134-118.756l24.972 23.311c-19.05 38.7-44.032 83.794-66.038 118.745z m475.06-65.778l26.478-14.645a360.264 360.264 0 0 1 40.274 54.833l-28.015 16.905a390.357 390.357 0 0 0-38.747-57.093z m95.82-256.25h132.02v285.56c0 18.413-4.087 28.546-15.66 33.811-11.187 6.01-29.078 6.763-56.687 6.376a120.552 120.552 0 0 0-10.066-33.038c17.523 0.734 36.178 0.367 41.008 0.367a6.675 6.675 0 0 0 7.844-7.873v-83.418h-68.589c-4.105 44.699-13.06 92.421-34.313 126.61a110.37 110.37 0 0 0-27.59-19.91c29.464-49.269 32.063-119.47 32.063-173.211V443.44zM566.18793 649.688h34.69V503.141H570.66093v-30.42h30.217v-43.23h31.329v43.23h58.175v-43.23h32.063v43.23h26.865v30.42h-26.875V649.69h25.378v30.402H566.19693v-30.402z m48.843 36.42l32.845 9.042a262.376 262.376 0 0 1-55.2 75.515 175.896 175.896 0 0 0-27.59-20.644 185.421 185.421 0 0 0 49.945-63.903zM455.11093 426.496l27.223 27.05a496.34 496.34 0 0 1-83.92 21.745v59.005h98.836v33.454h-98.836v55.596h76.878V768h-32.846v-13.843h-123.46v15.775h-31.695V623.374h78.307V567.78H261.93293v-33.454h103.666v-53.364c-26.083 4.135-52.949 7.168-77.563 9.033a124.754 124.754 0 0 0-10.066-29.32c63.758-6.762 136.114-18.78 177.142-34.178z m-260.685 4.135a766.87 766.87 0 0 1 69.37 37.955l-20.508 28.19c-15.292-10.907-46.244-28.982-68.241-41.366z m-18.278 101.434c21.253 10.51 52.968 27.049 68.589 37.192l-19.012 28.914c-15.292-10.51-46.244-28.547-68.588-40.197z m686.853-57.132h-65.69v52.997H863.00093v-52.978z" p-id="15695"></path></svg>