<?xml version="1.0" standalone="no"?><!DOCTYPE svg PUBLIC "-//W3C//DTD SVG 1.1//EN" "http://www.w3.org/Graphics/SVG/1.1/DTD/svg11.dtd"><svg t="1504777050805" class="icon" style="" viewBox="0 0 1066 1024" version="1.1" xmlns="http://www.w3.org/2000/svg" p-id="16450" xmlns:xlink="http://www.w3.org/1999/xlink" width="208.203125" height="200"><defs><style type="text/css"></style></defs><path d="M816.225574 396.722343a74.679959 74.679959 0 0 1-88.046952-13.740992 77.115958 77.115958 0 0 1-19.705989-67.761963l11.743993-68.527963-51.743972-50.408972a74.501959 74.501959 0 0 1-14.869991-86.533953 78.739957 78.739957 0 0 1 60.349967-41.456977l59.995967-8.709996a17.65199 17.65199 0 0 0 11.817993-7.046996c8.764995-11.994993 26.622985-37.927979 17.193991-37.927979H146.20294A146.26892 146.26892 0 0 0 0.00002 160.940472v716.585608a146.27792 146.27792 0 0 0 146.20292 146.33392h619.754661a146.25992 146.25992 0 0 0 146.19392-146.32492v-478.329738a31.999983 31.999983 0 0 0-17.10199-28.359985 31.943983 31.943983 0 0 0-29.739984 0zM404.864799 918.039058A300.826835 300.826835 0 0 1 174.589925 811.724116a42.641977 42.641977 0 1 1 65.194964-54.96397 215.421882 215.421882 0 0 0 165.07891 75.985959c63.756965 0 164.90991-47.056974 164.909909-173.329906 0-157.106914-117.115936-169.335907-153.017916-169.335907-106.781942 0-143.243922 42.790977-144.689921 44.620976a43.229976 43.229976 0 0 1-50.576972 12.339993 42.324977 42.324977 0 0 1-25.288986-44.675976l43.481976-298.866836a42.613977 42.613977 0 0 1 42.174977-36.50898h293.555839a42.650977 42.650977 0 0 1 0 85.302953h-256.709859l-24.979987 171.827906a363.669801 363.669801 0 0 1 123.032933-19.341989c118.553935 0 238.27387 78.711957 238.27387 254.62786-0.01 161.904911-127.20693 258.632859-250.165863 258.632859z m659.912639-783.795571a31.047983 31.047983 0 0 0-25.073987-21.152989L948.679501 99.843505l-40.689978-82.519954a31.019983 31.019983 0 0 0-55.664969 0l-40.699978 82.519954-90.96895 13.246993a31.066983 31.066983 0 0 0-17.193991 53.002971l65.829964 64.195965-15.524991 90.70795a31.029983 31.029983 0 0 0 45.040975 32.736983l81.372956-42.818977 81.381955 42.819977a31.038983 31.038983 0 0 0 45.039976-32.737983L991.059478 230.280434l65.839964-64.195965a31.103983 31.103983 0 0 0 7.867996-31.840982z" p-id="16451"></path></svg>