<?xml version="1.0" standalone="no"?><!DOCTYPE svg PUBLIC "-//W3C//DTD SVG 1.1//EN" "http://www.w3.org/Graphics/SVG/1.1/DTD/svg11.dtd"><svg t="1504776950401" class="icon" style="" viewBox="0 0 1130 1024" version="1.1" xmlns="http://www.w3.org/2000/svg" p-id="13858" xmlns:xlink="http://www.w3.org/1999/xlink" width="220.703125" height="200"><defs><style type="text/css"></style></defs><path d="M978.4882 0H152.304984A152.557977 152.557977 0 0 0 0 152.431981v594.264331a152.548978 152.548978 0 0 0 152.304984 152.422981h462.294811l47.434749-130.410562c-0.974974-1.13097-1.812952-2.359938-2.767927-3.499907a242.503606 242.503606 0 0 1-7.662798-9.747743 284.342503 284.342503 0 0 1-9.221757-12.819662c-2.339938-3.439909-4.678877-6.82282-6.82382-10.419726a285.006485 285.006485 0 0 1-8.957764-15.889581c-1.559959-2.817926-3.236915-5.605852-4.669877-8.471776a293.502261 293.502261 0 0 1-10.59572-24.916343c-1.101971-3.119918-2.076945-6.335833-3.129918-9.533749a250.858386 250.858386 0 0 1-7.885792-28.776241 278.279663 278.279663 0 0 1-3.469908-19.71048c-0.439988-3.129917-0.974974-6.229836-1.306966-9.396753a278.650653 278.650653 0 0 1 316.375658-307.758885c3.099918 0.419989 6.160838 0.896976 9.221757 1.413963a277.948671 277.948671 0 0 1 34.119101 7.797794c0.506987 0.155996 1.042972 0.243994 1.549959 0.39999a277.285689 277.285689 0 0 1 34.1181 13.286649c2.349938 1.081971 4.639878 2.212942 6.949817 3.353912a280.414606 280.414606 0 0 1 30.649192 17.379542l0.681982 0.419989a282.266557 282.266557 0 0 1 29.614219 22.889396c1.306966 1.14997 2.563932 2.329939 3.850898 3.498908a282.412554 282.412554 0 0 1 48.477722 57.513483c0.574985 0.906976 1.100971 1.842951 1.666956 2.749928a279.87862 279.87862 0 0 1 17.965526 33.75711V152.431981A152.538978 152.538978 0 0 0 978.4882 0z m-477.307415 690.937782H168.320562a34.440092 34.440092 0 0 1 0-68.870184h332.860223a34.440092 34.440092 0 0 1 0 68.870184z m0-217.841256H168.320562a34.440092 34.440092 0 0 1 0-68.871184h332.860223a34.440092 34.440092 0 0 1 0 68.871184zM667.87239 255.25527H168.320562a34.440092 34.440092 0 0 1 0-68.871184h499.582827a34.440092 34.440092 0 0 1 0 68.871184z m206.534554 116.499928a213.981358 213.981358 0 1 0 213.814363 213.980358 214.156353 214.156353 0 0 0-213.814363-213.980358z m0 315.585679A101.604321 101.604321 0 1 1 975.944267 585.734556 101.575322 101.575322 0 0 1 874.406944 687.331877z m-104.977232 336.661123l-27.539274-42.832871a33.407119 33.407119 0 0 0-37.958999-13.842635l-48.614718 15.129601 60.195413-165.533635a278.698652 278.698652 0 0 0 112.688029 45.445802z m275.392739-56.675506a33.339121 33.339121 0 0 0-37.958999 13.842635l-27.528274 42.832871-58.79045-161.633738a278.73765 278.73765 0 0 0 112.697028-45.455802l60.215413 165.543635z" p-id="13859"></path></svg>