<?xml version="1.0" standalone="no"?><!DOCTYPE svg PUBLIC "-//W3C//DTD SVG 1.1//EN" "http://www.w3.org/Graphics/SVG/1.1/DTD/svg11.dtd"><svg t="1504776962293" class="icon" style="" viewBox="0 0 1054 1024" version="1.1" xmlns="http://www.w3.org/2000/svg" p-id="14074" xmlns:xlink="http://www.w3.org/1999/xlink" width="205.859375" height="200"><defs><style type="text/css"></style></defs><path d="M1054.323248 929.932337A94.643933 94.643933 0 0 1 959.344316 1023.99927H95.009932A94.643933 94.643933 0 0 1 0 929.932337V94.156933A94.643933 94.643933 0 0 1 94.977932 0.051h864.336384a94.643933 94.643933 0 0 1 94.977932 94.105933v835.775404zM456.074675 754.129462H166.110882a36.589974 36.589974 0 1 0 0 73.169948h289.963793a36.589974 36.589974 0 1 0 0-73.169948z m0-278.679801H166.110882a36.589974 36.589974 0 1 0 0 73.169948h289.963793a36.589974 36.589974 0 1 0 0-73.169948z m0-278.679801H166.110882a36.589974 36.589974 0 1 0 0 73.169948h289.963793a36.589974 36.589974 0 1 0 0-73.179948z m359.068744-19.424986a187.117867 187.117867 0 0 0-158.161887 34.977975A181.480871 181.480871 0 0 0 587.349581 355.479747a36.914974 36.914974 0 0 0 73.818948 0 109.049922 109.049922 0 0 1 41.82197-85.975939 111.60592 111.60592 0 0 1 95.677932-20.864985 109.638922 109.638922 0 0 1 21.989984 205.641853 145.184896 145.184896 0 0 0-85.518939 129.580908v8.870993a36.904974 36.904974 0 0 0 73.819947 0v-8.869993a72.804948 72.804948 0 0 1 44.101969-63.873955 182.56587 182.56587 0 0 0-37.917973-342.643755z m-44.964968 516.936631a78.675944 78.675944 0 1 0 79.435943 78.664944 79.080944 79.080944 0 0 0-79.435943-78.664944z" p-id="14075"></path></svg>