<?xml version="1.0" standalone="no"?><!DOCTYPE svg PUBLIC "-//W3C//DTD SVG 1.1//EN" "http://www.w3.org/Graphics/SVG/1.1/DTD/svg11.dtd"><svg t="1504776988888" class="icon" style="" viewBox="0 0 1024 1024" version="1.1" xmlns="http://www.w3.org/2000/svg" p-id="14722" xmlns:xlink="http://www.w3.org/1999/xlink" width="200" height="200"><defs><style type="text/css"></style></defs><path d="M898.003 88.807v766.251a122.49 122.49 0 0 1-122.337 122.336h-600.19A80.524 80.524 0 0 0 248.325 1024h645.21a80.651 80.651 0 0 0 80.651-80.57V168.942a80.47 80.47 0 0 0-76.183-80.135z m-41.776 766.251V80.578A80.651 80.651 0 0 0 775.612 0H130.456a80.651 80.651 0 0 0-80.652 80.579v774.48a80.651 80.651 0 0 0 80.652 80.569h645.21a80.651 80.651 0 0 0 80.561-80.57zM167.72 461.77h128.39a31.327 31.327 0 1 1 0 62.654h-128.4a31.327 31.327 0 0 1 0-62.654z m-31.174-147.61a31.318 31.318 0 0 1 31.164-31.291h128.4a31.327 31.327 0 1 1 0 62.645h-128.4a31.318 31.318 0 0 1-31.164-31.354z m601.632 538.57H167.71a31.29 31.29 0 0 1 0-62.583h570.468a31.327 31.327 0 0 1 0 62.582z m0-131.762H167.71a31.29 31.29 0 0 1 0-62.581h570.468a31.327 31.327 0 0 1 0 62.6zM382.95 401.635a185.951 185.951 0 1 1 185.924 185.887 186.123 186.123 0 0 1-185.96-185.878z m355.228-235.067H167.873a31.327 31.327 0 1 1 0-62.646h570.304a31.327 31.327 0 1 1 0 62.655zM692.17 401.635a123.306 123.306 0 1 0-123.306 123.242A123.406 123.406 0 0 0 692.17 401.644z" p-id="14723"></path></svg>