<?xml version="1.0" standalone="no"?><!DOCTYPE svg PUBLIC "-//W3C//DTD SVG 1.1//EN" "http://www.w3.org/Graphics/SVG/1.1/DTD/svg11.dtd"><svg t="1504777004763" class="icon" style="" viewBox="0 0 1024 1024" version="1.1" xmlns="http://www.w3.org/2000/svg" p-id="15154" xmlns:xlink="http://www.w3.org/1999/xlink" width="200" height="200"><defs><style type="text/css"></style></defs><path d="M512.883 66.653467a323.135842 323.135842 0 1 0 322.403842 323.134843A323.125842 323.125842 0 0 0 512.883 66.653467z m0 578.284718a255.149875 255.149875 0 1 1 254.572875-255.149875 255.158875 255.158875 0 0 1-254.572875 255.139875zM370.849069 1024l-51.409975-80.072961a34.038983 34.038983 0 0 0-38.591981-14.089993l-90.706956 28.269986 68.388967-188.341908a453.484779 453.484779 0 0 0 178.869912 70.984965z m142.033931-244.433881a389.77781 389.77781 0 1 1 388.89981-389.777809 389.77781 389.77781 0 0 1-388.89981 389.777809z m232.008886 150.262927a33.937983 33.937983 0 0 0-38.591981 14.088993L654.90793 1024l-66.550967-183.239911a453.484779 453.484779 0 0 0 178.869912-70.985965l68.389967 188.342908z m-171.144916-614.9297l-60.86397-123.619939-60.863971 123.610939-136.109933 19.821991 98.486952 96.219953-23.249989 135.861933 121.736941-64.145968 121.73694 64.145968-23.249989-135.862933 98.476952-96.219953z" p-id="15155"></path></svg>