<?xml version="1.0" standalone="no"?><!DOCTYPE svg PUBLIC "-//W3C//DTD SVG 1.1//EN" "http://www.w3.org/Graphics/SVG/1.1/DTD/svg11.dtd"><svg t="1504777001474" class="icon" style="" viewBox="0 0 1101 1024" version="1.1" xmlns="http://www.w3.org/2000/svg" p-id="15046" xmlns:xlink="http://www.w3.org/1999/xlink" width="215.0390625" height="200"><defs><style type="text/css"></style></defs><path d="M0.00193 320.357v573.904A129.256 129.256 0 0 0 128.74593 1024h843.814a129.246 129.246 0 0 0 128.725-129.739V190.62h-972.54A129.256 129.256 0 0 0 0.00293 320.357z m570.3 157.996h154.392a572.29 572.29 0 0 0-22.016-45.868l33.947-10.133a417.54 417.54 0 0 1 28.334 56.03H904.81093v34.188H754.11093v46.592h119.75v128.85c0 18.413-3.729 28.923-17.524 34.188-13.804 5.632-34.68 6-64.879 6a121.344 121.344 0 0 0-12.317-34.189c22.383 0.763 44.757 0.763 50.717 0.763 6.338-0.396 8.212-1.932 8.212-7.139v-94.314h-83.91V769.14H717.97093V593.32h-78.684v135.651H604.23093V559.133h113.74v-46.592H570.30293v-34.188zM160.49893 716.964h136.125V430.621h36.922v111.606h135.738v34.923H333.54593v139.785h159.609v34.951H160.49893v-34.95zM1066.59493 0H735.71693A128.483 128.483 0 0 0 627.52093 59.45l-57.76 90.286h531.524V35a34.855 34.855 0 0 0-34.69-35z" p-id="15047"></path></svg>