<?xml version="1.0" standalone="no"?><!DOCTYPE svg PUBLIC "-//W3C//DTD SVG 1.1//EN" "http://www.w3.org/Graphics/SVG/1.1/DTD/svg11.dtd"><svg t="1504777014736" class="icon" style="" viewBox="0 0 1042 1024" version="1.1" xmlns="http://www.w3.org/2000/svg" p-id="15478" xmlns:xlink="http://www.w3.org/1999/xlink" width="203.515625" height="200"><defs><style type="text/css"></style></defs><path d="M896.093 0H146.468A146.552 146.552 0 0 0 0.056 146.347V877.54a146.524 146.524 0 0 0 146.412 146.32h749.625a146.514 146.514 0 0 0 146.394-146.32V146.347A146.542 146.542 0 0 0 896.093 0z m-3.416 543.91H729.566a32.002 32.002 0 0 1-30.243-21.485l-50.266-144.848-97.133 323.933a32.012 32.012 0 0 1-29.657 22.815h-0.996a32.012 32.012 0 0 1-30.029-20.925l-79.968-216.244-56.54 158.922a32.02 32.02 0 0 1-59.164 2.793l-48.98-104.962h-96.725a31.993 31.993 0 1 1 0-63.986h117.1a32.002 32.002 0 0 1 29.043 18.487l24.592 52.667 59.965-168.538a31.965 31.965 0 0 1 29.936-21.242h0.186a32.012 32.012 0 0 1 30.03 20.925l77.37 209.3 98.083-327.089a31.974 31.974 0 0 1 29.964-22.805 30.439 30.439 0 0 1 30.932 21.484l75.268 216.886h140.343a31.993 31.993 0 1 1 0 63.911z" p-id="15479"></path></svg>