<?xml version="1.0" standalone="no"?><!DOCTYPE svg PUBLIC "-//W3C//DTD SVG 1.1//EN" "http://www.w3.org/Graphics/SVG/1.1/DTD/svg11.dtd"><svg t="1504683973466" class="icon" style="" viewBox="0 0 1024 1024" version="1.1" xmlns="http://www.w3.org/2000/svg" p-id="1495" xmlns:xlink="http://www.w3.org/1999/xlink" width="200" height="200"><defs><style type="text/css"></style></defs><path d="M511.9599502222223 71.3432177777778a79.68085333333333 79.68085333333333 0 0 1 57.977514666666664 24.758044444444447l391.7596444444444 412.53455644444443a31.038577777777782 31.038577777777782 0 0 1-23.159694222222225 52.308650666666665h-31.198776888888887a45.00138666666666 45.00138666666666 0 0 0-45.409166222222225 44.58632533333333v274.29728711111113a44.99774577777778 44.99774577777778 0 0 1-45.40552533333334 44.58632533333333h-131.61813333333333a44.99774577777778 44.99774577777778 0 0 1-45.40552533333334-44.58632533333333v-111.0471111111111a45.00138666666666 45.00138666666666 0 0 0-45.409166222222225-44.58632533333333h-164.26234311111108a45.00138666666666 45.00138666666666 0 0 0-45.409166222222225 44.58632533333333v111.0471111111111a44.99774577777778 44.99774577777778 0 0 1-45.40552533333334 44.58632533333333H207.37774933333338a45.00138666666666 45.00138666666666 0 0 1-45.40552533333334-44.58632533333333v-274.30456888888887a45.00138666666666 45.00138666666666 0 0 0-45.409166222222225-44.58632533333333h-31.20241777777778a31.038577777777782 31.038577777777782 0 0 1-23.156053333333332-52.308650666666665L453.9824355555555 96.09398044444447a79.67357155555555 79.67357155555555 0 0 1 57.977514666666664-24.758044444444447" p-id="1496"></path></svg>