<?xml version="1.0" standalone="no"?><!DOCTYPE svg PUBLIC "-//W3C//DTD SVG 1.1//EN" "http://www.w3.org/Graphics/SVG/1.1/DTD/svg11.dtd"><svg t="1504776971755" class="icon" style="" viewBox="0 0 1025 1024" version="1.1" xmlns="http://www.w3.org/2000/svg" p-id="14290" xmlns:xlink="http://www.w3.org/1999/xlink" width="200.1953125" height="200"><defs><style type="text/css"></style></defs><path d="M885.577352 221.555836a32.593682 32.593682 0 1 0 0-65.177363H554.244588v-44.293568a32.612682 32.612682 0 0 0-65.225363 0v44.293568H157.65646a32.593682 32.593682 0 1 0 0 65.177363h331.362765v58.169432h-253.787522a32.612682 32.612682 0 0 0-32.612682 32.593682v199.72805a32.612682 32.612682 0 0 0 32.612682 32.593681h253.787522v62.841387H157.65646a32.574682 32.574682 0 1 0 0 65.149363h675.693402a84.869171 84.869171 0 0 0 84.869171-84.755172 32.612682 32.612682 0 0 0-65.225363 0 19.634808 19.634808 0 0 1-19.615808 19.596809H554.244588v-62.841387H808.002109a32.612682 32.612682 0 0 0 32.612682-32.593681V312.31895a32.612682 32.612682 0 0 0-32.612682-32.593682H554.244588v-58.169432h331.332764z m-396.558127 257.897482H267.844384v-34.681661h221.174841v34.682661z m0-99.869025H267.844384v-34.681661h221.174841v34.681661z m286.400203 99.869025H554.244588v-34.681661h221.17484v34.682661z m0-134.550686v34.681661H554.244588v-34.681661h221.17484zM204.745001 731.972852a32.612682 32.612682 0 0 0-32.612682 32.593682v124.91978a32.612682 32.612682 0 0 0 65.225363 0v-124.91878a32.612682 32.612682 0 0 0-32.612681-32.594682zM754.602631 878.854417H444.685657a83.98218 83.98218 0 0 1-83.91518-83.859181v-8.495917a32.612682 32.612682 0 0 0-65.225363 0v8.495917a149.255542 149.255542 0 0 0 149.141543 149.008545H754.602631a32.574682 32.574682 0 1 0 0-65.149364z m14.398859-146.852565H459.085517a32.574682 32.574682 0 1 0 0 65.149363H769.00249a83.99218 83.99218 0 0 1 83.915181 83.849181v8.495918a32.612682 32.612682 0 0 0 65.225363 0v-8.515917A149.255542 149.255542 0 0 0 769.03949 731.972852z m256.0185 208.167967a83.98218 83.98218 0 0 1-83.91518 83.829181H83.916181A83.98218 83.98218 0 0 1 0 940.170819V83.98218A83.98218 83.98218 0 0 1 83.916181 0.132999h857.197629a83.99218 83.99218 0 0 1 83.91618 83.849181V940.140819z" p-id="14291"></path></svg>