<?xml version="1.0" standalone="no"?><!DOCTYPE svg PUBLIC "-//W3C//DTD SVG 1.1//EN" "http://www.w3.org/Graphics/SVG/1.1/DTD/svg11.dtd"><svg t="1504776995666" class="icon" style="" viewBox="0 0 1061 1024" version="1.1" xmlns="http://www.w3.org/2000/svg" p-id="14938" xmlns:xlink="http://www.w3.org/1999/xlink" width="207.2265625" height="200"><defs><style type="text/css"></style></defs><path d="M754.08 529.91a187.716 187.716 0 1 1-188.183 187.716A187.95 187.95 0 0 1 754.08 529.91z m155.837 416.777l62.184 62.035a52.262 52.262 0 0 0 73.782 0 51.946 51.946 0 0 0 0-73.596L983.69 873.09a52.253 52.253 0 0 0-73.773 0 51.955 51.955 0 0 0 0 73.596zM832.166 0.009H145.729A145.562 145.562 0 0 0 0 145.385v666.742a145.562 145.562 0 0 0 145.73 145.376h438.865a14.114 14.114 0 0 0 8.896-25.153 268.3 268.3 0 1 1 359.475-394.997 14.179 14.179 0 0 0 24.93-9.157V145.385A145.552 145.552 0 0 0 832.165 0.009zM386.128 716.331h-167.94a31.805 31.805 0 1 1 0-63.609h167.94a31.805 31.805 0 1 1 0 63.61zM461.25 484.97H218.19a31.805 31.805 0 1 1 0-63.61h243.053a31.805 31.805 0 1 1 0 63.61z m298.455-231.39H218.19a31.805 31.805 0 1 1 0-63.61h541.517a31.805 31.805 0 1 1 0 63.61z" p-id="14939"></path></svg>