<?xml version="1.0" standalone="no"?><!DOCTYPE svg PUBLIC "-//W3C//DTD SVG 1.1//EN" "http://www.w3.org/Graphics/SVG/1.1/DTD/svg11.dtd"><svg t="1504777044155" class="icon" style="" viewBox="0 0 1101 1024" version="1.1" xmlns="http://www.w3.org/2000/svg" p-id="16234" xmlns:xlink="http://www.w3.org/1999/xlink" width="215.0390625" height="200"><defs><style type="text/css"></style></defs><path d="M1066.59493 0H735.71693A128.483 128.483 0 0 0 627.52093 59.45l-57.76 90.286h531.524V35a34.855 34.855 0 0 0-34.69-35zM0.00093 320.357v573.904A129.256 129.256 0 0 0 128.74593 1024h843.814a129.246 129.246 0 0 0 128.725-129.739V190.62h-972.54A129.256 129.256 0 0 0 0.00293 320.357zM601.99793 769.16a117.634 117.634 0 0 0-23.117-27.416C708.27093 717.322 716.80093 680.506 716.80093 655.321v-24.817h36.226v25.919c0 34.95-15.66 81.543-151.03 112.736z m53.335-151.426v86.412h-34.7V585.419h234.206v116.89H818.66093v-84.576H655.32293z m218.16 153.687a795.05 795.05 0 0 0-127.932-53.364l16.78-25.552a776.491 776.491 0 0 1 128.676 49.964z m-44.39-347.58a274.606 274.606 0 0 1 40.652 33.453l-25.726 17.283a253.227 253.227 0 0 0-39.54-36.091z m-69.737 3.004a161.464 161.464 0 0 0 15.66 53.364l127.516-8.637 2.975 27.784-113.026 7.544c19.398 24.412 45.133 39.453 67.883 39.057 10.443 0 13.428-7.873 15.293-31.183a76.848 76.848 0 0 0 26.083 14.278c-4.83 40.225-16.79 48.495-42.883 48.495-39.907 0-79.814-25.552-105.549-67.623l-70.52 5.275-2.493-28.218 59.305-4.135a215.214 215.214 0 0 1-13.418-56.03h33.183z m-97.338-1.13l30.623 10.935a315.479 315.479 0 0 1-32.845 43.23v94.672h-33.58v-62.793a436.717 436.717 0 0 1-35.801 27.455 306.234 306.234 0 0 0-24.605-24.45 281.416 281.416 0 0 0 96.208-89.05zM163.48493 668.092h164.09v-49.596H245.53093c-21.63 0-37.675 1.864-41.395 5.642a224.662 224.662 0 0 0-13.041-36.092c9.322-2.637 16.78-12.77 26.846-29.319a408.846 408.846 0 0 0 26.083-46.196h-74.201v-33.454h89.841a718.867 718.867 0 0 0 21.63-55.972l39.907 10.501a533.33 533.33 0 0 1-20.142 45.462h183.895v33.454h-200.26a711.187 711.187 0 0 1-42.882 72.51h85.765v-52.958h36.931v52.958h96.604v33.454h-96.604v49.597h127.517v34.226H364.50693v68.01h-36.931v-68.01H163.48493v-34.217z" p-id="16235"></path></svg>