<?xml version="1.0" standalone="no"?><!DOCTYPE svg PUBLIC "-//W3C//DTD SVG 1.1//EN" "http://www.w3.org/Graphics/SVG/1.1/DTD/svg11.dtd"><svg t="1504776967160" class="icon" style="" viewBox="0 0 1101 1024" version="1.1" xmlns="http://www.w3.org/2000/svg" p-id="14182" xmlns:xlink="http://www.w3.org/1999/xlink" width="215.0390625" height="200"><defs><style type="text/css"></style></defs><path d="M444.28293 471.938h-96.604v37.956h96.604v-37.956zM0.00093 320.358V894.26A129.256 129.256 0 0 0 128.74593 1024h843.814a129.246 129.246 0 0 0 128.725-129.739V190.62h-972.54A129.246 129.246 0 0 0 0.00293 320.357z m714.984 127.169h181.238v33.048H714.98593v-33.048zM699.30693 550.08h205.872v33.087H852.21093V728.19c0 19.543-4.472 28.98-18.644 34.188-14.162 4.907-36.545 5.274-69.362 5.274a157.107 157.107 0 0 0-11.93-33.463c23.484 0.763 48.485 0.763 55.18 0.763 7.1-0.367 9.332-1.865 9.332-7.506V583.168h-117.48v-33.087z m-49.963-124.735l33.946 13.525a486.883 486.883 0 0 1-98.835 95.444 166.97 166.97 0 0 0-20.51-27.783 342.383 342.383 0 0 0 85.399-81.186z m14.548 80.413l33.183 12.404a479.31 479.31 0 0 1-40.65 57.876v196.105h-34.681V614.68a381.913 381.913 0 0 1-37.29 33.811 224.353 224.353 0 0 0-24.604-29.26A397.785 397.785 0 0 0 663.89093 505.758z m-350.13 207.795V441.48h162.603v165.743H403.65093a292.545 292.545 0 0 0 19.379 50.727 384.377 384.377 0 0 0 50.33-41.723l21.63 24.421a501.692 501.692 0 0 1-57.817 42.09 150.084 150.084 0 0 0 64.203 55.229 124.358 124.358 0 0 0-22.384 29.686c-54.822-28.913-86.15-86.422-103.675-160.43h-27.61v115.732l59.663-13.911a275.572 275.572 0 0 0 1.488 31.879c-74.578 19.91-86.943 24.045-94.73 29.686a129.005 129.005 0 0 0-15.292-28.189 32.343 32.343 0 0 0 14.925-28.865zM207.49593 426.11l30.585 9.37a198.675 198.675 0 0 1-11.93 29.686h66.753v33.454h-84.297a286.295 286.295 0 0 1-23.504 34.188h103.685v31.551h-42.505v44.728h50.292v31.183h-50.312v72.144l48.476-22.547a170.332 170.332 0 0 0 5.593 30.45c-70.52 35.685-81.668 41.694-88.75 48.465a102.922 102.922 0 0 0-13.804-28.98 28.45 28.45 0 0 0 15.717-25.9V640.27h-48.9v-31.183h48.9v-44.728h-28.392v-31.55a134.57 134.57 0 0 1-13.795 15.04 235.394 235.394 0 0 0-16.741-33.453 228.342 228.342 0 0 0 52.91-88.286z m236.786 112.34h-96.604v38.642h96.604V538.45zM1066.59493 0H735.71693A128.483 128.483 0 0 0 627.52093 59.45l-57.76 90.286h531.524V35a34.855 34.855 0 0 0-34.69-35z" p-id="14183"></path></svg>