<?xml version="1.0" standalone="no"?><!DOCTYPE svg PUBLIC "-//W3C//DTD SVG 1.1//EN" "http://www.w3.org/Graphics/SVG/1.1/DTD/svg11.dtd"><svg t="1504776992433" class="icon" style="" viewBox="0 0 1101 1024" version="1.1" xmlns="http://www.w3.org/2000/svg" p-id="14830" xmlns:xlink="http://www.w3.org/1999/xlink" width="215.0390625" height="200"><defs><style type="text/css"></style></defs><path d="M0.00193 320.357v573.904A129.256 129.256 0 0 0 128.74593 1024h843.814a129.246 129.246 0 0 0 128.725-129.739V190.62h-972.54A129.256 129.256 0 0 0 0.00293 320.357z m486.081 439.451H170.99093v-31.957h44.37v-134.51h33.879v134.51h62.647v-198.79h36.545v82.315h103.676v31.184H348.46093v85.282h137.613v31.947z m115.925 9.37a117.702 117.702 0 0 0-23.118-27.416c129.382-24.411 137.912-61.237 137.912-86.421v-24.818h36.226v25.919c0 34.951-15.66 81.553-151.03 112.737z m53.335-151.426v86.422h-34.71V585.419h234.206v116.89H818.66093v-84.557H655.32293z m218.15 153.697a794.692 794.692 0 0 0-127.922-53.364l16.78-25.552a776.153 776.153 0 0 1 128.676 49.964z m-44.39-347.58a274.664 274.664 0 0 1 40.652 33.453l-25.726 17.273a253.363 253.363 0 0 0-39.54-36.091z m-69.737 3.004a161.473 161.473 0 0 0 15.66 53.364L902.54093 471.6l2.975 27.784-113.026 7.535c19.398 24.421 45.133 39.462 67.883 39.057 10.443 0 13.428-7.874 15.293-31.184a76.848 76.848 0 0 0 26.083 14.278c-4.83 40.226-16.79 48.495-42.883 48.495-39.907 0-79.814-25.552-105.549-67.623l-70.52 5.275-2.619-28.19 59.306-4.134a215.224 215.224 0 0 1-13.419-56.03h33.184z m-97.338-1.14l30.623 10.916a315.276 315.276 0 0 1-32.845 43.22v94.672h-33.58V511.75a436.717 436.717 0 0 1-35.801 27.445 306.108 306.108 0 0 0-24.605-24.45 281.426 281.426 0 0 0 96.208-89.011z m-337.814-3.739l31.29 15.012c-2.618 4.135-5.594 7.903-8.569 12.037 46.988 52.968 101.067 81.553 156.624 104.062a86.093 86.093 0 0 0-22.374 30.45 452.01 452.01 0 0 1-153.61-110.457 457.515 457.515 0 0 1-151.03 110.128 142.974 142.974 0 0 0-23.91-29.686c67.537-26.711 134.667-75.177 171.579-131.546zM1066.59393 0H735.71793A128.483 128.483 0 0 0 627.52093 59.45l-57.76 90.286h531.524V35a34.855 34.855 0 0 0-34.69-35z" p-id="14831"></path></svg>