<?xml version="1.0" standalone="no"?><!DOCTYPE svg PUBLIC "-//W3C//DTD SVG 1.1//EN" "http://www.w3.org/Graphics/SVG/1.1/DTD/svg11.dtd"><svg t="1504683963683" class="icon" style="" viewBox="0 0 1024 1024" version="1.1" xmlns="http://www.w3.org/2000/svg" p-id="1279" xmlns:xlink="http://www.w3.org/1999/xlink" width="200" height="200"><defs><style type="text/css"></style></defs><path d="M936.5376 684.7264c-70.4608-82.7552-174.1088-141.0176-290.7584-166.5376a253.4624 253.4624 0 0 0 118.8032-214.5952c0-139.76-113.312-253.456-252.5856-253.456S259.4016 163.84 259.4016 303.5936a253.4592 253.4592 0 0 0 118.8096 214.5984c-116.6464 25.52-220.2944 83.7792-290.752 166.5344a138.7072 138.7072 0 0 0-31.584 110.288 135.2896 135.2896 0 0 0 60.6752 94.1792c110.5984 70.7872 251.0464 109.76 395.4464 109.76s284.8544-38.9632 395.4368-109.76a135.2768 135.2768 0 0 0 60.6752-94.1536 138.704 138.704 0 0 0-31.5712-110.3136zM312.5984 303.5936A199.392 199.392 0 1 1 512 503.648a199.952 199.952 0 0 1-199.4016-200.0544z m602.9024 483.5488a80.7232 80.7232 0 0 1-36.6816 57.0336C776.6784 909.568 646.4 945.5648 512 945.5648S247.3184 909.568 145.1616 844.176a80.7136 80.7136 0 0 1-36.6656-57.0336 85.1872 85.1872 0 0 1 19.4016-67.7472C214.464 617.7408 358.048 557.0528 512 557.0528s297.536 60.688 384.0864 162.3424a85.1424 85.1424 0 0 1 19.4144 67.7472z" p-id="1280"></path></svg>