<?xml version="1.0" standalone="no"?><!DOCTYPE svg PUBLIC "-//W3C//DTD SVG 1.1//EN" "http://www.w3.org/Graphics/SVG/1.1/DTD/svg11.dtd"><svg t="1504683969429" class="icon" style="" viewBox="0 0 1024 1024" version="1.1" xmlns="http://www.w3.org/2000/svg" p-id="1387" xmlns:xlink="http://www.w3.org/1999/xlink" width="200" height="200"><defs><style type="text/css"></style></defs><path d="M511.9104 503.4976a201.6 201.6 0 1 0-201.6768-201.6 201.8592 201.8592 0 0 0 201.6768 201.6z m388.48 217.4144c-87.5424-102.4448-232.768-163.5968-388.48-163.5968s-300.9312 61.152-388.48 163.5968a85.6224 85.6224 0 0 0-19.6224 68.2688 81.312 81.312 0 0 0 37.0848 57.472c103.3216 65.8976 235.0912 102.1696 371.024 102.1696s267.6992-36.272 371.008-102.1696a81.312 81.312 0 0 0 37.0976-57.472 85.584 85.584 0 0 0-19.6416-68.2688z" p-id="1388"></path></svg>