<?xml version="1.0" standalone="no"?><!DOCTYPE svg PUBLIC "-//W3C//DTD SVG 1.1//EN" "http://www.w3.org/Graphics/SVG/1.1/DTD/svg11.dtd"><svg t="1510575128457" class="icon" style="" viewBox="0 0 1024 1024" version="1.1" xmlns="http://www.w3.org/2000/svg" p-id="2780" xmlns:xlink="http://www.w3.org/1999/xlink" width="200" height="200"><defs><style type="text/css"></style></defs><path d="M512 0C229.233 0 0.021 229.221 0.021 512S229.232 1024 512 1024s511.979-229.221 511.979-512S794.768 0 512 0z m281.886 671.573c-13.223 12.342-35.924-1.102-57.744-31.297a330.413 330.413 0 0 1-36.144 70.309c30.855 11.02 50.692 28.212 50.692 47.608 0 33.501-59.287 60.611-132.458 60.611-43.418 0-81.767-9.477-106.01-24.244-24.023 14.767-62.593 24.244-106.01 24.244-73.172 0-132.458-27.109-132.458-60.611 0-19.175 19.836-36.586 50.692-47.608-14.546-21.159-26.667-44.742-36.144-70.309-21.819 29.975-44.519 43.64-57.744 31.297-18.073-16.971-11.24-76.922 15.647-133.785 6.171-13.004 12.783-24.685 19.615-34.823 3.746-165.304 112.622-297.987 246.181-297.987h0.441c133.559 0 242.435 132.463 246.181 297.987 6.833 10.139 13.444 21.82 19.615 34.823 26.67 56.864 33.723 116.814 15.65 133.785z" p-id="2781"></path></svg>