<?xml version="1.0" standalone="no"?><!DOCTYPE svg PUBLIC "-//W3C//DTD SVG 1.1//EN" "http://www.w3.org/Graphics/SVG/1.1/DTD/svg11.dtd"><svg t="1510575144226" class="icon" style="" viewBox="0 0 1024 1024" version="1.1" xmlns="http://www.w3.org/2000/svg" p-id="3213" xmlns:xlink="http://www.w3.org/1999/xlink" width="200" height="200"><defs><style type="text/css"></style></defs><path d="M512 0C229.344 0 0.207 229.23 0.207 512S229.344 1024 512 1024c282.657 0 511.793-229.229 511.793-512S794.656 0 512 0z m0 978.104C254.683 978.104 46.085 769.425 46.085 512 46.085 254.578 254.683 45.896 512 45.896S977.917 254.578 977.917 512c-0.001 257.425-208.6 466.104-465.917 466.104z" p-id="3214"></path><path d="M758.125 664.218c-11.527 11.757-31.332-1.051-50.375-29.854-8.277 24.392-19.04 46.857-31.539 67.048 26.905 10.519 44.207 26.891 44.207 45.393 0 31.947-51.698 57.81-115.568 57.81-37.876 0-71.36-9.066-92.512-23.142-20.923 14.076-54.596 23.142-92.469 23.142-63.869 0-115.587-25.863-115.587-57.81 0-18.28 17.323-34.874 44.227-45.393-12.666-20.168-23.242-42.657-31.539-67.048-19.041 28.575-38.827 41.611-50.374 29.854-15.77-16.166-9.79-73.359 13.659-127.555 5.402-12.395 11.135-23.531 17.096-33.204 3.269-157.615 98.285-284.132 214.824-284.132h0.372c116.56 0 211.555 126.309 214.806 284.132 5.962 9.673 11.756 20.796 17.116 33.204 23.28 54.198 29.428 111.39 13.658 127.555z" p-id="3215"></path></svg>