<?xml version="1.0" standalone="no"?><!DOCTYPE svg PUBLIC "-//W3C//DTD SVG 1.1//EN" "http://www.w3.org/Graphics/SVG/1.1/DTD/svg11.dtd"><svg t="1510053050933" class="icon" style="" viewBox="0 0 1024 1024" version="1.1" xmlns="http://www.w3.org/2000/svg" p-id="6550" xmlns:xlink="http://www.w3.org/1999/xlink" width="200" height="200"><defs><style type="text/css"></style></defs><path d="M323.1 913c-8 0-15.9-3-22-9.1-12.1-12.1-12.1-31.8 0-44l371.7-371.7c12.1-12.1 31.8-12.1 44 0 12.1 12.1 12.1 31.8 0 44L345 903.9c-6 6.1-14 9.1-21.9 9.1z" p-id="6551"></path><path d="M694.8 541.3c-8 0-15.9-3-22-9.1L301.1 160.5c-12.1-12.1-12.1-31.8 0-44 12.1-12.1 31.8-12.1 44 0l371.7 371.7c12.1 12.1 12.1 31.8 0 44-6.1 6.1-14.1 9.1-22 9.1z" p-id="6552"></path></svg>