<?xml version="1.0" standalone="no"?><!DOCTYPE svg PUBLIC "-//W3C//DTD SVG 1.1//EN" "http://www.w3.org/Graphics/SVG/1.1/DTD/svg11.dtd"><svg t="1504753031363" class="icon" style="" viewBox="0 0 1024 1024" version="1.1" xmlns="http://www.w3.org/2000/svg" p-id="12650" xmlns:xlink="http://www.w3.org/1999/xlink" width="200" height="200"><defs><style type="text/css"></style></defs><path d="M969.453 948.213L803.729 782.49c39.984-41.858 71.198-90.074 92.853-143.474 22.202-54.75 33.459-112.591 33.459-171.918 0-59.327-11.257-117.168-33.459-171.917-22.994-56.703-56.762-107.562-100.366-151.167-43.605-43.605-94.464-77.373-151.167-100.367C590.3 21.446 532.458 10.19 473.132 10.19c-59.327 0-117.169 11.256-171.918 33.46-56.702 22.993-107.561 56.76-151.167 100.366S72.674 238.479 49.68 295.182C27.48 349.93 16.221 407.772 16.221 467.099s11.257 117.169 33.46 171.918c22.993 56.701 56.761 107.56 100.366 151.167 43.606 43.604 94.465 77.372 151.167 100.366 54.75 22.201 112.59 33.459 171.918 33.459 59.326 0 117.168-11.258 171.917-33.46 37.837-15.343 73.068-35.492 105.283-60.152L918.8 998.865l50.653-50.652z m-496.321-95.836c-102.912 0-199.664-40.076-272.433-112.845-72.77-72.77-112.845-169.52-112.845-272.433s40.076-199.663 112.845-272.432c72.77-72.77 169.52-112.845 272.433-112.845s199.663 40.075 272.433 112.845c72.769 72.769 112.845 169.52 112.845 272.432s-40.076 199.664-112.845 272.433-169.521 112.845-272.433 112.845z" p-id="12651"></path></svg>