<?xml version="1.0" standalone="no"?><!DOCTYPE svg PUBLIC "-//W3C//DTD SVG 1.1//EN" "http://www.w3.org/Graphics/SVG/1.1/DTD/svg11.dtd"><svg t="1510575137466" class="icon" style="" viewBox="0 0 1024 1024" version="1.1" xmlns="http://www.w3.org/2000/svg" p-id="2997" xmlns:xlink="http://www.w3.org/1999/xlink" width="200" height="200"><defs><style type="text/css"></style></defs><path d="M950.743 577.226c-96.915 25.258-168.652 113.526-168.652 218.248 0 20.003 2.663 39.857 7.845 59.007l-116.774 66.791c-41.934-42.742-99.932-67.833-161.165-67.833s-119.231 25.096-161.159 67.833l-116.774-66.785a226.074 226.074 0 0 0 7.843-59.012c0-104.712-71.74-192.989-168.657-218.247V446.774c96.915-25.257 168.657-113.528 168.657-218.248 0-20.009-2.663-39.858-7.843-59.009l116.774-66.791c41.928 42.736 99.929 67.825 161.159 67.826s119.231-25.09 161.165-67.826l116.768 66.791a226.122 226.122 0 0 0-7.843 59.009c0 104.716 71.74 192.99 168.657 218.248v130.454z m56.847 49.59V397.184c-93.147 0-168.658-75.511-168.658-168.657 0-30.485 8.087-59.074 22.237-83.751L658.423 28.808c-29.084 50.727-83.763 84.906-146.426 84.906-62.659 0-117.341-34.178-146.42-84.906L162.831 144.776c14.144 24.673 22.239 53.268 22.237 83.751 0 93.147-75.511 168.657-168.658 168.657v229.632c93.148 0 168.658 75.511 168.658 168.658 0 30.481-8.089 59.073-22.237 83.751l202.746 115.968c29.079-50.728 83.763-84.905 146.42-84.905 62.664 0 117.347 34.176 146.427 84.905l202.747-115.97c-14.149-24.678-22.237-53.27-22.237-83.751 0-93.147 75.51-168.657 168.657-168.657zM369.888 512.002c0-78.367 63.749-142.119 142.112-142.119 78.367 0 142.118 63.752 142.118 142.119 0 78.356-63.753 142.11-142.118 142.11s-142.112-63.752-142.112-142.11z m227.379 0c0-47.022-38.251-85.272-85.268-85.272s-85.268 38.25-85.268 85.272c0 47.012 38.256 85.267 85.268 85.267 47.019 0 85.268-38.25 85.268-85.267z" p-id="2998"></path></svg>