<?xml version="1.0" standalone="no"?><!DOCTYPE svg PUBLIC "-//W3C//DTD SVG 1.1//EN" "http://www.w3.org/Graphics/SVG/1.1/DTD/svg11.dtd"><svg t="1510575085888" class="icon" style="" viewBox="0 0 1024 1024" version="1.1" xmlns="http://www.w3.org/2000/svg" p-id="2130" xmlns:xlink="http://www.w3.org/1999/xlink" width="200" height="200"><defs><style type="text/css"></style></defs><path d="M487.299 657.677l29.973 29.973-85.658 85.658c-49.835 49.835-131.015 49.763-180.923-0.144s-49.907-131.015 0-180.85l149.577-149.577c49.835-49.835 131.015-49.835 180.923 0.144l-30.19 30.118c-33.368-33.368-87.608-33.368-120.976-0.072L280.881 622.071c-33.296 33.296-33.296 87.608 0.072 120.976s87.608 33.368 120.976 0.072l85.369-85.442z m105.015-406.985l-85.658 85.586 29.973 29.973 85.442-85.369c33.296-33.296 87.608-33.296 120.976 0.072s33.368 87.608 0.072 120.976L593.975 551.074c-33.368 33.296-87.608 33.296-120.976-0.072l-30.19 30.19c49.907 49.907 131.088 49.979 180.923 0.144l149.577-149.577c49.835-49.835 49.763-131.015-0.144-180.923s-131.015-50.052-180.85-0.144zM1024 512c0 282.759-229.241 512-512 512S0 794.759 0 512 229.241 0 512 0s512 229.241 512 512z m-31.996 0c0-265.136-214.94-480.004-480.004-480.004C246.864 31.996 31.996 246.864 31.996 512S246.936 992.004 512 992.004c265.136 0 480.004-214.868 480.004-480.004z" p-id="2131"></path></svg>