<?xml version="1.0" standalone="no"?><!DOCTYPE svg PUBLIC "-//W3C//DTD SVG 1.1//EN" "http://www.w3.org/Graphics/SVG/1.1/DTD/svg11.dtd"><svg t="1510575110835" class="icon" style="" viewBox="0 0 1024 1024" version="1.1" xmlns="http://www.w3.org/2000/svg" p-id="2454" xmlns:xlink="http://www.w3.org/1999/xlink" width="200" height="200"><defs><style type="text/css"></style></defs><path d="M667.989 330.069l25.941 25.975-337.886 337.92-25.975-26.01z" p-id="2455"></path><path d="M330.069 356.011l25.975-25.941 337.92 337.886-26.01 25.975z" p-id="2456"></path><path d="M512 989.867c263.919 0 477.867-213.948 477.867-477.867S775.919 34.133 512 34.133 34.133 248.081 34.133 512 248.081 989.867 512 989.867z m0 34.133C229.239 1024 0 794.761 0 512S229.239 0 512 0c282.761 0 512 229.239 512 512s-229.239 512-512 512z" p-id="2457"></path></svg>