<?xml version="1.0" standalone="no"?><!DOCTYPE svg PUBLIC "-//W3C//DTD SVG 1.1//EN" "http://www.w3.org/Graphics/SVG/1.1/DTD/svg11.dtd"><svg t="1510575118578" class="icon" style="" viewBox="0 0 1024 1024" version="1.1" xmlns="http://www.w3.org/2000/svg" p-id="2564" xmlns:xlink="http://www.w3.org/1999/xlink" width="200" height="200"><defs><style type="text/css"></style></defs><path d="M378.004 182.402L492.719 67.697v571.312c0 10.327 8.643 18.696 19.279 18.696s19.279-8.368 19.279-18.696V67.697l114.715 114.705c7.531 7.531 19.732 7.531 27.261 0s7.531-19.73 0-27.26L525.627 7.53c-7.531-7.529-19.732-7.529-27.261 0L350.738 155.142c-7.529 7.531-7.529 19.729 0 27.26 7.533 7.531 19.734 7.531 27.264 0z m423.187 109.007H627.676c-10.638 0-19.278 8.632-19.278 19.279s8.64 19.279 19.278 19.279H801.19c21.297 0 38.561 17.262 38.561 38.557v578.359c0 21.295-17.264 38.557-38.561 38.557H222.809c-21.295 0-38.558-17.262-38.558-38.557V368.525c0-21.294 17.263-38.557 38.558-38.557h173.514c10.638 0 19.279-8.635 19.279-19.279 0-10.647-8.641-19.279-19.279-19.279H222.809c-42.588 0-77.118 34.519-77.118 77.116v578.359c0 42.585 34.531 77.115 77.118 77.115h578.382c42.59 0 77.119-34.53 77.119-77.115V368.524c0-42.597-34.53-77.116-77.119-77.116z" p-id="2565"></path></svg>