<?xml version="1.0" standalone="no"?><!DOCTYPE svg PUBLIC "-//W3C//DTD SVG 1.1//EN" "http://www.w3.org/Graphics/SVG/1.1/DTD/svg11.dtd"><svg t="1510575100368" class="icon" style="" viewBox="0 0 1024 1024" version="1.1" xmlns="http://www.w3.org/2000/svg" p-id="2346" xmlns:xlink="http://www.w3.org/1999/xlink" width="200" height="200"><defs><style type="text/css"></style></defs><path d="M579.569 511.585c-11.674 0-23.355 10.842-23.355 24.188 0 10.845 11.673 21.687 23.355 21.687 17.522 0 30.032-10.844 30.032-21.687 0-13.345-12.511-24.188-30.032-24.188z m-76.744-112.619c18.352 0 30.032-11.674 30.032-29.197 0-18.353-11.679-29.195-30.032-29.195-17.518 0-34.204 10.844-34.204 29.195 0 17.525 16.685 29.197 34.204 29.197zM512.001 0C229.227 0 0 229.228 0 512.001 0 794.772 229.228 1024 512.001 1024 794.771 1024 1024 794.772 1024 512.001 1024 229.228 794.772 0 512.001 0z m-96.764 641.715c-30.869 0-53.392-5.002-82.587-13.345l-84.253 42.547 24.196-71.746c-59.228-41.706-94.269-94.26-94.269-158.494 0-113.45 106.777-200.206 236.914-200.206 115.117 0 217.723 68.404 237.742 165.173-8.341-1.673-15.851-2.502-22.522-2.502-113.45 0-201.038 85.086-201.038 187.691 0 17.516 2.503 33.364 6.674 50.05-6.674 0.83-14.184 0.83-20.856 0.83z m347.857 81.75l16.681 60.065-63.398-35.869c-24.19 5.002-47.55 12.51-71.739 12.51-111.783 0-200.206-76.744-200.206-171.841s88.423-171.842 200.206-171.842c105.94 0 201.038 76.744 201.038 171.842 0 53.384-35.869 100.933-82.582 135.134zM337.656 340.573c-17.518 0-35.869 10.844-35.869 29.195 0 17.523 18.352 29.202 35.869 29.202 16.686 0 30.032-11.679 30.032-29.202 0-18.352-13.346-29.195-30.032-29.195z m372.885 171.012c-12.515 0-23.36 10.842-23.36 24.188 0 10.845 10.845 21.687 23.36 21.687 16.681 0 29.195-10.844 29.195-21.687 0-13.345-12.515-24.188-29.195-24.188z" p-id="2347"></path></svg>