<?xml version="1.0" standalone="no"?><!DOCTYPE svg PUBLIC "-//W3C//DTD SVG 1.1//EN" "http://www.w3.org/Graphics/SVG/1.1/DTD/svg11.dtd"><svg t="1510575094812" class="icon" style="" viewBox="0 0 1024 1024" version="1.1" xmlns="http://www.w3.org/2000/svg" p-id="2238" xmlns:xlink="http://www.w3.org/1999/xlink" width="200" height="200"><defs><style type="text/css"></style></defs><path d="M337.92 348.158c-17.066 0-30.717 13.653-30.717 30.723 0 17.066 13.651 30.719 30.717 30.719s30.717-13.653 30.717-30.719c0-17.07-13.651-30.723-30.717-30.723z m163.838 0c-17.066 0-30.717 13.653-30.717 30.723 0 17.066 13.651 30.719 30.717 30.719 17.07 0 30.723-13.653 30.723-30.719-0.001-17.07-13.654-30.723-30.723-30.723z m153.604 85.334C641.711 331.093 542.721 249.175 419.84 249.175c-129.709 0-235.52 92.157-235.52 204.8 0 68.266 37.545 126.294 95.571 163.837 6.828 3.413-20.477 61.44-13.651 64.854 10.24 3.413 58.026-44.375 71.68-40.959 23.891 10.242 51.201 13.653 81.92 13.653 13.651 0 27.31 0 40.961-3.413 30.719 61.438 98.985 105.81 184.323 105.81 23.891 0 44.368-3.413 64.852-10.238 6.825-3.415 51.197 37.547 58.022 34.135 10.246-6.827-20.477-51.203-10.24-58.028 51.203-27.31 81.92-75.092 81.92-126.294 0-88.746-81.919-160.429-184.316-163.842zM591.083 548.42c-3.946 3.946-9.494 6.244-15.079 6.244-5.59 0-11.14-2.298-15.087-6.244-3.95-3.953-6.25-9.502-6.25-15.089s2.298-11.134 6.25-15.087c3.946-3.946 9.496-6.244 15.087-6.244 5.584 0 11.131 2.298 15.079 6.244 3.95 3.953 6.252 9.5 6.252 15.087s-2.301 11.136-6.252 15.089z m-143.934 42.087v17.066c-10.246 3.415-20.483 3.415-30.723 3.415-27.306 0-51.201-6.827-75.094-13.653 0 0-10.238-3.413-13.651 0-10.24 6.825-23.891 23.891-23.891 23.891s6.825-10.238 6.825-27.304c0-6.825-10.244-13.651-13.657-13.651-44.37-27.312-71.678-78.512-71.678-129.709 0-92.164 88.75-163.844 194.561-163.844 98.987 0 184.321 64.854 191.147 143.36-92.159 13.656-163.837 78.509-163.837 160.429z m271.934-42.087c-3.946 3.946-9.5 6.244-15.085 6.244s-11.134-2.298-15.081-6.244c-3.95-3.953-6.252-9.502-6.252-15.089s2.3-11.134 6.252-15.087c3.946-3.946 9.494-6.244 15.081-6.244 5.584 0 11.138 2.298 15.085 6.244 3.95 3.953 6.25 9.5 6.25 15.087s-2.299 11.136-6.25 15.089zM512 0C229.231 0 0 229.229 0 512c0 282.769 229.231 512 512 512 282.772 0 512-229.231 512-512C1024 229.228 794.771 0 512 0z m0 981.334C252.795 981.334 42.666 771.205 42.666 512S252.795 42.666 512 42.666 981.334 252.795 981.334 512 771.205 981.334 512 981.334z" p-id="2239"></path></svg>