<?xml version="1.0" standalone="no"?><!DOCTYPE svg PUBLIC "-//W3C//DTD SVG 1.1//EN" "http://www.w3.org/Graphics/SVG/1.1/DTD/svg11.dtd"><svg t="1504683958478" class="icon" style="" viewBox="0 0 1024 1024" version="1.1" xmlns="http://www.w3.org/2000/svg" p-id="1171" xmlns:xlink="http://www.w3.org/1999/xlink" width="200" height="200"><defs><style type="text/css"></style></defs><path d="M877.965312 355.6340167111111h-95.05147259259257V169.04962654814813a126.39612776296298 126.39612776296298 0 0 0-125.60387034074071-126.88934684444445H158.56450370370374a126.39224414814814 126.39224414814814 0 0 0-125.59610311111109 126.88934684444445v417.83423431111106a82.3675866074074 82.3675866074074 0 0 0 81.94427259259258 82.59283626666665 80.64326162962963 80.64326162962963 0 0 0 64.4330533925926-32.15244705185185l17.790839466666668-23.301688888888886a2.5515349333333326 2.5515349333333326 0 0 1 2.046665007407407-1.0175070814814815h54.44439608888888v186.5843901629629a126.39612776296298 126.39612776296298 0 0 0 125.60387034074071 126.90876491851851h458.1150871703703a2.586487466666667 2.586487466666667 0 0 1 2.046665007407407 1.0136234666666666l16.765565155555553 21.94630731851852a81.21415300740742 81.21415300740742 0 0 0 64.88355271111111 32.381580325925924 82.9423616 82.9423616 0 0 0 82.52681481481481-83.1753784888889V482.5233635555556a126.39224414814814 126.39224414814814 0 0 0-125.60387034074071-126.88934684444445zM199.19099828148148 555.8848474074074a58.91055312592592 58.91055312592592 0 0 0-46.80920936296296 23.235667437037037l-17.790839466666668 23.301688888888886a24.420169955555554 24.420169955555554 0 0 1-19.670509037037036 9.938170311111113 25.200776533333332 25.200776533333332 0 0 1-25.406608118518513-25.46874595555556V169.04962654814813A69.4157312 69.4157312 0 0 1 158.56450370370374 99.28437001481484h498.74546536296293a69.41961481481482 69.41961481481482 0 0 1 69.05843863703703 69.76914014814814v186.5843901629629H379.2314974814814a126.39612776296298 126.39612776296298 0 0 0-125.60387034074071 126.88546322962961v73.36148385185184H199.19099828148148z m747.8327523555554 342.76784355555554a25.771667911111106 25.771667911111106 0 0 1-25.98138311111111 26.047404562962956 24.963876029629624 24.963876029629624 0 0 1-20.11712474074074-10.159536355555556L884.1557940148148 892.5942518518518a58.926087585185186 58.926087585185186 0 0 0-46.80920936296296-23.235667437037037H379.2314974814814a69.4157312 69.4157312 0 0 1-69.05843863703703-69.76525653333333V482.5233635555556a69.4157312 69.4157312 0 0 1 69.05843863703703-69.76137291851852h498.7338145185185a69.41184758518519 69.41184758518519 0 0 1 69.05843863703703 69.76137291851852v416.1409782518518z" p-id="1172"></path></svg>