<?xml version="1.0" standalone="no"?><!DOCTYPE svg PUBLIC "-//W3C//DTD SVG 1.1//EN" "http://www.w3.org/Graphics/SVG/1.1/DTD/svg11.dtd"><svg t="1504683953371" class="icon" style="" viewBox="0 0 1024 1024" version="1.1" xmlns="http://www.w3.org/2000/svg" p-id="1063" xmlns:xlink="http://www.w3.org/1999/xlink" width="200" height="200"><defs><style type="text/css"></style></defs><path d="M140.069971976428 561.4893350979423a69.44856069056789 69.44856069056789 0 0 0-54.54431718294651 26.229347601909467l-20.732496453530867 26.282371889514398a29.419642239473244 29.419642239473244 0 0 1-52.54706901649383-17.52010836279835V124.82990798064196a79.6248052200823 79.6248052200823 0 0 1 80.49086858429631-78.74990447460081h581.1550295313908a79.6248052200823 79.6248052200823 0 0 1 80.46877513112756 78.74990447460081v210.61688905744856h-404.50019668490535c-80.70296573471603 0-146.36470855216461 64.25218050528395-146.36470855216461 143.2318568928395V561.4893350979423H140.069971976428z m871.4188172620906 386.92706403450205a30.095701906436215 30.095701906436215 0 0 1-53.72244072506994 17.93546528237037l-19.53944998241975-24.775598383407406a69.45297938120164 69.45297938120164 0 0 0-54.54431718294651-26.224928911275722h-533.8220154627161a79.62922391071605 79.62922391071605 0 0 1-80.44668167795884-78.74990447460081v-357.9139413333333a79.62922391071605 79.62922391071605 0 0 1 80.46877513112756-78.74990447460081h581.1329360782222a79.62922391071605 79.62922391071605 0 0 1 80.47319382176131 78.74990447460081v469.72890782024683z" p-id="1064"></path></svg>