<?xml version="1.0" standalone="no"?><!DOCTYPE svg PUBLIC "-//W3C//DTD SVG 1.1//EN" "http://www.w3.org/Graphics/SVG/1.1/DTD/svg11.dtd"><svg t="1531982451354" class="icon" style="" viewBox="0 0 1024 1024" version="1.1" xmlns="http://www.w3.org/2000/svg" p-id="6648" xmlns:xlink="http://www.w3.org/1999/xlink" width="200" height="200"><defs><style type="text/css"></style></defs><path d="M881.66 286.78V181.14A82.92 82.92 0 0 0 770.89 103L290.8 274.32a37.66 37.66 0 0 1-12.66 2.18H146.25a83 83 0 0 0-82.92 82.92v150.75a83 83 0 0 0 82.92 82.92h83.3c6.45 116.84 61.85 223.6 155.37 295.4a60.3 60.3 0 1 0 73.44-95.67 277.44 277.44 0 0 1-105.13-175.26l417.66 149a82.91 82.91 0 0 0 110.77-78.1V582.82a101.21 101.21 0 0 0 78.7-98.57v-98.9a101.21 101.21 0 0 0-78.7-98.57z m-773.1 223.4V359.41a37.72 37.72 0 0 1 37.69-37.69h82v226.14h-82a37.72 37.72 0 0 1-37.69-37.69z m727.87 178.28A37.69 37.69 0 0 1 786.08 724l-437.2-156V301.62l437.2-156a37.68 37.68 0 0 1 50.35 35.5z" p-id="6649"></path></svg>