<?xml version="1.0" standalone="no"?><!DOCTYPE svg PUBLIC "-//W3C//DTD SVG 1.1//EN" "http://www.w3.org/Graphics/SVG/1.1/DTD/svg11.dtd"><svg t="1531982447129" class="icon" style="" viewBox="0 0 1024 1024" version="1.1" xmlns="http://www.w3.org/2000/svg" p-id="6540" xmlns:xlink="http://www.w3.org/1999/xlink" width="200" height="200"><defs><style type="text/css"></style></defs><path d="M850.5 173.87h-7.86V150.3a86.52 86.52 0 0 0-86.43-86.43H300.49a23.75 23.75 0 0 0-16.67 6.91L95.25 259.35a23.71 23.71 0 0 0-6.9 16.65v550a86.52 86.52 0 0 0 86.43 86.43h25.83c14.36 27.86 43.1 47.14 76.54 47.14h636.2A23.58 23.58 0 0 0 936.92 936V260.3a86.53 86.53 0 0 0-86.42-86.43z m-573.58-29.53v108.1h-108.1zM795.5 865.27H174.78A39.32 39.32 0 0 1 135.49 826V299.58h165A23.58 23.58 0 0 0 324.06 276V111h432.15a39.32 39.32 0 0 1 39.29 39.3zM688.23 554.45h-450.6a31.43 31.43 0 0 0 0 62.86h450.6a31.43 31.43 0 0 0 0-62.86z m-450.6-62.86h125.72a31.43 31.43 0 1 0 0-62.86H237.63a31.43 31.43 0 0 0 0 62.86z m450.59 193H237.63a31.43 31.43 0 0 0 0 62.86h450.6a31.43 31.43 0 0 0 0-62.86zM640.74 221a139 139 0 0 0-114.22 0C477 243 442.2 292.53 442.2 350.16c0 78 63.44 141.43 141.43 141.43s141.43-63.44 141.43-141.43c0-57.63-34.76-107.16-84.32-129.16z m-57.11 207.74a78.57 78.57 0 1 1 78.57-78.57 78.65 78.65 0 0 1-78.57 78.57z" p-id="6541"></path></svg>