<?xml version="1.0" standalone="no"?><!DOCTYPE svg PUBLIC "-//W3C//DTD SVG 1.1//EN" "http://www.w3.org/Graphics/SVG/1.1/DTD/svg11.dtd"><svg t="1531982468258" class="icon" style="" viewBox="0 0 1024 1024" version="1.1" xmlns="http://www.w3.org/2000/svg" p-id="6972" xmlns:xlink="http://www.w3.org/1999/xlink" width="200" height="200"><defs><style type="text/css"></style></defs><path d="M948.71 287.14c-19.66-60.6-64.1-109.4-125.15-137.46C792.18 135.3 758.05 128 722.1 128c-85.56 0-166.22 42.47-210 108.26C468.34 170.49 387.7 128 302.12 128c-36 0-70.09 7.31-101.48 21.7-61 28-105.49 76.85-125.15 137.46C52 359.66 64.77 442.23 112.56 526c64.91 114 178.95 201.47 367.87 346.32 0 0 17 13.82 31.68 13.82s31.29-13.51 31.29-13.51C732.53 727.6 846.69 640.06 911.63 526c47.79-83.77 60.62-166.34 37.08-238.86zM514.45 836.35c-0.65 0.51-1.45 1.06-2.29 1.59-1.16-0.74-2.38-1.59-3.49-2.45-143.39-109.94-242.11-186-307.46-264.27h108.22a30.9 30.9 0 0 0 26.74-15.4l40.74-70.09L444.54 665a30.93 30.93 0 0 0 27.71 20h1.24a31 31 0 0 0 28-17.72L636 382.73l64.76 168.63a30.94 30.94 0 0 0 28.89 19.85H823c-65.44 78.32-164.4 154.59-308.55 265.14zM871.29 503c-1.56 2.75-3.56 5.35-5.19 8.07a30.1 30.1 0 0 0-8.75-1.77H750.94L667.84 293a31 31 0 0 0-27.74-19.84c-12.33-0.86-23.84 6.5-29.13 17.71l-134.27 284L411.85 403a30.89 30.89 0 0 0-26.39-20 30.44 30.44 0 0 0-29.31 15.29l-64.52 111H166.86a30.05 30.05 0 0 0-8.75 1.77c-1.65-2.74-3.66-5.36-5.23-8.13-41.13-72.07-52.63-141.74-33.24-201.48 15.6-48.1 51.25-87 100.34-109.59 25.31-11.6 52.94-17.48 82.15-17.48 68.69 0 135.95 34.38 171.34 87.6a46.42 46.42 0 0 0 77.3 0c35.38-53.18 102.64-87.55 171.34-87.55 29.26 0 56.9 5.86 82.08 17.39 49.11 22.61 84.81 61.54 100.37 109.64 19.39 59.74 7.89 129.42-33.27 201.54z" p-id="6973"></path></svg>