<?xml version="1.0" standalone="no"?><!DOCTYPE svg PUBLIC "-//W3C//DTD SVG 1.1//EN" "http://www.w3.org/Graphics/SVG/1.1/DTD/svg11.dtd"><svg t="1531982421501" class="icon" style="" viewBox="0 0 1024 1024" version="1.1" xmlns="http://www.w3.org/2000/svg" p-id="6000" xmlns:xlink="http://www.w3.org/1999/xlink" width="200" height="200"><defs><style type="text/css"></style></defs><path d="M512.17 64.55c-247.56 0-448.25 200.64-448.25 448.15s200.69 448.15 448.25 448.15S960.42 760.21 960.42 512.7 759.73 64.55 512.17 64.55z m0 848.28c-220.69 0-400.23-179.5-400.23-400.13s179.54-400.13 400.23-400.13S912.4 292.07 912.4 512.7 732.86 912.83 512.17 912.83z m0-720.24c-176.79 0-320.11 143.32-320.11 320.11s143.32 320.1 320.11 320.1 320.1-143.32 320.1-320.1S689 192.59 512.17 192.59z m170.32 431.29a48 48 0 1 1-70 65.74L512.17 582.83 411.85 689.62a48 48 0 0 1-70-65.74L446.3 512.7 341.86 401.52a48 48 0 1 1 70-65.74l100.31 106.8 100.33-106.8a48 48 0 1 1 70 65.74L578 512.7z" p-id="6001"></path></svg>