<?xml version="1.0" standalone="no"?><!DOCTYPE svg PUBLIC "-//W3C//DTD SVG 1.1//EN" "http://www.w3.org/Graphics/SVG/1.1/DTD/svg11.dtd"><svg t="1531982363226" class="icon" style="" viewBox="0 0 1024 1024" version="1.1" xmlns="http://www.w3.org/2000/svg" p-id="5676" xmlns:xlink="http://www.w3.org/1999/xlink" width="200" height="200"><defs><style type="text/css"></style></defs><path d="M871.6 423.8c0-24.3-2.4-48.6-7.3-72.5-9.4-46-27.8-89.7-54.1-128.6C699 58 475.3 14.7 310.6 126c-57.7 39-102.8 93.8-129.9 157.9-9.2 21.8-16.3 44.4-21 67.5-4.9 23.9-7.3 48.1-7.3 72.5 0 120.6 59.5 227 150.6 292.2l-62.7 177.7 112.2-35.9L416 959.8l62.8-178c11 1 22 1.7 33.2 1.7s22.3-0.7 33.2-1.7l62.8 178 63.5-101.9 112.2 35.9L721 716.1c91.1-65.3 150.6-171.7 150.6-292.3zM565.3 733.6c-82.2 14.1-166.6-5-234.6-53.1-80.5-57-133.3-150.8-133.3-256.7 0-173.5 141.2-314.7 314.7-314.7s314.7 141.2 314.7 314.7c0 106-52.8 199.7-133.3 256.7-38.3 27.1-82.1 45.2-128.2 53.1zM512 169.1c-140.7 0-254.7 114.1-254.7 254.7s114 254.7 254.7 254.7 254.7-114 254.7-254.7-114-254.7-254.7-254.7z m0 464.5c-115.7 0-209.8-94.1-209.8-209.8S396.3 214 512 214s209.8 94.1 209.8 209.8S627.7 633.6 512 633.6z m41.7-255L512 291.5l-41.7 87.1-93.2 14 67.4 67.8-15.9 95.7 83.4-45.2 83.3 45.2-15.9-95.7 67.4-67.8-93.1-14z" p-id="5677"></path></svg>