<?xml version="1.0" standalone="no"?><!DOCTYPE svg PUBLIC "-//W3C//DTD SVG 1.1//EN" "http://www.w3.org/Graphics/SVG/1.1/DTD/svg11.dtd"><svg t="1531982438833" class="icon" style="" viewBox="0 0 1024 1024" version="1.1" xmlns="http://www.w3.org/2000/svg" p-id="6324" xmlns:xlink="http://www.w3.org/1999/xlink" width="200" height="200"><defs><style type="text/css"></style></defs><path d="M945.6 858.3l-73.2-73.4c33.8-41.6 52.3-93.6 52.2-147.2 0-129.2-104.7-233.9-234-233.9s-234 104.8-234 234 104.7 234 234 234c38 0 75.5-9.3 109.1-27.1l79.7 79.8c18.3 18.3 47.9 18.3 66.2 0.1 18.2-18.3 18.2-48 0-66.3zM821.4 748.6c-14.4 17-32.1 31.1-51.9 41.4-24.4 12.7-51.4 19.4-78.9 19.4-94.6 0-171.6-77-171.6-171.6s77-171.6 171.6-171.6 171.6 77 171.6 171.6c0 40.6-14.5 79.9-40.8 110.8zM690.6 497.4c-77.4 0-140.4 63-140.4 140.4 0 17.2 14 31.2 31.2 31.2s31.2-14 31.2-31.2c0-43.1 34.9-78 78-78 17.2 0 31.2-14 31.2-31.2s-14-31.2-31.2-31.2zM436.9 818.8H175.3c-35.2 0-63.8-27.1-63.8-60.5V226.1h684.9c35.2 0 63.8 27.1 63.8 60.5v105.8c0 12.9 10.5 23.4 23.4 23.4 12.9 0 23.4-10.5 23.4-23.4V286.7c0-59.2-49.6-107.3-110.6-107.3H532.6l-66.2-66.2c-17.5-17.6-41.4-27.4-66.2-27.4h-242c-51.7 0-93.5 41.9-93.5 93.6v578.9c0 59.2 49.6 107.2 110.6 107.2h261.6c12.9 0 23.4-10.5 23.4-23.4 0-12.9-10.5-23.3-23.4-23.3z m-36.7-498.9H197.4c-12.9 0-23.4 10.5-23.4 23.4 0 12.9 10.5 23.4 23.4 23.4h202.8c12.9 0 23.4-10.5 23.4-23.4 0-13-10.5-23.4-23.4-23.4z m0 109.1H197.4c-12.9 0-23.4 10.5-23.4 23.4 0 12.9 10.5 23.4 23.4 23.4h202.8c12.9 0 23.4-10.5 23.4-23.4 0-12.9-10.5-23.4-23.4-23.4z" p-id="6325"></path></svg>