<?xml version="1.0" standalone="no"?><!DOCTYPE svg PUBLIC "-//W3C//DTD SVG 1.1//EN" "http://www.w3.org/Graphics/SVG/1.1/DTD/svg11.dtd"><svg t="1531982428253" class="icon" style="" viewBox="0 0 1024 1024" version="1.1" xmlns="http://www.w3.org/2000/svg" p-id="6108" xmlns:xlink="http://www.w3.org/1999/xlink" width="200" height="200"><defs><style type="text/css"></style></defs><path d="M511.09 63.87c-247.56 0-448.25 200.69-448.25 448.24s200.69 448.24 448.25 448.24 448.24-200.68 448.24-448.24S758.65 63.87 511.09 63.87z m0 848.46c-220.68 0-400.22-179.54-400.22-400.22s179.54-400.22 400.22-400.22 400.22 179.54 400.22 400.22-179.54 400.22-400.22 400.22z m0-720.39c-176.83 0-320.17 143.35-320.17 320.17s143.34 320.18 320.17 320.18 320.17-143.35 320.17-320.18-143.35-320.17-320.17-320.17zM464.1 336a48 48 0 0 1 96.05 0v160.09a48 48 0 0 1-96.05 0z m47 400.23a64 64 0 1 1 64-64 64 64 0 0 1-64.01 64z" p-id="6109"></path></svg>