<?xml version="1.0" standalone="no"?><!DOCTYPE svg PUBLIC "-//W3C//DTD SVG 1.1//EN" "http://www.w3.org/Graphics/SVG/1.1/DTD/svg11.dtd"><svg t="1531982358407" class="icon" style="" viewBox="0 0 1024 1024" version="1.1" xmlns="http://www.w3.org/2000/svg" p-id="5568" xmlns:xlink="http://www.w3.org/1999/xlink" width="200" height="200"><defs><style type="text/css"></style></defs><path d="M816.8 102.2H207.2c-79 0-143.4 64.3-143.4 143.4V646c0 79 64.3 143.3 143.4 143.3h125.6v72.8H153.5c-16.5 0.3-29.6 13.9-29.3 30.4 0.3 16.1 13.3 29 29.3 29.3h717c16.5-0.3 29.6-13.9 29.3-30.4-0.3-16.1-13.3-29-29.3-29.3H691.2v-72.8h125.5c79 0 143.4-64.3 143.4-143.4V245.5c0-79-64.3-143.3-143.3-143.3z m98.5 543.7c-0.1 54.4-44.1 98.5-98.5 98.5H207.2c-54.4-0.1-98.5-44.1-98.5-98.5V245.5c0-54.4 44.1-98.5 98.5-98.6h609.5c54.4 0.1 98.5 44.1 98.5 98.5l0.1 400.5zM774.7 255.2c-14.4-8-32.6-2.7-40.5 11.7v0.1l-126 229.4-67.8-68.8c-11.6-11.8-30.5-11.9-42.2-0.4-2.1 2-3.8 4.4-5.2 6.9L442.5 526l-64.4-133.4c-4.9-10.1-15-16.6-26.1-16.9-11.2-0.7-21.6 5.7-27 15.5L196.3 625.5c-8.2 14.3-3.2 32.6 11.1 40.8s32.6 3.2 40.8-11.1c0.2-0.3 0.3-0.6 0.5-0.8l100.8-183.5L414 604.2c4.9 10.1 15 16.6 26.1 16.9 11.2 0.5 21.7-5.6 27-15.5L526 498.2l67.7 68.8c11.6 11.8 30.5 11.9 42.2 0.4 2.1-2 3.8-4.4 5.2-6.9L786.3 296c8.1-14.7 2.8-32.8-11.6-40.8z" p-id="5569"></path></svg>