<?xml version="1.0" standalone="no"?><!DOCTYPE svg PUBLIC "-//W3C//DTD SVG 1.1//EN" "http://www.w3.org/Graphics/SVG/1.1/DTD/svg11.dtd"><svg t="1531982434488" class="icon" style="" viewBox="0 0 1024 1024" version="1.1" xmlns="http://www.w3.org/2000/svg" p-id="6216" xmlns:xlink="http://www.w3.org/1999/xlink" width="200" height="200"><defs><style type="text/css"></style></defs><path d="M721.38 426.71c-132 0-239 107-239 239s107 239 239 239 239-107 239-239-107.02-239-239-239z m96.53 382.41l-96.53-52.35-96.53 52.35 18.43-110.88-78.08-78.53 107.93-16.18 48.26-100.89 48.27 100.89 107.92 16.18-78.09 78.53zM415.19 591h-224a22.4 22.4 0 0 0 0 44.81h224a22.4 22.4 0 0 0 0-44.81z m0 104.55h-224a22.4 22.4 0 0 0 0 44.81h224a22.4 22.4 0 0 0 0-44.81z m0 134.42H181.76C141.65 830 109 795 109 752V250.77c0-43 32.63-78 72.74-78h631.18c40.11 0 72.75 35 72.75 78V404.3a22.4 22.4 0 1 0 44.81 0V250.77c0-67.71-52.74-122.78-117.56-122.78H181.76c-64.82 0-117.55 55.08-117.55 122.78V752c0 67.71 52.73 122.78 117.55 122.78h233.43a22.4 22.4 0 0 0 0-44.81z m-7.47-567.55H198.63a29.87 29.87 0 0 0-29.87 29.87v209.09a29.87 29.87 0 0 0 29.87 29.87h209.09a29.87 29.87 0 0 0 29.87-29.87V292.29a29.87 29.87 0 0 0-29.87-29.87z m-14.94 224H213.57V307.23h179.22z" p-id="6217"></path></svg>