<?xml version="1.0" standalone="no"?><!DOCTYPE svg PUBLIC "-//W3C//DTD SVG 1.1//EN" "http://www.w3.org/Graphics/SVG/1.1/DTD/svg11.dtd"><svg t="1531982458486" class="icon" style="" viewBox="0 0 1024 1024" version="1.1" xmlns="http://www.w3.org/2000/svg" p-id="6756" xmlns:xlink="http://www.w3.org/1999/xlink" width="200" height="200"><defs><style type="text/css"></style></defs><path d="M945.25 841.6l-75.52-75.68c4.42-5.45 8.68-11 12.62-16.88q6.5-9.62 12.08-19.89a240 240 0 0 0 29.11-115 242.23 242.23 0 0 0-4.9-48.6 239.35 239.35 0 0 0-14.05-45.27A242 242 0 0 0 776.24 392 239.35 239.35 0 0 0 731 377.92a243.57 243.57 0 0 0-97.21 0 239.31 239.31 0 0 0-45.3 14.08 242 242 0 0 0-128.35 128.32 239.35 239.35 0 0 0-14.05 45.27 242.23 242.23 0 0 0-4.9 48.6 240 240 0 0 0 29.11 115q5.57 10.25 12.08 19.89a241 241 0 0 0 312.48 78.41L877 909.74a48.23 48.23 0 1 0 68.27-68.14z m-128-113.22a177.88 177.88 0 0 1-53.49 42.69 175.6 175.6 0 0 1-81.35 20c-97.52 0-176.86-79.34-176.86-176.86s79.34-176.86 176.86-176.86 176.86 79.34 176.86 176.86a176 176 0 0 1-42.07 114.17zM682.37 469.51c-79.79 0-144.7 64.91-144.7 144.7a32.16 32.16 0 0 0 64.31 0 80.47 80.47 0 0 1 80.39-80.39 32.16 32.16 0 0 0 0-64.31z m73.2-236.74a24.12 24.12 0 0 0-24.12-24.12H200.88a24.12 24.12 0 1 0 0 48.23h530.58a24.12 24.12 0 0 0 24.12-24.11zM434 377.47a24.12 24.12 0 0 0-24.12-24.12h-209a24.12 24.12 0 0 0 0 48.23h209A24.12 24.12 0 0 0 434 377.47z m-88.42 120.59h-144.7a24.12 24.12 0 0 0 0 48.23h144.7a24.12 24.12 0 0 0 0-48.23z m0 144.7h-144.7a24.12 24.12 0 0 0 0 48.23h144.7a24.12 24.12 0 0 0 0-48.23z m72.35 176.86H190.75c-43.18 0-78.3-37.65-78.3-83.94V196.12c0-46.29 35.12-83.94 78.3-83.94h583c43.18 0 78.32 37.65 78.32 83.94v133.67a24.12 24.12 0 0 0 48.23 0V196.12c0-72.89-56.78-132.17-126.55-132.17h-583c-69.75 0-126.54 59.28-126.54 132.17v539.57c0 72.89 56.76 132.17 126.54 132.17h227.18a24.12 24.12 0 1 0 0-48.23z" p-id="6757"></path></svg>