<?xml version="1.0" standalone="no"?><!DOCTYPE svg PUBLIC "-//W3C//DTD SVG 1.1//EN" "http://www.w3.org/Graphics/SVG/1.1/DTD/svg11.dtd"><svg t="1531982442681" class="icon" style="" viewBox="0 0 1024 1024" version="1.1" xmlns="http://www.w3.org/2000/svg" p-id="6432" xmlns:xlink="http://www.w3.org/1999/xlink" width="200" height="200"><defs><style type="text/css"></style></defs><path d="M780.8 63.9H243.2C144.4 63.9 64 144.3 64 243.1v537.7C64 879.6 144.4 960 243.2 960h537.7c98.8 0 179.2-80.4 179.2-179.2V243.2c0-98.9-80.4-179.3-179.3-179.3z m134.5 716.9c0 74.1-60.3 134.4-134.4 134.4H243.2c-74.1 0-134.4-60.3-134.4-134.4V243.2c0-74.1 60.3-134.4 134.4-134.4h537.7c74.1 0 134.4 60.3 134.4 134.4v537.6zM780.8 482.1H452.3c-16.5 0-29.9 13.4-29.9 29.9s13.4 29.8 29.9 29.9h328.6c16.5 0 29.9-13.4 29.9-29.9-0.1-16.5-13.4-29.9-30-29.9z m0-239H452.3c-16.5 0-29.9 13.4-29.9 29.9s13.4 29.8 29.9 29.9h328.6c16.5 0 29.9-13.4 29.9-29.9-0.1-16.5-13.5-29.9-30-29.9zM273 183.4l-27.7 56.8-61.9 9.1 44.8 44.2-10.6 62.4 55.4-29.5 55.4 29.5-10.6-62.4 44.8-44.2-61.9-9.1-27.7-56.8z m0 225.6l-27.7 56.8-61.9 9.1 44.8 44.2-10.6 62.4 55.4-29.4 55.4 29.5-10.6-62.5 44.8-44.2-61.9-9.1L273 409z m507.8 282.2H452.3c-16.5 0-29.9 13.4-29.9 29.9s13.4 29.8 29.9 29.9h328.6c16.5 0 29.9-13.4 29.9-29.9-0.1-16.5-13.5-29.9-30-29.9z m-480.1 0.1L273 634.5l-27.7 56.8-61.9 9.1 44.8 44.2-10.6 62.4 55.4-29.5 55.4 29.5-10.6-62.4 44.8-44.2-61.9-9.1z" p-id="6433"></path></svg>