<?xml version="1.0" standalone="no"?><!DOCTYPE svg PUBLIC "-//W3C//DTD SVG 1.1//EN" "http://www.w3.org/Graphics/SVG/1.1/DTD/svg11.dtd"><svg t="1531982463519" class="icon" style="" viewBox="0 0 1024 1024" version="1.1" xmlns="http://www.w3.org/2000/svg" p-id="6864" xmlns:xlink="http://www.w3.org/1999/xlink" width="200" height="200"><defs><style type="text/css"></style></defs><path d="M960.35 557.59c0-115.48-93.61-209.1-209.1-209.1s-209.1 93.62-209.1 209.1a208.56 208.56 0 0 0 69 155.25L546.71 890l83.7-26 47.41 73.7 62.34-171.29q5.51 0.29 11.09 0.29c2.53 0 5-0.06 7.55-0.15l62.29 171.14L868.51 864l83.7 26-63.6-174.76a208.6 208.6 0 0 0 71.74-157.65z m-209.1 149.35c-82.36 0-149.36-67-149.36-149.36s67-149.36 149.36-149.36 149.36 67 149.36 149.36-67 149.36-149.36 149.36z m-1.79-239a89.61 89.61 0 1 0 89.61 89.61A89.61 89.61 0 0 0 749.46 468z m-304.4 93.26H221a22.4 22.4 0 0 0 0 44.8h224a22.4 22.4 0 0 0 0-44.81z m0 104.55H221a22.4 22.4 0 0 0 0 44.81h224a22.4 22.4 0 0 0 0-44.81zM842.79 98.23h-661C116.94 98.23 64.21 153.3 64.21 221v501.23c0 67.71 52.73 122.77 117.55 122.77H482.4a22.4 22.4 0 1 0 0-44.81H181.76c-40.11 0-72.74-35-72.74-78V221c0-43 32.63-78 72.74-78h661c40.11 0 72.75 35 72.75 78v127.49a22.4 22.4 0 0 0 44.81 0V221c0.03-67.7-52.71-122.77-117.53-122.77zM228.5 501.49h209.1a29.87 29.87 0 0 0 29.87-29.87V262.53a29.87 29.87 0 0 0-29.87-29.87H228.5a29.87 29.87 0 0 0-29.87 29.87v209.09a29.87 29.87 0 0 0 29.87 29.87z m14.94-224h179.22v179.2H243.44z" p-id="6865"></path></svg>