<?xml version="1.0" standalone="no"?><!DOCTYPE svg PUBLIC "-//W3C//DTD SVG 1.1//EN" "http://www.w3.org/Graphics/SVG/1.1/DTD/svg11.dtd"><svg t="1531982410454" class="icon" style="" viewBox="0 0 1024 1024" version="1.1" xmlns="http://www.w3.org/2000/svg" p-id="5784" xmlns:xlink="http://www.w3.org/1999/xlink" width="200" height="200"><defs><style type="text/css"></style></defs><path d="M820 234h-15.4v-4c0-80.1-65.1-145.2-145.2-145.2H209.7C129.6 84.8 64.5 150 64.5 230v297.2c0.1 38.8 23.7 73.7 59.7 88.1v121c0 76.9 62.6 139.6 139.5 139.6h509.4c2.7 0 5.2 1.3 6.9 3.4l19.4 25.1c16.8 22 42.8 34.9 70.5 34.8 49.5 0 89.7-40.1 89.7-89.5V373.5c0-77-62.6-139.5-139.6-139.5z m94.8 615.7c-0.1 24.8-20.2 44.8-45 44.7-13.8 0.1-26.8-6.4-35-17.4l-19.4-25.1c-10.2-13.1-25.8-20.7-42.3-20.8H263.7c-52.3-0.1-94.7-42.4-94.8-94.8V373.5c0.1-52.3 42.5-94.7 94.8-94.8H820c52.3 0.1 94.7 42.5 94.8 94.8v476.2zM780.5 526.6H303.2c-16.5 0-29.8 13.4-29.8 29.8 0 0.9 0.4 1.7 0.5 2.6 1.2 15.3 14 27.1 29.3 27.2h477.4c16.5 0.3 30.1-12.8 30.4-29.3s-12.8-30.1-29.3-30.4c-0.4 0.1-0.8 0.1-1.2 0.1z m0-119.3H303.2c-16.5-0.3-30.1 12.8-30.4 29.3-0.3 16.5 12.8 30.1 29.3 30.4h478.5c9.4 0 17.4-4.6 22.9-11.4 4.4-5.2 6.9-11.7 7-18.5 0-6.3-2.4-11.8-5.7-16.6-5.5-7.8-14.1-13.2-24.3-13.2zM601.5 646H303.2c-16.5-0.3-30.1 12.8-30.4 29.3-0.3 16.5 12.8 30.1 29.3 30.4h299.5c16.5 0.3 30.1-12.8 30.4-29.3s-12.8-30.1-29.3-30.4h-1.2z" p-id="5785"></path></svg>