<?xml version="1.0" standalone="no"?><!DOCTYPE svg PUBLIC "-//W3C//DTD SVG 1.1//EN" "http://www.w3.org/Graphics/SVG/1.1/DTD/svg11.dtd"><svg t="1531982350898" class="icon" style="" viewBox="0 0 1024 1024" version="1.1" xmlns="http://www.w3.org/2000/svg" p-id="5460" xmlns:xlink="http://www.w3.org/1999/xlink" width="200" height="200"><defs><style type="text/css"></style></defs><path d="M793.3 252.1H614.1c-16.5 0-29.9 13.3-29.9 29.8v139.6c0 16.5 13.4 29.8 29.9 29.8 7.2 0 14.1-2.6 19.6-7.3l14.3-12.4h145.4c16.5 0 29.9-13.3 29.9-29.8V282c-0.1-16.5-13.5-29.9-30-29.9z m17.4-179.2H213.3C131 72.9 64 139.9 64 222.2v418.1c0 60 35.8 111.6 87 135.3-30.9 39.6-54.3 89.6-68 148-2.8 12 4.7 24.1 16.7 26.9 1.7 0.4 3.4 0.6 5.1 0.6h500.6c12.4 0 22.4-10 22.4-22.4 0-1.7-0.2-3.4-0.6-5.1-12.1-51.7-32-96.7-57.9-133.9h241.3c82.3 0 149.3-67 149.3-149.3V222.2C960 139.9 893 72.9 810.7 72.9zM576.1 906.3h-442c14.8-47.6 37.6-87.2 65.9-117.9 16.2-17.5 34.1-32.3 53.8-43.5 62.8-35.8 139.8-35.8 202.6 0 20.2 11.5 38.6 26.6 55.1 44.8 27.8 30.6 50.1 69.7 64.6 116.6zM321.3 669.5c-53.3-11.8-97-55.5-108.8-108.8-11.1-50.3 3.5-101.6 39.1-137.3 27.6-27.5 64.9-42.9 103.9-42.8 11.2 0 22.4 1.2 33.3 3.7 53.3 11.8 97 55.5 108.9 108.8 11.2 50.3-3.5 101.6-39.1 137.3s-86.9 50.3-137.3 39.1z m593.9-29.1c-0.1 57.7-46.8 104.5-104.5 104.5H531.4c-23.2-22.6-50.4-40.5-80.3-52.9 14.3-8.2 27.5-18.3 39.2-30 46.6-46.5 65.7-113.3 51.2-178.6-16-71.2-71.7-126.9-142.9-142.8-65.2-14.5-132 4.6-178.6 51.2S154.3 505 168.8 570.3c11.5 52.1 44.9 95.9 89.7 121.9a252.49 252.49 0 0 0-74.8 47.8c-43.2-12.9-74.9-52.5-74.9-99.7V222.2c0.1-57.7 46.9-104.5 104.6-104.5h597.3c57.7 0.1 104.5 46.8 104.5 104.5v418.2z" p-id="5461"></path></svg>