<svg id="图层_1" data-name="图层 1" xmlns="http://www.w3.org/2000/svg" viewBox="0 0 1024 1024"><title>三人图标</title><path d="M697.45,658.74c-27-9.4-56.18-10-83.16-19.39-8.2-2.8-24.39-6.2-27.79-15.59-3.2-9.2-3.2-20-3.8-29.59q-.6-11.39-.6-22.79c0-5,12.8-15.59,15.59-20.19,10.8-18,11.8-42.18,13.79-62.57,17.39,4.8,19.59-27.39,22.59-37.18,2.2-6.8,15.59-53.58-5.2-47.18,5-8.79,7-19.59,8.39-29.39,4-25.59,5.6-53.57-2.2-78.56-16.19-52-66-81.16-118.55-82.77-53.37-1.8-106.95,23.79-126.94,75.57-9.6,25.19-8.8,52.58-5.6,79,1.4,12,3.4,25.39,9.39,36.19-19.39-5.8-9,35.38-6.8,42.58,3.2,10.2,6,46.78,24.19,41.78,1.6,16.19,3.4,32.79,7.8,48.58,3,10.6,9.2,19.59,16.39,27.79,3.6,4,5.4,4.4,5.2,9.59-.2,15.59.2,32.38-3.8,47.58S399,643.75,385.59,646.55c-36,7.39-69.17,10.79-99.16,33.18-35,25.79-53.17,66-53.17,109.35H789C789,730.11,753.42,678.13,697.45,658.74ZM285.56,634.3l1.72-.87,1.76-.88c13.59-6.39,28.18-8,42.78-9.4,5.6-.6,8.2-4.4,4-9.8-8-10.2-35.58-12.19-47.18-16.79-7.2-2.8-9.19-5.4-9.8-13.4-.2-3.6-2.2-19.59.6-22.19,2-2,14.59-1.2,17.39-1.6a141.09,141.09,0,0,0,33.79-8,62,62,0,0,0,13-6.8c4.8-3.6-3.6-12.4-5.8-17.19-6.8-15-9.8-31.38-10.8-47.78-2-32.19,3-64.57-3-96.56-9-49-46.78-73.57-95-73.57-29.79,0-59.17,10.2-75.77,36.19-18.39,28.59-17.39,64.17-16.39,96.75.6,18.59,1.4,37.38-1.2,56a117.78,117.78,0,0,1-5.8,23.39c-2.2,5.8-13.4,20.19-9,23.19,16.59,11.79,44.59,15.79,64.58,14.19.59,9.8,2.4,22.39-1.2,31.59-5.6,14.39-47.38,18.19-60,22.39-35,11.6-61,40-61,80H222.26c2.6,0,12.6-18.59,15.39-21.59A175.51,175.51,0,0,1,285.56,634.3Zm612-21.34c-16.19-5.2-47.38-6.79-59-20.79-5.8-7-2.6-24.79-2-33.18,8.8.8,18.4-.6,27.39-1.8a122.9,122.9,0,0,0,24-5.59,71.66,71.66,0,0,0,10.6-4.8c7.8-4.6,4.2-5.39.2-12.19-21.79-36.58-12-83-13-123.14-.79-33.39-9.59-70-40-88.76-27.39-17-68-17.59-97.35-5.6-84.76,34-34.78,146.34-63.77,210.71-5,10.8-12.2,14.59.4,21a97.73,97.73,0,0,0,22.19,7.8,177.52,177.52,0,0,0,35.59,4.8c2,0,.6,25.19,0,27.79-2.2,9.8-23.59,12.59-31.59,14.79-8.2,2.2-21.79,2.8-25.78,11.4-6,12.79,19.79,9.6,26.18,10.8,20.59,3.8,38.79,15.19,54.78,28.18,12,9.8,28.19,23,32.59,39H959.33C958.93,653.15,932.74,624.56,897.56,613Z"/></svg>