<?xml version="1.0" standalone="no"?><!DOCTYPE svg PUBLIC "-//W3C//DTD SVG 1.1//EN" "http://www.w3.org/Graphics/SVG/1.1/DTD/svg11.dtd"><svg t="1531982417516" class="icon" style="" viewBox="0 0 1024 1024" version="1.1" xmlns="http://www.w3.org/2000/svg" p-id="5892" xmlns:xlink="http://www.w3.org/1999/xlink" width="200" height="200"><defs><style type="text/css"></style></defs><path d="M511.33 64.22c-247.56 0-448.25 200.64-448.25 448.15s200.69 448.15 448.25 448.15 448.25-200.64 448.25-448.15S758.89 64.22 511.33 64.22zM785 804c-2-66.23-30.42-124.36-73-159.69q-1.65-1.37-3.32-2.69c-26.65-21-58.54-33.27-92.82-33.27H406.75c-76.39 0-141 60.77-162 144.23a240.12 240.12 0 0 0-7.12 51.42C159.8 731 111.1 627.27 111.1 512.37c0-220.64 179.54-400.14 400.23-400.14s400.23 179.5 400.23 400.14C911.56 627.27 862.87 731 785 804zM640.43 289.72q-0.77-1-1.55-2.08a160.06 160.06 0 0 0-95.29-60.11q-4.27-0.87-8.63-1.51-2.76-0.41-5.54-0.72a161.7 161.7 0 0 0-18.09-1 160 160 0 0 0-156 123.91q-0.89 3.87-1.6 7.81a161 161 0 0 0-2.5 28.33 161.6 161.6 0 0 0 1.29 20.38 159.38 159.38 0 0 0 3 16.7q0.68 2.87 1.46 5.7a158.82 158.82 0 0 0 6.33 18.4c0.22 0.52 0.43 1 0.65 1.56q2.73 6.39 6 12.48 0.54 1 1.09 2 3.16 5.72 6.76 11.14a160.06 160.06 0 0 0 254.46 16.36q1.26-1.45 2.48-2.93a160.08 160.08 0 0 0 9.88-190.27q-1.99-3.13-4.2-6.15z" p-id="5893"></path></svg>